SplineFontDB: 3.2
FontName: ZTEagle-Black
FullName: ZT Eagle Black
FamilyName: ZT Eagle
Weight: Black
Copyright: Copyright (c) 2023, Zamero Type Foundry
UComments: "2023-11-25: Created with FontForge (http://fontforge.org)"
Version: 001.000
ItalicAngle: 0
UnderlinePosition: -100
UnderlineWidth: 50
Ascent: 800
Descent: 200
InvalidEm: 0
LayerCount: 2
Layer: 0 0 "Back" 1
Layer: 1 0 "Fore" 0
XUID: [1021 474 1118879153 10021]
StyleMap: 0x0000
FSType: 0
OS2Version: 0
OS2_WeightWidthSlopeOnly: 0
OS2_UseTypoMetrics: 1
CreationTime: 1700961182
ModificationTime: 1711208202
PfmFamily: 17
TTFWeight: 900
TTFWidth: 5
LineGap: 90
VLineGap: 90
OS2TypoAscent: 0
OS2TypoAOffset: 1
OS2TypoDescent: 0
OS2TypoDOffset: 1
OS2TypoLinegap: 90
OS2WinAscent: 0
OS2WinAOffset: 1
OS2WinDescent: 0
OS2WinDOffset: 1
HheadAscent: 0
HheadAOffset: 1
HheadDescent: 0
HheadDOffset: 1
OS2Vendor: 'PfEd'
Lookup: 1 0 0 "'tnum' Tabular Numbers lookup 8" { "'tnum' Tabular Numbers lookup 8-1" ("tnum") } ['tnum' ('DFLT' <'dflt' > 'grek' <'dflt' > 'latn' <'dflt' > ) ]
Lookup: 1 0 0 "'dnom' Denominators lookup 0" { "'dnom' Denominators lookup 0 subtable"  } ['dnom' ('DFLT' <'dflt' > ) ]
Lookup: 1 0 0 "'numr' Numerators lookup 0" { "'numr' Numerators lookup 0 subtable"  } ['numr' ('DFLT' <'dflt' > ) ]
Lookup: 1 0 0 "'sinf' Scientific Inferiors lookup 0" { "'sinf' Scientific Inferiors lookup 0 subtable"  } ['sinf' ('DFLT' <'dflt' > ) ]
Lookup: 1 0 0 "'sups' Superscript lookup 0" { "'sups' Superscript lookup 0 subtable" ("superior") } ['sups' ('DFLT' <'dflt' > ) ]
Lookup: 1 0 0 "'ss02' Style Set 2 lookup 2" { "'ss02' Style Set 2 lookup 2-1" ("ss02") } ['ss02' ('DFLT' <'dflt' > 'cyrl' <'dflt' > 'grek' <'dflt' > 'latn' <'dflt' > ) ]
Lookup: 1 0 0 "'ss03' Style Set 3 lookup 3" { "'ss03' Style Set 3 lookup 3-1" ("ss03") } ['ss03' ('DFLT' <'dflt' > 'cyrl' <'dflt' > 'grek' <'dflt' > 'latn' <'dflt' > ) ]

StartChar: I
Encoding: 73 73 0
Width: 376
Flags: W
HStem: 0 21G<60 316> 711 20G<60 316>
VStem: 60 256<0 731>
AnchorPoint: "Anchor-3" 231 0 basechar 0
AnchorPoint: "Anchor-2" 192 0 basechar 0
AnchorPoint: "Anchor-0" 193 731.008 basechar 0
LayerCount: 2
Fore
SplineSet
60 0 m 1
 60 731 l 5
 316 731 l 1
 316 0 l 1
 60 0 l 1
EndSplineSet
Validated: 1
EndChar

StartChar: O
Encoding: 79 79 1
Width: 842
Flags: W
HStem: -10 225.033<345.327 496.673> 513.967 225.033<346.692 495.308>
VStem: 35 251.811<278.804 449.514> 555.189 251.811<278.804 449.514>
AnchorPoint: "Anchor-3" 471 0 basechar 0
AnchorPoint: "Anchor-2" 422 0 basechar 0
AnchorPoint: "Anchor-0" 420 731.008 basechar 0
LayerCount: 2
Fore
SplineSet
286.810546875 363.083007812 m 0
 286.810546875 272.387695312 337.9140625 215.033203125 421 215.033203125 c 0
 504.0859375 215.033203125 555.189453125 272.387695312 555.189453125 363.083007812 c 0
 555.189453125 453.185546875 504.0859375 513.966796875 421 513.966796875 c 0
 337.9140625 513.966796875 286.810546875 453.185546875 286.810546875 363.083007812 c 0
35 360 m 0
 35 579 182 739 421 739 c 0
 660 739 807 579 807 360 c 0
 807 141 660 -10 421 -10 c 0
 182 -10 35 141 35 360 c 0
EndSplineSet
Validated: 1
EndChar

StartChar: Q
Encoding: 81 81 2
Width: 842
Flags: W
HStem: -10 225.033<345.327 496.673> 513.967 225.033<346.692 495.308>
VStem: 35 251.811<278.804 449.514> 555.189 251.811<278.804 449.514>
AnchorPoint: "Anchor-2" 422 0 basechar 0
AnchorPoint: "Anchor-0" 420 731.008 basechar 0
LayerCount: 2
Back
SplineSet
672 -60 m 1
 352 311 l 1
 478 411 l 1
 798 40 l 1
 672 -60 l 1
286.810546875 363.083007812 m 0
 286.810546875 272.387695312 337.9140625 215.033203125 421 215.033203125 c 0
 504.0859375 215.033203125 555.189453125 272.387695312 555.189453125 363.083007812 c 0
 555.189453125 453.185546875 504.0859375 513.966796875 421 513.966796875 c 0
 337.9140625 513.966796875 286.810546875 453.185546875 286.810546875 363.083007812 c 0
35 360 m 0
 35 579 182 739 421 739 c 0
 660 739 807 579 807 360 c 0
 807 141 660 -10 421 -10 c 0
 182 -10 35 141 35 360 c 0
EndSplineSet
Fore
SplineSet
697 -105 m 25
 500 38 l 25
 717 132 l 25
 717 -105 l 25
 697 -105 l 25
EndSplineSet
Refer: 1 79 N 1 0 0 1 0 0 2
Validated: 5
EndChar

StartChar: H
Encoding: 72 72 3
Width: 806
Flags: W
HStem: 0 21G<60 316 490 746> 262 214<227 585> 711 20G<60 316 490 746>
VStem: 60 256<0 262 476 731> 227 89<262 476> 490 256<0 262 476 731> 490 95<262 476>
AnchorPoint: "Anchor-2" 403 0 basechar 0
AnchorPoint: "Anchor-0" 404 731.008 basechar 0
LayerCount: 2
Fore
SplineSet
227 476 m 5xea
 585 476 l 5
 585 262 l 5
 227 262 l 5
 227 476 l 5xea
490 0 m 1xe4
 490 731 l 1
 746 731 l 1
 746 0 l 1
 490 0 l 1xe4
60 0 m 1xf0
 60 731 l 1
 316 731 l 1
 316 0 l 1
 60 0 l 1xf0
EndSplineSet
Validated: 5
EndChar

StartChar: C
Encoding: 67 67 4
Width: 808
Flags: W
HStem: -10 225.033<345.299 499.383> 513.967 225.033<346.664 497.031>
VStem: 35 251.755<278.804 449.514>
AnchorPoint: "Anchor-2" 422 0 basechar 0
AnchorPoint: "Anchor-0" 420 731.008 basechar 0
LayerCount: 2
Fore
SplineSet
35 360 m 4
 35 579 182 739 421 739 c 4
 714.523284683 739 783.926886337 501.7030546 783.926886337 501.7030546 c 5
 549.987304688 409.009765625 l 5
 549.987304688 409.009765625 536.720703125 513.966796875 420.9453125 513.966796875 c 4
 337.858398438 513.966796875 286.754882812 453.185546875 286.754882812 363.083007812 c 4
 286.754882812 272.387695312 337.858398438 215.033203125 420.9453125 215.033203125 c 4
 532.245117188 215.033203125 557.4453125 315.674804688 557.4453125 315.674804688 c 5
 777.705078125 248.907226562 l 5
 777.705078125 248.907226562 724.253247368 -10 421 -10 c 4
 182 -10 35 141 35 360 c 4
EndSplineSet
Validated: 1
EndChar

StartChar: X
Encoding: 88 88 5
Width: 842
Flags: W
HStem: 0 21G<2 317.922 524.078 840> 711.008 20G<32 324.814 517.186 810>
AnchorPoint: "Anchor-0" 422 731.008 basechar 0
AnchorPoint: "Anchor-2" 419 0 basechar 0
LayerCount: 2
Fore
SplineSet
308 0 m 1
 2 0 l 1
 274 377 l 1
 32 731.0078125 l 1
 314 731.0078125 l 1
 500 387 l 1
 308 0 l 1
534 0 m 1
 342 387 l 1
 528 731.0078125 l 1
 810 731.0078125 l 1
 568 377 l 1
 840 0 l 1
 534 0 l 1
EndSplineSet
Validated: 5
EndChar

StartChar: G
Encoding: 71 71 6
Width: 846
Flags: W
HStem: -10 225.033<348.603 498.971> 513.967 225.033<346.664 497.706>
VStem: 35 251.755<278.804 449.514>
AnchorPoint: "Anchor-2" 422 0 basechar 0
AnchorPoint: "Anchor-0" 420 731.008 basechar 0
LayerCount: 2
Back
SplineSet
35 360 m 4
 35 579 182 739 421 739 c 4
 684.523284683 739 763.926757812 571.703125 763.926757812 571.703125 c 5
 539.987304688 449.009765625 l 5
 539.987304688 449.009765625 516.720703125 513.966796875 420.9453125 513.966796875 c 4
 337.858398438 513.966796875 286.754882812 453.185546875 286.754882812 363.083007812 c 4
 286.754882812 272.387695312 337.858398438 215.033203125 420.9453125 215.033203125 c 4
 512.245117188 215.033203125 526.4453125 277.674804688 526.4453125 277.674804688 c 5
 385 278 l 5
 385 422 l 5
 814 422 l 5
 814 422 824.253247368 -10 421 -10 c 4
 182 -10 35 141 35 360 c 4
EndSplineSet
Fore
SplineSet
786 328 m 5
 786 -19 l 5
 766 -19 l 5
 577 108 l 5
 577 328 l 5
 786 328 l 5
35 360 m 0
 35 579 182 739 421 739 c 0
 714.523284683 739 783.926886337 501.7030546 783.926886337 501.7030546 c 1
 556.987304688 409.009765625 l 1
 556.987304688 409.009765625 536.720703125 513.966796875 420.9453125 513.966796875 c 0
 337.858398438 513.966796875 286.754882812 453.185546875 286.754882812 363.083007812 c 0
 286.754882812 272.387695312 337.858398438 215.033203125 420.9453125 215.033203125 c 0
 542.745117188 215.033203125 558 328 558 328 c 1
 776 328 l 1
 776 328 704.252929688 -10 391 -10 c 0
 182 -10 35 141 35 360 c 0
EndSplineSet
Validated: 5
Substitution2: "'ss02' Style Set 2 lookup 2-1" G.ss02
EndChar

StartChar: F
Encoding: 70 70 7
Width: 654
Flags: W
HStem: 0 21G<60 316> 213 198<164 588> 533 198<316 614>
VStem: 60 256<0 213 411 533> 164 152<213 411>
AnchorPoint: "Anchor-2" 342 0 basechar 0
AnchorPoint: "Anchor-0" 337 731.008 basechar 0
LayerCount: 2
Fore
SplineSet
164 213 m 5xe8
 164 411 l 5
 588 411 l 5
 588 213 l 5
 164 213 l 5xe8
316 533 m 1xf0
 316 0 l 1
 60 0 l 1
 60 731 l 1
 614 731 l 1
 614 533 l 1
 316 533 l 1xf0
EndSplineSet
Validated: 5
EndChar

StartChar: L
Encoding: 76 76 8
Width: 654
Flags: W
HStem: 0 198<316 614> 711 20G<60 316>
VStem: 60 256<198 731>
AnchorPoint: "Anchor-2" 342 0 basechar 0
AnchorPoint: "Anchor-0" 193 731.008 basechar 0
LayerCount: 2
Fore
SplineSet
316 198 m 1
 614 198 l 1
 614 0 l 1
 60 0 l 1
 60 731 l 1
 316 731 l 1
 316 198 l 1
EndSplineSet
Validated: 1
EndChar

StartChar: E
Encoding: 69 69 9
Width: 654
Flags: W
HStem: 0 171<316 614> 270 186<164 608> 551 180<316 614>
VStem: 60 554<0 171 270 456 551 731> 164 152<270 456>
AnchorPoint: "Anchor-3" 521 0 basechar 0
AnchorPoint: "Anchor-2" 342 0 basechar 0
AnchorPoint: "Anchor-0" 337 731.008 basechar 0
LayerCount: 2
Fore
SplineSet
164 270 m 1xe8
 164 456 l 1
 608 456 l 1
 608 270 l 1
 164 270 l 1xe8
316 551 m 5
 316 171 l 1xe8
 614 171 l 1
 614 0 l 1
 60 0 l 1
 60 731 l 5
 614 731 l 5
 614 551 l 5xf0
 316 551 l 5
EndSplineSet
Validated: 5
EndChar

StartChar: D
Encoding: 68 68 10
Width: 812
Flags: W
HStem: 0 201<316 449.814> 521 210<316 459.326>
VStem: 60 256<201 521> 513.8 263.2<261.101 460.025>
AnchorPoint: "Anchor-0" 407 731.008 basechar 0
AnchorPoint: "Anchor-2" 412 0 basechar 0
LayerCount: 2
Fore
SplineSet
404 0 m 2
 60 0 l 1
 60 731 l 1
 404 731 l 6
 658.841310399 730.806210928 777 579 777 360 c 0
 777 141 656.588252374 0 404 0 c 2
385 201 m 2
 468.546875 201 513.799804688 256.774414062 513.799804688 363.150390625 c 0
 513.799804688 468.962890625 467.21875 521 385 521 c 2
 316 521 l 1
 316 201 l 1
 385 201 l 2
EndSplineSet
Validated: 1
EndChar

StartChar: N
Encoding: 78 78 11
Width: 803
Flags: W
HStem: 0 21G<60 296> 731 0G<60 102.77 507 743>
VStem: 60 236<0 286> 507 236<429 731>
AnchorPoint: "Anchor-2" 402 0 basechar 0
AnchorPoint: "Anchor-0" 407 731.008 basechar 0
LayerCount: 2
Fore
SplineSet
60 0 m 5
 60 751 l 5
 76 751 l 5
 507 429 l 5
 507 731 l 5
 743 731 l 5
 743 -20 l 5
 727 -20 l 5
 296 286 l 5
 296 0 l 5
 60 0 l 5
EndSplineSet
Validated: 1
EndChar

StartChar: M
Encoding: 77 77 12
Width: 864
Flags: W
HStem: 0 21G<35 253.625 569.375 829> 731 20G<64.2011 102.863 761.261 799.799>
VStem: 35 218<0 175.233> 570 259<0 175.233>
AnchorPoint: "Anchor-0" 432 731.008 basechar 0
AnchorPoint: "Anchor-2" 411 0 basechar 0
LayerCount: 2
Back
SplineSet
43 0 m 5
 43 751 l 5
 59 751 l 5
 428 429 l 5
 785 751 l 5
 801 751 l 5
 801 0 l 5
 562 0 l 5
 562 256 l 5
 418 134 l 5
 392 134 l 5
 256 256 l 5
 256 0 l 5
 43 0 l 5
EndSplineSet
Fore
SplineSet
35 0 m 5
 65 751 l 5
 81 751 l 5
 433 429 l 5
 783 751 l 5
 799 751 l 5
 829 0 l 5
 570 0 l 5
 562 256 l 5
 423 134 l 5
 397 134 l 5
 261 256 l 5
 253 0 l 5
 35 0 l 5
EndSplineSet
Validated: 1
Substitution2: "'ss03' Style Set 3 lookup 3-1" M.ss03
EndChar

StartChar: P
Encoding: 80 80 13
Width: 762
Flags: W
HStem: 0 21G<60 316> 200 181<285 434.458> 531 200<316 434.723>
VStem: 60 256<0 200 381 531> 285 31<200 381> 463.8 263.2<403.257 507.045>
AnchorPoint: "Anchor-0" 397 731.008 basechar 0
AnchorPoint: "Anchor-2" 342 0 basechar 0
LayerCount: 2
Fore
SplineSet
316 531 m 1xf4
 316 0 l 1
 60 0 l 1
 60 731 l 1xf4
 404 731 l 2
 628.344690259 731 727 619.970703125 727 460 c 0
 727 301.833007812 626.272843336 200 404 200 c 2
 285 200 l 1
 285 381 l 1xec
 370 381 l 2
 434 381 463.799804688 410.817382812 463.799804688 458.150390625 c 0
 463.799804688 503.6328125 432.959960938 531 370 531 c 2
 316 531 l 1xf4
EndSplineSet
Validated: 5
EndChar

StartChar: R
Encoding: 82 82 15
Width: 820
Flags: W
HStem: 0 21G<60 316 500.105 818> 230 181<285 424> 561 170<316 424.723>
VStem: 60 256<0 230 411 561> 285 31<230 411> 453.8 263.2<432.94 538.227>
AnchorPoint: "Anchor-2" 392 0 basechar 0
AnchorPoint: "Anchor-0" 377 731.008 basechar 0
LayerCount: 2
Back
SplineSet
316 561 m 5
 316 0 l 5
 60 0 l 5
 60 731 l 5
 394 731 l 6
 618.344726562 731 717 640.970703125 717 513 c 4
 717 413.181207024 657.387524022 338.111111536 575.254292267 290.459973473 c 5
 575.254292267 290.459973473 726.157226562 235.807617188 798 0 c 5
 512 0 l 5
 464 174 407 252 329 252 c 6
 285 252 l 5
 285 411 l 5
 360 411 l 6
 424 411 453.799804688 439.817382812 453.799804688 487.150390625 c 4
 453.799804688 532.6328125 422.959960938 561 360 561 c 6
 316 561 l 5
EndSplineSet
Fore
SplineSet
512 0 m 5xe4
 308 343 l 5
 544 363 l 5
 818 0 l 5
 512 0 l 5xe4
316 561 m 5xf4
 316 0 l 5
 60 0 l 5
 60 731 l 5xf4
 394 731 l 6
 618.344726562 731 717 640.970703125 717 513 c 4
 717 329.833007812 516.272460938 230 344 230 c 6
 285 230 l 5
 285 411 l 5xec
 360 411 l 6
 424 411 453.799804688 439.817382812 453.799804688 487.150390625 c 4
 453.799804688 532.6328125 422.959960938 561 360 561 c 6
 316 561 l 5xf4
EndSplineSet
Validated: 5
EndChar

StartChar: two
Encoding: 50 50 16
Width: 663
Flags: W
HStem: 0 201<495.133 623> 554 184.992<244.162 356.027>
VStem: 377 244<442.308 535.198>
LayerCount: 2
Fore
SplineSet
312 738.9921875 m 4
 539 738.9921875 621 645 621 529 c 0
 621 353 349 186 349 186 c 25
 623 201 l 17
 623 0 l 25
 2 0 l 1
 2 23 l 1
 2 23 377 339 377 481 c 0
 377 524 352 554 300 554 c 0
 201 554 200 424 200 424 c 25
 32 542 l 25
 32 542 55 738.9921875 312 738.9921875 c 4
EndSplineSet
Validated: 1
Substitution2: "'tnum' Tabular Numbers lookup 8-1" two.tnum
Substitution2: "'dnom' Denominators lookup 0 subtable" two.dnom
Substitution2: "'numr' Numerators lookup 0 subtable" two.numr
Substitution2: "'sinf' Scientific Inferiors lookup 0 subtable" two.inferior
Substitution2: "'sups' Superscript lookup 0 subtable" two.superior
EndChar

StartChar: S
Encoding: 83 83 17
Width: 650
Flags: W
HStem: -10 164<227.065 364.534> 585 153.992<271.118 379.043>
VStem: 33 227<422.406 575.676> 378 237<168.787 327.873>
AnchorPoint: "Anchor-2" 292 0 basechar 0
AnchorPoint: "Anchor-0" 324 731.008 basechar 0
LayerCount: 2
Fore
SplineSet
323 738.9921875 m 0
 559 738.9921875 589 579 589 579 c 1
 420 506 l 17
 420 506 402 585 319 585 c 0
 284 585 260 568 260 540 c 0
 260 492.88671875 309.943359375 480.745117188 384.859375 472.697265625 c 0
 508.223632812 459.444335938 615 399.74609375 615 256 c 0
 615 108 526 -10 290 -10 c 0
 54 -10 15 175 15 175 c 25
 192 235 l 1
 192 235 199 154 292 154 c 0
 345 154 378 170 378 206 c 0
 378 250.375976562 333.603275338 261.75384404 250.600585938 273.846679688 c 0
 126 292 33 352.811523438 33 492 c 0
 33 610 107 738.9921875 323 738.9921875 c 0
EndSplineSet
Validated: 1
EndChar

StartChar: K
Encoding: 75 75 18
Width: 818
Flags: W
HStem: 0 21G<60 316 496.46 816> 711 20.0078G<60 316 489.117 786>
VStem: 60 256<0 731>
AnchorPoint: "Anchor-2" 392 0 basechar 0
AnchorPoint: "Anchor-0" 407 731.008 basechar 0
LayerCount: 2
Fore
SplineSet
60 0 m 5
 60 731 l 5
 316 731 l 5
 316 0 l 5
 60 0 l 5
510 0 m 5
 248 387 l 5
 504 731.0078125 l 5
 786 731.0078125 l 5
 524 407 l 5
 816 0 l 5
 510 0 l 5
EndSplineSet
Validated: 5
EndChar

StartChar: J
Encoding: 74 74 19
Width: 455
Flags: W
HStem: -10 203<24.8139 234.5> 711 20G<139 395>
VStem: 139 256<207.332 731>
AnchorPoint: "Anchor-2" 192 0 basechar 0
AnchorPoint: "Anchor-0" 273 731.008 basechar 0
LayerCount: 2
Fore
SplineSet
139 258 m 6
 139 731 l 5
 395 731 l 5
 395 232 l 6
 395 51 314 -10 155 -10 c 4
 56 -10 10 19 10 19 c 5
 16 201 l 5
 16 201 39.8642578125 193 72 193 c 4
 114 193 139 210 139 258 c 6
EndSplineSet
Validated: 1
EndChar

StartChar: V
Encoding: 86 86 20
Width: 824
Flags: W
HStem: 711 20G<2 296.146 528.296 822.441>
AnchorPoint: "Anchor-2" 412 0 basechar 0
AnchorPoint: "Anchor-0" 420 731.008 basechar 0
LayerCount: 2
Fore
SplineSet
402 -20 m 5
 2 731 l 1
 288 731 l 1
 412.220703125 426 l 1
 536.44140625 731 l 1
 822.44140625 731 l 1
 422.44140625 -20 l 5
 402 -20 l 5
EndSplineSet
Validated: 1
EndChar

StartChar: U
Encoding: 85 85 21
Width: 786
Flags: W
HStem: -10 202<341.145 458.607> 711 20G<60 316 490 726>
VStem: 60 256<217.789 731> 490 236<226.663 731>
AnchorPoint: "Anchor-3" 451 0 basechar 0
AnchorPoint: "Anchor-2" 394 0 basechar 0
AnchorPoint: "Anchor-0" 407 731.008 basechar 0
LayerCount: 2
Fore
SplineSet
60 290 m 2
 60 731 l 1
 316 731 l 1
 316 295 l 2
 316 236 335 192 395 192 c 0
 460 192 490 230 490 295 c 2
 490 731 l 1
 726 731 l 1
 726 290 l 2
 726 85 592 -10 394 -10 c 0
 167 -9.99821472168 60 110 60 290 c 2
EndSplineSet
Validated: 1
EndChar

StartChar: W
Encoding: 87 87 22
Width: 1008
Flags: W
HStem: 711 20G<2 294.356 487.724 541.159 734.527 1006.88>
AnchorPoint: "Anchor-2" 503 0 basechar 0
AnchorPoint: "Anchor-0" 515 731.008 basechar 0
LayerCount: 2
Fore
SplineSet
312 -20 m 1
 2 731 l 1
 288 731 l 1
 372.220703125 466 l 5
 496.44140625 751 l 1
 532.44140625 751 l 1
 656.662109375 466 l 5
 740.8828125 731 l 1
 1006.8828125 731 l 1
 676.8828125 -20 l 1
 656.44140625 -20 l 1
 500.44140625 301 l 1
 332.44140625 -20 l 1
 312 -20 l 1
EndSplineSet
EndChar

StartChar: T
Encoding: 84 84 23
Width: 712
Flags: W
HStem: 0 21G<228 484> 528 203<40 171.6 540.4 672>
VStem: 228 256<0 538>
AnchorPoint: "Anchor-0" 360 731.008 basechar 0
AnchorPoint: "Anchor-2" 358 0 basechar 0
LayerCount: 2
Fore
SplineSet
228 0 m 5
 228 538 l 5
 40 528 l 5
 40 731 l 5
 672 731 l 5
 672 528 l 5
 484 538 l 5
 484 0 l 5
 228 0 l 5
EndSplineSet
Validated: 1
EndChar

StartChar: B
Encoding: 66 66 24
Width: 766
Flags: W
HStem: 0 150<316 458.486> 280 171<285 441.284> 561 170<316 434.659>
VStem: 285 31<280 451> 452.8 264.2<465.392 546.387> 476.8 254.2<170.093 260.62>
AnchorPoint: "Anchor-0" 397 731.008 basechar 0
AnchorPoint: "Anchor-2" 402 0 basechar 0
LayerCount: 2
Fore
SplineSet
316 561 m 5xf8
 316 150 l 5
 381 150 l 6
 443.959960938 150 476.799804688 172.3671875 476.799804688 211.849609375 c 4xf4
 476.799804688 259.182617188 445 280 381 280 c 6
 285 280 l 5
 285 451 l 5
 367 451 l 6
 431 451 452.799804688 469.817382812 452.799804688 507.150390625 c 4
 452.799804688 536.6328125 429.959960938 561 367 561 c 6
 316 561 l 5xf8
60 0 m 5
 60 731 l 5
 404 731 l 6
 628.344690259 731 717 651.970703125 717 535 c 4xf8
 717 381 575.506835938 367.630859375 575.506835938 367.630859375 c 5
 575.506835938 367.630859375 731 346 731 200 c 4
 731 77.029296875 642.344726562 0 418 0 c 6
 60 0 l 5
EndSplineSet
Validated: 5
EndChar

StartChar: Y
Encoding: 89 89 25
Width: 782
Flags: W
HStem: 0 21G<263 519> 243 148<274 508> 711.008 20G<2 292.171 489.829 780>
VStem: 263 256<0 391>
AnchorPoint: "Anchor-2" 392 0 basechar 0
AnchorPoint: "Anchor-0" 398 731.008 basechar 0
LayerCount: 2
Fore
SplineSet
274 243 m 1
 2 731.0078125 l 1
 284 731.0078125 l 1
 391 469.111328125 l 1
 498 731.0078125 l 1
 780 731.0078125 l 1
 508 243 l 1
 274 243 l 1
263 0 m 1
 263 391 l 1
 519 391 l 1
 519 0 l 1
 263 0 l 1
EndSplineSet
Validated: 5
EndChar

StartChar: A
Encoding: 65 65 26
Width: 874
Flags: W
HStem: 0 21G<-3 291.225 583.216 877.441> 91 150<228 642> 731 20G<415.549 458.893>
AnchorPoint: "Anchor-3" 661 0 basechar 0
AnchorPoint: "Anchor-2" 442 0 basechar 0
AnchorPoint: "Anchor-0" 440 731.008 basechar 0
LayerCount: 2
Fore
SplineSet
228 241 m 1
 642 241 l 1
 642 91 l 1
 228 91 l 1
 228 241 l 1
447.44140625 751 m 1
 877.44140625 0 l 1
 591.44140625 0 l 1
 437.220703125 375 l 5
 283 0 l 1
 -3 0 l 1
 427 751 l 1
 447.44140625 751 l 1
EndSplineSet
Validated: 5
EndChar

StartChar: Z
Encoding: 90 90 27
Width: 608
Flags: W
HStem: 0 203<417.4 584> 0 193<346 512.6> 528 203<34 193.6> 538 193<102.4 262>
AnchorPoint: "Anchor-2" 312 0 basechar 0
AnchorPoint: "Anchor-0" 311 731.008 basechar 0
LayerCount: 2
Fore
SplineSet
262 538 m 5x50
 34 528 l 5
 34 731 l 5x20
 606 731 l 5
 606 708 l 5
 346 193 l 5x50
 584 203 l 1
 584 0 l 1x80
 2 0 l 5
 2 23 l 5
 262 538 l 5x50
EndSplineSet
Validated: 1
EndChar

StartChar: one
Encoding: 49 49 28
Width: 376
Flags: W
HStem: 0 21G<60 316> 721 20G<259.111 316>
VStem: 60 256<0 651>
LayerCount: 2
Back
SplineSet
60 458 m 5
 -61 413 l 5
 -71 613 l 5
 295.55859375 741 l 5
 316 741 l 5
 316 0 l 5
 60 0 l 5
 60 458 l 5
EndSplineSet
Fore
SplineSet
60 0 m 5
 60 651 l 5
 316 741 l 5
 316 0 l 5
 60 0 l 5
EndSplineSet
Validated: 1
Substitution2: "'tnum' Tabular Numbers lookup 8-1" one.tnum
Substitution2: "'dnom' Denominators lookup 0 subtable" one.dnom
Substitution2: "'numr' Numerators lookup 0 subtable" one.numr
Substitution2: "'sinf' Scientific Inferiors lookup 0 subtable" one.inferior
Substitution2: "'sups' Superscript lookup 0 subtable" one.superior
EndChar

StartChar: three
Encoding: 51 51 29
Width: 688
Flags: W
HStem: -10 154.992<256.986 391.906> 584 154.992<272.055 385.511>
VStem: 20 211.838<169.726 237.07> 402.489 225<458.238 565.071> 414.489 239<167.832 290.751>
LayerCount: 2
Fore
SplineSet
334.489257812 738.9921875 m 4xf0
 521.489257812 738.9921875 627.489257812 658 627.489257812 535 c 4xf0
 627.489257812 418.021484375 507.701171875 381.836914062 507.701171875 381.836914062 c 5
 507.701171875 381.836914062 653.489257812 351.028320312 653.489257812 208.9921875 c 4
 653.489257812 82.9921875 541.489257812 -10 334.489257812 -10 c 4
 84.2177734375 -10 20 84 20 176 c 4
 20 192.23828125 24.4892578125 205.9921875 24.4892578125 205.9921875 c 5
 234.489257812 254.9921875 l 5
 234.489257812 254.9921875 231.837890625 242 231.837890625 219.158203125 c 4
 231.837890625 181 259.489257812 144.9921875 323.489257812 144.9921875 c 4
 385.489257812 144.9921875 414.489257812 173.9921875 414.489257812 221.9921875 c 4xe8
 414.489257812 343.9921875 270.489257812 348.9921875 270.489257812 348.9921875 c 5
 270.489257812 392 l 5
 270.489257812 392 402.489257812 399 402.489257812 511 c 4
 402.489257812 554 380.489257812 584 328.489257812 584 c 4
 239.489257812 584 237.489257812 484 237.489257812 484 c 5
 34.4892578125 542 l 5
 34.4892578125 542 57.4892578125 738.9921875 334.489257812 738.9921875 c 4xf0
EndSplineSet
Validated: 1
Substitution2: "'tnum' Tabular Numbers lookup 8-1" three.tnum
Substitution2: "'dnom' Denominators lookup 0 subtable" three.dnom
Substitution2: "'numr' Numerators lookup 0 subtable" three.numr
Substitution2: "'sinf' Scientific Inferiors lookup 0 subtable" three.inferior
Substitution2: "'sups' Superscript lookup 0 subtable" three.superior
EndChar

StartChar: four
Encoding: 52 52 30
Width: 796
Flags: W
HStem: 0 21G<425 651> 120 161<273.817 756> 711 20G<495.208 651>
VStem: 425 226<0 429>
LayerCount: 2
Fore
SplineSet
425 0 m 5
 425 429 l 5
 273.817382812 281 l 1
 756 281 l 1
 756 120 l 1
 40 120 l 1
 40 251 l 1
 515 731 l 1
 651 731 l 1
 651 0 l 1
 425 0 l 5
EndSplineSet
Validated: 5
Substitution2: "'tnum' Tabular Numbers lookup 8-1" four.tnum
Substitution2: "'dnom' Denominators lookup 0 subtable" four.dnom
Substitution2: "'numr' Numerators lookup 0 subtable" four.numr
Substitution2: "'sinf' Scientific Inferiors lookup 0 subtable" four.inferior
Substitution2: "'sups' Superscript lookup 0 subtable" four.superior
EndChar

StartChar: five
Encoding: 53 53 31
Width: 699
Flags: W
HStem: -10 186.992<267.755 393.227> 350 146<266.897 476.5> 553 178.008<277 589>
VStem: 419 245<201.422 314.464>
LayerCount: 2
Fore
SplineSet
68 309 m 1
 112 731.0078125 l 25
 620 731.0078125 l 29
 589 553 l 5
 277 553 l 25
 266 482 l 17
 266 482 301 496 383 496 c 0
 570 496 664 405.9921875 664 254 c 0
 664 86.9921875 552 -10 345 -10 c 0
 48 -10 25 196.9921875 25 196.9921875 c 1
 228 267.9921875 l 1
 228 267.9921875 242 176.9921875 329 176.9921875 c 0
 388 176.9921875 419 210.9921875 419 256.9921875 c 0
 419 316.928710938 375.143554688 350 280 350 c 0
 193 350 105 299 105 299 c 9
 68 309 l 1
EndSplineSet
Validated: 1
Substitution2: "'tnum' Tabular Numbers lookup 8-1" five.tnum
Substitution2: "'dnom' Denominators lookup 0 subtable" five.dnom
Substitution2: "'numr' Numerators lookup 0 subtable" five.numr
Substitution2: "'sinf' Scientific Inferiors lookup 0 subtable" five.inferior
Substitution2: "'sups' Superscript lookup 0 subtable" five.superior
EndChar

StartChar: six
Encoding: 54 54 32
Width: 718
Flags: W
HStem: -9.99805 178.998<304.884 416.669> 321 149.934<305.192 508> 566 172.992<320.052 445.044>
VStem: 35 250<193.927 426.245> 437 246<188.272 301.477>
LayerCount: 2
Fore
SplineSet
285 245 m 4
 285 195 318 169 361 169 c 4
 404 169 437 195 437 245 c 4
 437 295 404 321 361 321 c 4
 318 321 285 295 285 245 c 4
401 738.9921875 m 4
 594 738.9921875 656 605 656 605 c 29
 472 515 l 29
 472 515 446 566 379 566 c 4
 270 566 270 429 270 429 c 29
 270 429 315 470.93359375 423 470.93359375 c 4
 593 470.93359375 683 369 683 245 c 4
 683 107 588 -9.998046875 366 -9.998046875 c 4
 139 -9.998046875 35 123 35 348 c 4
 35 619 188 738.9921875 401 738.9921875 c 4
EndSplineSet
Validated: 1
Substitution2: "'tnum' Tabular Numbers lookup 8-1" six.tnum
Substitution2: "'dnom' Denominators lookup 0 subtable" six.dnom
Substitution2: "'numr' Numerators lookup 0 subtable" six.numr
Substitution2: "'sinf' Scientific Inferiors lookup 0 subtable" six.inferior
Substitution2: "'sups' Superscript lookup 0 subtable" six.superior
EndChar

StartChar: seven
Encoding: 55 55 33
Width: 615
Flags: W
HStem: 0 21G<96 392.412> 543 188.008<70 376>
LayerCount: 2
Fore
SplineSet
29 543 m 5
 70 731.0078125 l 29
 613 731.0078125 l 29
 613 708 l 29
 386 0 l 29
 96 0 l 29
 376 548 l 29
 29 543 l 5
EndSplineSet
Validated: 1
Substitution2: "'tnum' Tabular Numbers lookup 8-1" seven.tnum
Substitution2: "'dnom' Denominators lookup 0 subtable" seven.dnom
Substitution2: "'numr' Numerators lookup 0 subtable" seven.numr
Substitution2: "'sinf' Scientific Inferiors lookup 0 subtable" seven.inferior
Substitution2: "'sups' Superscript lookup 0 subtable" seven.superior
EndChar

StartChar: eight
Encoding: 56 56 34
Width: 722
Flags: W
HStem: -10 161.95<305.52 416.48> 307.05 141<322.3 399.7> 354 58<171.533 550.467> 574.95 164.05<309.063 412.937>
VStem: 35 243.2<175.663 282.415> 55 238.5<463.564 558.831> 428.5 238.5<463.564 558.831> 443.8 243.2<175.663 282.415>
LayerCount: 2
Fore
SplineSet
278.200195312 230.049804688 m 4xd9
 278.200195312 182.75 313.700195312 151.950195312 361 151.950195312 c 4
 408.299804688 151.950195312 443.799804688 182.75 443.799804688 230.049804688 c 4
 443.799804688 277.349609375 408.299804688 307.049804688 361 307.049804688 c 4
 313.700195312 307.049804688 278.200195312 277.349609375 278.200195312 230.049804688 c 4xd9
35 209 m 4
 35 339.215820312 131.533203125 412 361 412 c 4xb9
 590.466796875 412 687 339.215820312 687 209 c 4
 687 59.6123046875 550.466796875 -10 361 -10 c 4
 171.533203125 -10 35 59.6123046875 35 209 c 4
293.5 511.049804688 m 4xd6
 293.5 472.349609375 322.299804688 448.049804688 361 448.049804688 c 4
 399.700195312 448.049804688 428.5 472.349609375 428.5 511.049804688 c 4
 428.5 549.75 399.700195312 574.950195312 361 574.950195312 c 4
 322.299804688 574.950195312 293.5 549.75 293.5 511.049804688 c 4xd6
55 535 m 4
 55 661.387695312 171.533203125 739 361 739 c 4
 550.466796875 739 667 661.387695312 667 535 c 4
 667 401.784179688 550.466796875 354 361 354 c 4xb6
 171.533203125 354 55 401.784179688 55 535 c 4
EndSplineSet
Validated: 5
Substitution2: "'tnum' Tabular Numbers lookup 8-1" eight.tnum
Substitution2: "'dnom' Denominators lookup 0 subtable" eight.dnom
Substitution2: "'numr' Numerators lookup 0 subtable" eight.numr
Substitution2: "'sinf' Scientific Inferiors lookup 0 subtable" eight.inferior
Substitution2: "'sups' Superscript lookup 0 subtable" eight.superior
EndChar

StartChar: nine
Encoding: 57 57 35
Width: 718
Flags: W
HStem: -9.99805 169.992<268.987 393.223> 261.061 156.934<210 411.058> 569.994 168.998<300.331 407.288>
VStem: 35 244<437.287 550.453> 431 252<302.749 535.181>
LayerCount: 2
Fore
SplineSet
431 493.994140625 m 0
 431 543.994140625 398 569.994140625 355 569.994140625 c 0
 312 569.994140625 279 543.994140625 279 493.994140625 c 0
 279 443.994140625 312 417.994140625 355 417.994140625 c 0
 398 417.994140625 431 443.994140625 431 493.994140625 c 0
317 -9.998046875 m 0
 104 -9.998046875 35 146.994140625 35 146.994140625 c 25
 239 221.994140625 l 25
 239 221.994140625 259 159.994140625 330 159.994140625 c 0
 443 159.994140625 445 302.994140625 445 302.994140625 c 29
 445 302.994140625 403 261.060546875 295 261.060546875 c 0
 125 261.060546875 35 369.994140625 35 493.994140625 c 0
 35 631.994140625 130 738.9921875 352 738.9921875 c 0
 579 738.9921875 683 605.994140625 683 380.994140625 c 0
 683 109.994140625 530 -9.998046875 317 -9.998046875 c 0
EndSplineSet
Validated: 1
Substitution2: "'tnum' Tabular Numbers lookup 8-1" nine.tnum
Substitution2: "'dnom' Denominators lookup 0 subtable" nine.dnom
Substitution2: "'numr' Numerators lookup 0 subtable" nine.numr
Substitution2: "'sinf' Scientific Inferiors lookup 0 subtable" nine.inferior
Substitution2: "'sups' Superscript lookup 0 subtable" nine.superior
EndChar

StartChar: zero
Encoding: 48 48 36
Width: 762
Flags: W
HStem: -10 205.033<327.408 434.592> 533.967 205.033<328.385 433.615>
VStem: 35 251.811<242.492 486.048> 475.189 251.811<242.492 486.048>
LayerCount: 2
Fore
SplineSet
286.810546875 363.083007812 m 0
 286.810546875 260.135695022 312.466358746 195.033203125 381 195.033203125 c 0
 449.533641254 195.033203125 475.189453125 260.135695022 475.189453125 363.083007812 c 0
 475.189453125 465.128849681 449.533641254 533.966796875 381 533.966796875 c 0
 312.466358746 533.966796875 286.810546875 465.128849681 286.810546875 363.083007812 c 0
35 360 m 0
 35 579 155.06010929 739 381 739 c 0
 606.93989071 739 727 579 727 360 c 0
 727 141 606.93989071 -10 381 -10 c 0
 155.06010929 -10 35 141 35 360 c 0
EndSplineSet
Substitution2: "'tnum' Tabular Numbers lookup 8-1" zero.tnum
Substitution2: "'dnom' Denominators lookup 0 subtable" zero.dnom
Substitution2: "'numr' Numerators lookup 0 subtable" zero.numr
Substitution2: "'sinf' Scientific Inferiors lookup 0 subtable" zero.inferior
Substitution2: "'sups' Superscript lookup 0 subtable" zero.superior
EndChar

StartChar: ampersand
Encoding: 38 38 37
Width: 778
Flags: W
HStem: -10 158<264.532 389.949> 0 21G<487.834 776> 582 156.992<350 526.372>
VStem: 40 213<159.675 269.955> 193 234<471.034 573.243>
LayerCount: 2
Fore
SplineSet
642 650 m 9x68
 553 534 l 25
 553 534 517 582 476 582 c 0
 449 582 427 565 427 532 c 0
 427 497 440.758314766 469.16806078 481.1015625 412.708007812 c 2
 776 0 l 1
 501 0 l 17
 291 319 l 18
 221.915039062 423.944335938 193 480.93359375 193 563 c 0
 193 655.06640625 276 738.9921875 424 738.9921875 c 0
 572 738.9921875 642 650 642 650 c 9x68
337 470 m 25
 388 345 l 25
 388 345 253 310 253 210 c 0
 253 170 272 148 322 148 c 0
 451 148 596 417 596 417 c 25
 737 355 l 17
 737 355 573 -10 272 -10 c 0
 122 -10 40 71 40 180 c 0xb0
 40 408 337 470 337 470 c 25
EndSplineSet
Validated: 5
EndChar

StartChar: dollar
Encoding: 36 36 38
Width: 720
Flags: W
HStem: -10 144<268.567 454.249> 588 150.992<271.45 435.13>
VStem: 51 200<495.54 568.557> 324 78<-77 783> 478 207<156.451 314.553>
LayerCount: 2
Fore
SplineSet
324 -77 m 1
 324 783 l 5
 402 783 l 5
 402 -77 l 1
 324 -77 l 1
348 738.9921875 m 0
 595.616541353 738.9921875 659 579 659 579 c 1
 490 506 l 17
 490 506 472.87109375 588 343 588 c 0
 284.288085938 588 251 562.733398438 251 531 c 0
 251 487.907226562 303.943359375 480.05859375 378.859375 472.697265625 c 0
 539.74609375 459.444335938 685 395.74609375 685 232 c 0
 685 104 593.261538462 -10 350 -10 c 0
 82.5090909091 -10 25 145 25 145 c 25
 209 215 l 1
 209 215 243.2 134 352 134 c 0
 429.651162791 134 478 153.076923077 478 196 c 0
 478 246.916602687 398.492043557 258.857762319 313.755859375 266.026367188 c 0
 152.260742188 289.3515625 51 362.811523438 51 502 c 0
 51 620 137.206896552 738.9921875 348 738.9921875 c 0
EndSplineSet
Validated: 5
EndChar

StartChar: period
Encoding: 46 46 39
Width: 370
Flags: W
HStem: 0 250<60.6897 309.31>
VStem: 60 250<0.689667 249.31>
LayerCount: 2
Fore
SplineSet
88 0 m 30
 72 0 60 12 60 28 c 30
 60 222 l 30
 60 238 72 250 88 250 c 30
 282 250 l 30
 298 250 310 238 310 222 c 30
 310 28 l 30
 310 12 298 0 282 0 c 30
 88 0 l 30
EndSplineSet
Validated: 1
EndChar

StartChar: comma
Encoding: 44 44 40
Width: 350
Flags: W
VStem: 60 250<-120 -92.6897>
LayerCount: 2
Fore
SplineSet
310 222 m 5
 88 -120 l 5
 60 -120 l 5
 60 222 l 6
 60 238 72 250 88 250 c 6
 310 250 l 5
 310 222 l 5
EndSplineSet
Validated: 1
EndChar

StartChar: colon
Encoding: 58 58 41
Width: 370
Flags: W
HStem: 0 250<60.6897 309.31> 330 250<60.6897 309.31>
VStem: 60 250<0.689667 249.31 330.69 579.31>
LayerCount: 2
Fore
SplineSet
88 330 m 26
 72 330 60 342 60 358 c 26
 60 552 l 26
 60 568 72 580 88 580 c 26
 282 580 l 26
 298 580 310 568 310 552 c 26
 310 358 l 26
 310 342 298 330 282 330 c 26
 88 330 l 26
88 0 m 26
 72 0 60 12 60 28 c 26
 60 222 l 26
 60 238 72 250 88 250 c 26
 282 250 l 26
 298 250 310 238 310 222 c 26
 310 28 l 26
 310 12 298 0 282 0 c 26
 88 0 l 26
EndSplineSet
Validated: 1
Substitution2: "'case' Case-Sensitive Forms in Latin lookup 0-1" colon.case
EndChar

StartChar: semicolon
Encoding: 59 59 42
Width: 370
Flags: W
HStem: 330 250<60.6897 309.31>
VStem: 60 250<222 249.31 330.69 579.31>
LayerCount: 2
Fore
SplineSet
88 330 m 30
 72 330 60 342 60 358 c 30
 60 552 l 30
 60 568 72 580 88 580 c 30
 282 580 l 30
 298 580 310 568 310 552 c 30
 310 358 l 30
 310 342 298 330 282 330 c 30
 88 330 l 30
310 222 m 1
 88 -120 l 1
 60 -120 l 1
 60 222 l 2
 60 238 72 250 88 250 c 2
 310 250 l 1
 310 222 l 1
EndSplineSet
Validated: 1
Substitution2: "'case' Case-Sensitive Forms in Latin lookup 0-1" semicolon.case
EndChar

StartChar: exclam
Encoding: 33 33 43
Width: 374
Flags: W
HStem: 0 200<62.6897 311.31> 737 20G<60 314>
VStem: 60 254<1.21289 198.787 373 757>
LayerCount: 2
Fore
SplineSet
60 757 m 5
 314 757 l 5
 314 373 l 5
 254 243 l 5
 120 243 l 5
 60 373 l 5
 60 757 l 5
90 0 m 30
 74 0 62 12 62 28 c 30
 62 172 l 30
 62 188 74 200 90 200 c 30
 284 200 l 30
 300 200 312 188 312 172 c 30
 312 28 l 30
 312 12 300 0 284 0 c 30
 90 0 l 30
EndSplineSet
Validated: 1
EndChar

StartChar: question
Encoding: 63 63 44
Width: 627
Flags: W
HStem: 0 200<195.69 444.31> 551 216.002<233.409 317.816>
VStem: 195 250<0.689667 199.31> 326 266<467.563 613>
LayerCount: 2
Fore
SplineSet
223 0 m 6xe0
 207 0 195 12 195 28 c 6
 195 172 l 6
 195 188 207 200 223 200 c 6
 417 200 l 6
 433 200 445 188 445 172 c 6
 445 28 l 6
 445 12 433 0 417 0 c 6
 223 0 l 6xe0
304 767.001953125 m 0
 513 767.001953125 592 669 592 557 c 0
 592 400 424 354 424 260 c 2
 424 243 l 1
 212 243 l 1
 212 274 l 2
 212 394 326 441.010742188 326 510 c 0xd0
 326 533.989257812 311 551 277 551 c 0
 225 551 203 482 203 482 c 1
 15 581 l 1
 15 581 80 767.001953125 304 767.001953125 c 0
EndSplineSet
Validated: 1
EndChar

StartChar: quoteright
Encoding: 8217 8217 45
Width: 350
Flags: W
HStem: 719 20G<80 310>
VStem: 60 250<369 396.31>
LayerCount: 2
Fore
SplineSet
310 711 m 5
 88 369 l 5
 60 369 l 5
 60 711 l 6
 60 727 72 739 88 739 c 6
 310 739 l 5
 310 711 l 5
EndSplineSet
Validated: 1
EndChar

StartChar: quoteleft
Encoding: 8216 8216 46
Width: 350
Flags: W
HStem: 719 20G<40 270>
VStem: 40 250<711 738.31>
LayerCount: 2
Fore
SplineSet
40 711 m 5
 40 739 l 5
 262 739 l 6
 278 739 290 727 290 711 c 6
 290 369 l 5
 262 369 l 5
 40 711 l 5
EndSplineSet
Validated: 1
EndChar

StartChar: quotedblleft
Encoding: 8220 8220 47
Width: 650
Flags: W
HStem: 719 20G<40 270 340 570>
LayerCount: 2
Fore
SplineSet
340 711 m 5
 340 739 l 5
 562 739 l 6
 578 739 590 727 590 711 c 6
 590 369 l 5
 562 369 l 5
 340 711 l 5
40 711 m 1
 40 739 l 1
 262 739 l 2
 278 739 290 727 290 711 c 2
 290 369 l 1
 262 369 l 1
 40 711 l 1
EndSplineSet
Validated: 1
EndChar

StartChar: quotedblright
Encoding: 8221 8221 48
Width: 650
Flags: W
HStem: 719 20G<80 310 380 610>
LayerCount: 2
Fore
SplineSet
610 711 m 5
 388 369 l 5
 360 369 l 5
 360 711 l 6
 360 727 372 739 388 739 c 6
 610 739 l 5
 610 711 l 5
310 711 m 1
 88 369 l 1
 60 369 l 1
 60 711 l 2
 60 727 72 739 88 739 c 2
 310 739 l 1
 310 711 l 1
EndSplineSet
Validated: 1
EndChar

StartChar: quotesinglbase
Encoding: 8218 8218 49
Width: 350
Flags: W
VStem: 60 250<-120 -92.6897>
LayerCount: 2
Fore
SplineSet
310 222 m 5
 88 -120 l 5
 60 -120 l 5
 60 222 l 6
 60 238 72 250 88 250 c 6
 310 250 l 5
 310 222 l 5
EndSplineSet
Validated: 1
EndChar

StartChar: quotedblbase
Encoding: 8222 8222 50
Width: 650
Flags: W
LayerCount: 2
Fore
SplineSet
610 222 m 5
 388 -120 l 5
 360 -120 l 5
 360 222 l 6
 360 238 372 250 388 250 c 6
 610 250 l 5
 610 222 l 5
310 222 m 1
 88 -120 l 1
 60 -120 l 1
 60 222 l 2
 60 238 72 250 88 250 c 2
 310 250 l 1
 310 222 l 1
EndSplineSet
Validated: 1
EndChar

StartChar: hyphen
Encoding: 45 45 51
Width: 438
Flags: W
HStem: 202 214<40 398>
LayerCount: 2
Fore
SplineSet
40 416 m 5
 398 416 l 5
 398 202 l 5
 40 202 l 5
 40 416 l 5
EndSplineSet
Validated: 1
Substitution2: "'case' Case-Sensitive Forms in Latin lookup 0-1" hyphen.case
EndChar

StartChar: .notdef
Encoding: 65536 -1 52
Width: 806
Flags: W
HStem: 0 214<316 490> 517 214<316 490>
VStem: 60 256<214 517> 490 256<214 517>
LayerCount: 2
Fore
SplineSet
490 517 m 1
 316 517 l 1
 316 214 l 1
 490 214 l 1
 490 517 l 1
60 731 m 1
 746 731 l 1
 746 0 l 1
 60 0 l 1
 60 731 l 1
EndSplineSet
Validated: 1
EndChar

StartChar: quotesingle
Encoding: 39 39 53
Width: 334
Flags: W
HStem: 719 20G<60 274>
VStem: 60 214<489 739>
LayerCount: 2
Fore
SplineSet
60 739 m 1
 274 739 l 1
 274 489 l 1
 214 369 l 1
 120 369 l 1
 60 489 l 1
 60 739 l 1
EndSplineSet
Validated: 1
EndChar

StartChar: plus
Encoding: 43 43 54
Width: 500
Flags: W
HStem: 297 134<40 460>
VStem: 178 144<165 563>
LayerCount: 2
Fore
SplineSet
40 431 m 5
 460 431 l 5
 460 297 l 5
 40 297 l 5
 40 431 l 5
178 165 m 1
 178 563 l 1
 322 563 l 1
 322 165 l 1
 178 165 l 1
EndSplineSet
Validated: 5
EndChar

StartChar: minus
Encoding: 8722 8722 55
Width: 500
Flags: W
HStem: 297 134<40 460>
LayerCount: 2
Fore
SplineSet
40 431 m 5
 460 431 l 5
 460 297 l 5
 40 297 l 5
 40 431 l 5
EndSplineSet
Validated: 1
EndChar

StartChar: equal
Encoding: 61 61 56
Width: 500
Flags: W
HStem: 215 124<40 460> 390 124<40 460>
LayerCount: 2
Fore
SplineSet
40 339 m 5
 460 339 l 5
 460 215 l 5
 40 215 l 5
 40 339 l 5
40 514 m 5
 460 514 l 5
 460 390 l 5
 40 390 l 5
 40 514 l 5
EndSplineSet
Validated: 1
EndChar

StartChar: less
Encoding: 60 60 57
Width: 462
Flags: W
LayerCount: 2
Fore
SplineSet
2 381 m 5
 422 591 l 5
 422 437 l 5
 238.75 364 l 5
 422 291 l 5
 422 137 l 5
 2 347 l 5
 2 381 l 5
EndSplineSet
Validated: 1
EndChar

StartChar: greater
Encoding: 62 62 58
Width: 462
Flags: W
LayerCount: 2
Fore
SplineSet
460 347 m 5
 40 137 l 5
 40 291 l 5
 223.25 364 l 5
 40 437 l 5
 40 591 l 5
 460 381 l 5
 460 347 l 5
EndSplineSet
Validated: 1
EndChar

StartChar: slash
Encoding: 47 47 60
Width: 550
Flags: W
LayerCount: 2
Fore
SplineSet
2 -199.994140625 m 5
 332 777.001953125 l 5
 548 777.001953125 l 5
 218 -199.994140625 l 5
 2 -199.994140625 l 5
EndSplineSet
Validated: 1
Substitution2: "'case' Case-Sensitive Forms in Latin lookup 0-1" slash.case
EndChar

StartChar: numbersign
Encoding: 35 35 61
Width: 900
Flags: W
HStem: 0 21G<112 312.378 432 632.378> 163 144<40 820> 438 144<90 860> 711.002 20G<267.622 468 587.622 788>
LayerCount: 2
Fore
SplineSet
40 307 m 1
 820 307 l 1
 820 163 l 1
 40 163 l 1
 40 307 l 1
90 582 m 1
 860 582 l 1
 860 438 l 1
 90 438 l 1
 90 582 l 1
432 0 m 5
 592 731.001953125 l 5
 788 731.001953125 l 5
 628 0 l 5
 432 0 l 5
112 0 m 5
 272 731.001953125 l 5
 468 731.001953125 l 5
 308 0 l 5
 112 0 l 5
EndSplineSet
Validated: 5
EndChar

StartChar: e
Encoding: 101 101 62
Width: 626
Flags: W
HStem: -10 167.13<261.159 382.757> 216 109<157 397.644> 383.87 157.13<261.55 373.942>
VStem: 157 71.2295<216 325>
AnchorPoint: "Anchor-3" 431 20 basechar 0
AnchorPoint: "Anchor-2" 321 0 basechar 0
AnchorPoint: "Anchor-0" 321 531 basechar 0
LayerCount: 2
Fore
SplineSet
35 260.099609375 m 0
 35 422.41410716 143.307617188 541 319.400390625 541 c 0
 512.036722361 541 588.139648438 403.732087152 588.139648438 275.705078125 c 0
 588.139648438 232.05078125 582 216 582 216 c 1
 157 216 l 1
 157 325 l 1
 397.643554688 325 l 1
 397.643554688 325 389.005372038 383.870117188 318.400390625 383.870117188 c 4
 255.9037859 383.870117188 228.229492188 337.871397898 228.229492188 275.875 c 0
 228.229492188 212.779062713 247.141601562 157.129882812 317 157.129882812 c 0
 375.09765625 157.129882812 402.958007812 195.424804688 402.958007812 195.424804688 c 1
 555 107 l 1
 555 107 494.996330336 -10 319.400390625 -10 c 0
 143.307617187 -10 35 100.230375714 35 260.099609375 c 0
EndSplineSet
EndChar

StartChar: q
Encoding: 113 113 63
Width: 685
Flags: W
HStem: -180.062 21G<413 625.4> -10.0596 185.13<196.235 374.976> 356.811 184.13<279.997 388.65> 510.94 20G<605 625.4>
VStem: 35 219.43<202.343 330.03> 413 212.4<-180.062 190.063 210.921 320.881> 413 129.9<140.795 368.951>
AnchorPoint: "Anchor-2" 520 -179.994 basechar 0
AnchorPoint: "Anchor-0" 341 531 basechar 0
LayerCount: 2
Fore
SplineSet
416.770507812 264.065429688 m 0xe8
 416.770507812 320.880859375 385.858398438 356.810546875 335.599609375 356.810546875 c 0
 285.341796875 356.810546875 254.4296875 320.880859375 254.4296875 264.065429688 c 0
 254.4296875 210.920898438 285.341796875 175.0703125 335.599609375 175.0703125 c 0
 385.858398438 175.0703125 416.770507812 210.920898438 416.770507812 264.065429688 c 0xe8
625.400390625 530.940429688 m 1xdc
 625.400390625 -180.061523438 l 1
 413 -180.061523438 l 1
 413 137.640625 l 1
 449 407.240234375 l 1
 605 530.940429688 l 1
 625.400390625 530.940429688 l 1xdc
542.900390625 297.83984375 m 0xea
 542.900390625 140.794921875 442.219726562 -10.0595703125 271.700195312 -10.0595703125 c 0
 120.770507812 -10.0595703125 35 104.726852525 35 261.83984375 c 0
 35 427.037077979 149.770507812 540.940429688 300.700195312 540.940429688 c 0
 471.219726562 540.940429688 542.900390625 417.020507812 542.900390625 297.83984375 c 0xea
EndSplineSet
Validated: 5
EndChar

StartChar: u
Encoding: 117 117 64
Width: 680
Flags: W
HStem: -10.002 168.13<200.235 383.066> -0.00195312 21G<444 620.4> 509.998 20G<60 279.43 408 620.4>
VStem: 60 219.43<175.805 529.998> 408 212.4<208.298 530> 408 89.9004<181.482 232.098>
AnchorPoint: "Anchor-3" 491 0 basechar 0
AnchorPoint: "Anchor-2" 334 0 basechar 0
AnchorPoint: "Anchor-0" 344 531 basechar 0
LayerCount: 2
Fore
SplineSet
60 236.998046875 m 2xb4
 60 529.998046875 l 1
 279.4296875 529.998046875 l 1
 279.4296875 243.873046875 l 2
 279.4296875 187.057617188 296.341796875 158.127929688 341.599609375 158.127929688 c 0
 386.858398438 158.127929688 408 181.482421875 408 248.297851562 c 1xb8
 497.900390625 232.09765625 l 1
 497.900390625 113.408203125 446.219726562 -10.001953125 275.700195312 -10.001953125 c 0
 124.770507812 -10.001953125 60 83.216796875 60 236.998046875 c 2xb4
620.400390625 -0.001953125 m 1x78
 444 -0.001953125 l 1
 444 127.698242188 l 1
 408 208.297851562 l 1
 408 530 l 1
 620.400390625 530 l 1
 620.400390625 -0.001953125 l 1x78
EndSplineSet
Validated: 5
EndChar

StartChar: a
Encoding: 97 97 65
Width: 685
Flags: W
HStem: -10.0596 185.13<196.235 374.976> 0 21G<449 625.4> 356.811 184.13<279.997 388.65> 511.002 20G<577.961 625.4>
VStem: 35 219.43<202.343 330.03> 449 176.4<0 171.15>
AnchorPoint: "Anchor-3" 491 0 basechar 0
AnchorPoint: "Anchor-2" 331 0 basechar 0
AnchorPoint: "Anchor-0" 341 531 basechar 0
LayerCount: 2
Fore
SplineSet
416.770507812 264.065429688 m 0xac
 416.770507812 320.880859375 385.858398438 356.810546875 335.599609375 356.810546875 c 0
 285.341796875 356.810546875 254.4296875 320.880859375 254.4296875 264.065429688 c 0
 254.4296875 210.920898438 285.341796875 175.0703125 335.599609375 175.0703125 c 0
 385.858398438 175.0703125 416.770507812 210.920898438 416.770507812 264.065429688 c 0xac
542.900390625 297.83984375 m 0
 542.900390625 140.794921875 442.219726562 -10.0595703125 271.700195312 -10.0595703125 c 0
 120.770507812 -10.0595703125 35 104.726852525 35 261.83984375 c 0
 35 427.037077979 149.770507812 540.940429688 300.700195312 540.940429688 c 0
 471.219726562 540.940429688 542.900390625 417.020507812 542.900390625 297.83984375 c 0
625.400390625 0 m 1x5c
 449 0 l 1
 449 119.700195312 l 1
 413 384.299804688 l 1
 604 531.001953125 l 1
 625.400390625 531.001953125 l 1
 625.400390625 0 l 1x5c
EndSplineSet
Validated: 5
Substitution2: "'ss01' Style Set 1 in Latin lookup 1-1" a.ss01
EndChar

StartChar: i
Encoding: 105 105 66
Width: 336
Flags: W
HStem: 0 21G<61.7998 274.2> 511 20G<61.7998 274.2> 578 169<60.1943 275.806>
VStem: 61.7998 212.4<0 531 578.07 746.93>
AnchorPoint: "Anchor-3" 201 0 basechar 0
AnchorPoint: "Anchor-2" 170 0 basechar 0
LayerCount: 2
Fore
SplineSet
61.7998046875 0 m 5
 61.7998046875 531 l 5
 274.200195312 531 l 5
 274.200195312 0 l 5
 61.7998046875 0 l 5
85.2001953125 578 m 26
 70.7998046875 578 60 588.799804688 60 603.200195312 c 26
 60 721.799804688 l 26
 60 736.200195312 70.7998046875 747 85.2001953125 747 c 26
 250.799804688 747 l 26
 265.200195312 747 276 736.200195312 276 721.799804688 c 26
 276 603.200195312 l 26
 276 588.799804688 265.200195312 578 250.799804688 578 c 26
 85.2001953125 578 l 26
EndSplineSet
Validated: 1
EndChar

StartChar: j
Encoding: 106 106 67
Width: 336
Flags: W
HStem: -189.9 161.101<-45.8891 144.639> 511 20G<61.7998 274.2> 578 169<60.1943 275.806>
VStem: 61.7998 212.4<-18.7153 531 578.07 746.93>
AnchorPoint: "Anchor-2" 77.2002 -179.9 basechar 0
LayerCount: 2
Fore
SplineSet
85.2001953125 578 m 26
 70.7998046875 578 60 588.799804688 60 603.200195312 c 26
 60 721.799804688 l 26
 60 736.200195312 70.7998046875 747 85.2001953125 747 c 26
 250.799804688 747 l 26
 265.200195312 747 276 736.200195312 276 721.799804688 c 26
 276 603.200195312 l 26
 276 588.799804688 265.200195312 578 250.799804688 578 c 26
 85.2001953125 578 l 26
61.7998046875 29.7001953125 m 6
 61.7998046875 531 l 5
 274.200195312 531 l 5
 274.200195312 24.2998046875 l 6
 274.200195312 -139 213.078125 -189.900390625 76.2001953125 -189.900390625 c 4
 -12.900390625 -189.900390625 -54.2998046875 -163.799804688 -54.2998046875 -163.799804688 c 5
 -48.900390625 -21.599609375 l 5
 -48.900390625 -21.599609375 -27.4228515625 -28.7998046875 1.5 -28.7998046875 c 4
 39.2998046875 -28.7998046875 61.7998046875 -14 61.7998046875 29.7001953125 c 6
EndSplineSet
Validated: 1
EndChar

StartChar: o
Encoding: 111 111 68
Width: 638
Flags: W
HStem: -10 188.13<263.387 375.413> 353.87 187.13<263.387 375.413>
VStem: 35 203.229<202.49 327.952> 400.57 203.229<202.49 327.952>
AnchorPoint: "Anchor-3" 359 0 basechar 0
AnchorPoint: "Anchor-2" 321 0 basechar 0
AnchorPoint: "Anchor-0" 321 531 basechar 0
LayerCount: 2
Fore
SplineSet
238.229492188 267.875 m 4
 238.229492188 212.897362902 269.141601562 178.129882812 319.400390625 178.129882812 c 4
 369.658203125 178.129882812 400.5703125 212.897362902 400.5703125 267.875 c 4
 400.5703125 319.228044269 369.658203125 353.870117188 319.400390625 353.870117188 c 4
 269.141601562 353.870117188 238.229492188 319.228044269 238.229492188 267.875 c 4
35 260.099609375 m 4
 35 422.41410716 143.307617188 541 319.400390625 541 c 4
 495.4921875 541 603.799804688 422.41410716 603.799804688 260.099609375 c 4
 603.799804688 100.230375714 495.4921875 -10 319.400390625 -10 c 4
 143.307617188 -10 35 100.230375714 35 260.099609375 c 4
EndSplineSet
Validated: 1
EndChar

StartChar: b
Encoding: 98 98 69
Width: 685
Flags: W
HStem: -10 185.14<295.587 406.105> 0 21G<60 106.466> 356.88 183.12<310.688 489.165> 737.002 20G<60 272.4>
VStem: 60 212.4<210.99 320.95 373.128 757.002> 132.5 139.9<157.161 350.088 373.128 379.227> 430.971 219.43<201.151 328.676>
AnchorPoint: "Anchor-2" 331 0 basechar 0
AnchorPoint: "Anchor-0" 167 758.008 basechar 0
LayerCount: 2
Fore
SplineSet
268.629882812 264.134765625 m 0xb2
 268.629882812 210.990234375 299.541992188 175.139648438 349.799804688 175.139648438 c 0
 400.05859375 175.139648438 430.970703125 210.990234375 430.970703125 264.134765625 c 0
 430.970703125 320.950195312 400.05859375 356.879882812 349.799804688 356.879882812 c 0
 299.541992188 356.879882812 268.629882812 320.950195312 268.629882812 264.134765625 c 0xb2
60 0 m 1x7a
 60 757.001953125 l 1
 272.400390625 757.001953125 l 1
 272.400390625 434.299804688 l 1
 236.400390625 119.700195312 l 1
 80.400390625 0 l 1
 60 0 l 1x7a
132.5 218.099609375 m 0xb6
 132.5 379.2265625 243.1796875 540 413.700195312 540 c 0
 564.62890625 540 650.400390625 421.836270662 650.400390625 260.099609375 c 0
 650.400390625 100.230375714 535.62890625 -10 384.700195312 -10 c 0
 214.1796875 -10 132.5 103.33203125 132.5 218.099609375 c 0xb6
EndSplineSet
Validated: 5
EndChar

StartChar: d
Encoding: 100 100 70
Width: 685
Flags: W
HStem: -10 185.07<204.319 390.626> 0 21G<449 625.4> 356.811 184.189<196.235 370.457> 737.002 20G<413 625.4>
VStem: 35 219.43<201.116 328.759> 413 212.4<210.921 320.881 332.85 757.002> 449 63.9004<109.332 171.15>
AnchorPoint: "Anchor-2" 331 0 basechar 0
AnchorPoint: "Anchor-0" 527 758.008 basechar 0
LayerCount: 2
Fore
SplineSet
416.770507812 264.065429688 m 4xb8
 416.770507812 320.880859375 385.858398438 356.810546875 335.599609375 356.810546875 c 4
 285.341796875 356.810546875 254.4296875 320.880859375 254.4296875 264.065429688 c 4
 254.4296875 210.920898438 285.341796875 175.0703125 335.599609375 175.0703125 c 4
 385.858398438 175.0703125 416.770507812 210.920898438 416.770507812 264.065429688 c 4xb8
625.400390625 0 m 5x7c
 449 0 l 5
 449 119.700195312 l 5x7a
 413 384.299804688 l 5
 413 757.001953125 l 5
 625.400390625 757.001953125 l 5
 625.400390625 0 l 5x7c
512.900390625 224.099609375 m 4
 512.900390625 109.332014509 451.219726562 -10 280.700195312 -10 c 4xba
 129.770507812 -10 35 100.230375714 35 260.099609375 c 4
 35 422.41410716 120.770507812 541 271.700195312 541 c 4
 442.219726562 541 512.900390625 385.736293949 512.900390625 224.099609375 c 4
EndSplineSet
Validated: 5
EndChar

StartChar: p
Encoding: 112 112 71
Width: 685
Flags: W
HStem: -179.992 21G<60 272.4> -9.99023 185.13<314.033 489.165> 356.88 184.13<296.197 480.378> 511.01 20G<60 236.4>
VStem: 60 212.4<-179.992 189.16 210.99 320.95> 60 176.4<350.86 531.01> 172.5 63.9004<350.86 417.09> 430.971 219.43<202.413 330.099>
AnchorPoint: "Anchor-0" 354 531 basechar 0
AnchorPoint: "Anchor-2" 162 -180 basechar 0
LayerCount: 2
Fore
SplineSet
268.629882812 264.134765625 m 4xe1
 268.629882812 210.990234375 299.541992188 175.139648438 349.799804688 175.139648438 c 4
 400.05859375 175.139648438 430.970703125 210.990234375 430.970703125 264.134765625 c 4
 430.970703125 320.950195312 400.05859375 356.879882812 349.799804688 356.879882812 c 4
 299.541992188 356.879882812 268.629882812 320.950195312 268.629882812 264.134765625 c 4xe1
60 531.009765625 m 1xd5
 236.400390625 531.009765625 l 1
 236.400390625 402.309570312 l 1xd5
 272.400390625 137.709960938 l 1
 272.400390625 -179.9921875 l 1
 60 -179.9921875 l 1xd9
 60 531.009765625 l 1xd5
172.5 297.91015625 m 4xe3
 172.5 417.090011165 234.1796875 541.009765625 404.700195312 541.009765625 c 4
 555.62890625 541.009765625 650.400390625 427.106399107 650.400390625 261.91015625 c 4
 650.400390625 104.79618694 564.62890625 -9.990234375 413.700195312 -9.990234375 c 4
 243.1796875 -9.990234375 172.5 140.863968261 172.5 297.91015625 c 4xe3
EndSplineSet
Validated: 5
EndChar

StartChar: r
Encoding: 114 114 72
Width: 551
Flags: W
HStem: -0.00195312 21G<60 272.4> 388.008 151.992<306.166 469.7> 511 20G<60 236.4>
VStem: 60 212.4<-0.00195312 361.516> 60 176.4<402.3 531>
AnchorPoint: "Anchor-2" 299 0 basechar 0
AnchorPoint: "Anchor-0" 306 531 basechar 0
LayerCount: 2
Fore
SplineSet
60 531 m 1xa8
 236.400390625 531 l 1
 236.400390625 402.299804688 l 1xa8
 272.400390625 341.700195312 l 1
 272.400390625 -0.001953125 l 1
 60 -0.001953125 l 1xb0
 60 531 l 1xa8
330.700195312 388.0078125 m 0xd0
 294.033203125 388.0078125 272.400390625 361.515625 272.400390625 301.700195312 c 1
 202.5 257.900390625 l 1
 202.5 375.943359375 232.613867156 540 394.700195312 540 c 0
 544.700195312 540 552 411.0078125 552 411.0078125 c 1
 380.904296875 297.307617188 l 5
 380.904296875 359.485351562 364.876953125 388.0078125 330.700195312 388.0078125 c 0xd0
EndSplineSet
EndChar

StartChar: thorn
Encoding: 254 254 73
Width: 685
Flags: W
HStem: -179.992 21G<60 272.4> -9.99023 185.13<314.033 489.165> 356.88 184.13<296.197 480.378> 737.01 20G<60 272.4>
VStem: 60 212.4<-179.992 169.044 210.99 320.95 371.904 757.01> 172.5 99.9004<140.864 169.044 175.927 369.02 371.904 417.09> 430.971 219.43<202.413 330.099>
AnchorPoint: "Anchor-0" 167 758.008 basechar 0
AnchorPoint: "Anchor-2" 162 -180 basechar 0
LayerCount: 2
Fore
SplineSet
268.629882812 264.134765625 m 4xf2
 268.629882812 210.990234375 299.541992188 175.139648438 349.799804688 175.139648438 c 4
 400.05859375 175.139648438 430.970703125 210.990234375 430.970703125 264.134765625 c 4
 430.970703125 320.950195312 400.05859375 356.879882812 349.799804688 356.879882812 c 4
 299.541992188 356.879882812 268.629882812 320.950195312 268.629882812 264.134765625 c 4xf2
172.5 297.91015625 m 4xf6
 172.5 417.090011165 234.1796875 541.009765625 404.700195312 541.009765625 c 4
 555.62890625 541.009765625 650.400390625 427.106399107 650.400390625 261.91015625 c 4
 650.400390625 104.79618694 564.62890625 -9.990234375 413.700195312 -9.990234375 c 4
 243.1796875 -9.990234375 172.5 140.863968261 172.5 297.91015625 c 4xf6
60 757.009765625 m 1xfa
 272.400390625 757.009765625 l 1
 272.400390625 402.309570312 l 1
 242.400390625 272 l 1
 272.400390625 137.709960938 l 1
 272.400390625 -179.9921875 l 1
 60 -179.9921875 l 1
 60 757.009765625 l 1xfa
EndSplineSet
EndChar

StartChar: dotlessi
Encoding: 305 305 74
Width: 336
Flags: W
HStem: 0 21G<61.7998 274.2> 511 20G<61.7998 274.2>
VStem: 61.7998 212.4<0 531>
AnchorPoint: "Anchor-3" 201 0 basechar 0
AnchorPoint: "Anchor-2" 170 0 basechar 0
AnchorPoint: "Anchor-0" 171 531 basechar 0
LayerCount: 2
Fore
SplineSet
61.7998046875 0 m 1
 61.7998046875 531 l 1
 274.200195312 531 l 1
 274.200195312 0 l 1
 61.7998046875 0 l 1
EndSplineSet
Validated: 1
EndChar

StartChar: uni0237
Encoding: 567 567 75
Width: 336
Flags: W
HStem: -189.9 161.101<-45.8891 144.639> 511 20G<61.7998 274.2>
VStem: 61.7998 212.4<-18.7153 531>
AnchorPoint: "Anchor-0" 171 531 basechar 0
LayerCount: 2
Fore
SplineSet
61.7998046875 29.7001953125 m 2
 61.7998046875 531 l 1
 274.200195312 531 l 1
 274.200195312 24.2998046875 l 2
 274.200195312 -139 213.078125 -189.900390625 76.2001953125 -189.900390625 c 0
 -12.900390625 -189.900390625 -54.2998046875 -163.799804688 -54.2998046875 -163.799804688 c 1
 -48.900390625 -21.599609375 l 1
 -48.900390625 -21.599609375 -27.4228515625 -28.7998046875 1.5 -28.7998046875 c 0
 39.2998046875 -28.7998046875 61.7998046875 -14 61.7998046875 29.7001953125 c 2
EndSplineSet
Validated: 1
EndChar

StartChar: h
Encoding: 104 104 76
Width: 680
Flags: W
HStem: 0 21G<60 272.4 400.971 620.4> 371.87 169.13<297.335 480.165> 737 20G<60 272.4>
VStem: 60 212.4<-0.00195312 757> 182.5 89.9004<297.9 417.08> 400.971 219.43<0 354.44>
AnchorPoint: "Anchor-2" 334 0 basechar 0
AnchorPoint: "Anchor-0" 167 758.008 basechar 0
LayerCount: 2
Fore
SplineSet
620.400390625 293 m 2xec
 620.400390625 0 l 1
 400.970703125 0 l 1
 400.970703125 286.125 l 2
 400.970703125 342.940429688 384.05859375 371.870117188 338.80078125 371.870117188 c 0
 293.541992188 371.870117188 272.400390625 348.515625 272.400390625 281.700195312 c 1xf4
 182.5 297.900390625 l 1
 182.5 417.08024554 234.180664062 541 404.700195312 541 c 0
 555.629882812 541 620.400390625 447.403689601 620.400390625 293 c 2xec
60 757 m 1
 272.400390625 757 l 1
 272.400390625 -0.001953125 l 1
 60 -0.001953125 l 1
 60 757 l 1
EndSplineSet
Validated: 5
EndChar

StartChar: percent
Encoding: 37 37 77
Width: 909
Flags: W
HStem: -9.99805 134.937<637.351 714.649> 0 21G<176 294.558> 229.565 134.937<637.649 714.351> 364.492 134.937<194.351 271.649> 604.056 134.937<194.649 271.351> 711.008 20G<622.442 741>
VStem: 40 146.034<508.154 595.379> 279.967 146.033<508.154 595.379> 483 146.034<133.664 220.889> 722.967 146.033<133.664 220.889>
LayerCount: 2
Fore
SplineSet
629.034179688 176.755859375 m 0xa3c0
 629.034179688 145.012695312 646.919921875 124.938476562 676 124.938476562 c 0
 705.080078125 124.938476562 722.966796875 145.012695312 722.966796875 176.755859375 c 0
 722.966796875 208.291992188 705.080078125 229.565429688 676 229.565429688 c 0
 646.919921875 229.565429688 629.034179688 208.291992188 629.034179688 176.755859375 c 0xa3c0
483 175.001953125 m 0
 483 284.501953125 556.5 364.501953125 676 364.501953125 c 0
 795.5 364.501953125 869 284.501953125 869 175.001953125 c 0
 869 65.501953125 795.5 -9.998046875 676 -9.998046875 c 0
 556.5 -9.998046875 483 65.501953125 483 175.001953125 c 0
186.034179688 551.24609375 m 0
 186.034179688 519.502929688 203.919921875 499.428710938 233 499.428710938 c 0
 262.080078125 499.428710938 279.966796875 519.502929688 279.966796875 551.24609375 c 0
 279.966796875 582.782226562 262.080078125 604.055664062 233 604.055664062 c 0x1bc0
 203.919921875 604.055664062 186.034179688 582.782226562 186.034179688 551.24609375 c 0
40 549.4921875 m 0
 40 658.9921875 113.5 738.9921875 233 738.9921875 c 0
 352.5 738.9921875 426 658.9921875 426 549.4921875 c 0
 426 439.9921875 352.5 364.4921875 233 364.4921875 c 0
 113.5 364.4921875 40 439.9921875 40 549.4921875 c 0
EndSplineSet
Refer: 448 8260 S 1 0 0 1 330 0 2
EndChar

StartChar: c
Encoding: 99 99 78
Width: 593
Flags: W
HStem: -10 190.13<263.387 375.17> 355.87 184.13<263.387 373.11>
VStem: 35 203.229<206.945 328.835>
AnchorPoint: "Anchor-2" 321 0 basechar 0
AnchorPoint: "Anchor-0" 321 531 basechar 0
LayerCount: 2
Fore
SplineSet
35 260.099609375 m 0
 35 421.836270662 143.307617188 540 319.400390625 540 c 0
 510.978244121 540 572.862304688 373.212890625 572.862304688 373.212890625 c 1
 402.987304688 294.10546875 l 1
 402.987304688 294.10546875 385.130610101 355.870117188 319.400390625 355.870117188 c 0
 269.141601562 355.870117188 238.229492188 321.228044269 238.229492188 269.875 c 0
 238.229492188 214.897362902 269.141601562 180.129882812 319.400390625 180.129882812 c 0
 390.097499624 180.129882812 402.958007812 246.424804688 402.958007812 246.424804688 c 1
 578.619140625 171.95703125 l 1
 578.619140625 171.95703125 525.5806902 -10 319.400390625 -10 c 0
 143.307617187 -10 35 100.230375714 35 260.099609375 c 0
EndSplineSet
Validated: 1
EndChar

StartChar: f
Encoding: 102 102 79
Width: 388
Flags: W
HStem: 0 21G<66 278.4> 400 141<15 376> 625.8 141.101<190.561 374.251>
VStem: 66 212.4<0 615.503>
AnchorPoint: "Anchor-2" 211 0 basechar 0
AnchorPoint: "Anchor-0" 260 758.008 basechar 0
LayerCount: 2
Fore
SplineSet
15 541 m 5
 376 541 l 5
 376 400 l 5
 15 400 l 5
 15 541 l 5
278.400390625 567.299804688 m 6
 278.400390625 0 l 5
 66 0 l 5
 66 592.700195312 l 6
 66 692 122.122070312 766.900390625 259 766.900390625 c 4
 378.100585938 766.900390625 414 719 414 719 c 5
 372 608 l 5
 372 608 358.623046875 625.799804688 329.700195312 625.799804688 c 4
 291.900390625 625.799804688 278.400390625 600 278.400390625 567.299804688 c 6
EndSplineSet
Validated: 5
EndChar

StartChar: l
Encoding: 108 108 80
Width: 332
Flags: W
HStem: 0 21G<60 272.4> 737 20G<60 272.4>
VStem: 60 212.4<0 757>
AnchorPoint: "Anchor-2" 170 0 basechar 0
AnchorPoint: "Anchor-0" 167 758.008 basechar 0
LayerCount: 2
Fore
SplineSet
60 0 m 5
 60 757 l 5
 272.400390625 757 l 5
 272.400390625 0 l 5
 60 0 l 5
EndSplineSet
Validated: 1
EndChar

StartChar: n
Encoding: 110 110 81
Width: 680
Flags: W
HStem: 0 21G<60 272.4 400.971 620.4> 371.87 168.13<297.335 480.165> 511 20G<60 236.4>
VStem: 60 176.4<402.3 531> 182.5 89.9004<297.9 348.516> 400.971 219.43<0 354.193>
AnchorPoint: "Anchor-2" 334 0 basechar 0
AnchorPoint: "Anchor-0" 341 531 basechar 0
LayerCount: 2
Fore
SplineSet
620.400390625 293 m 6xcc
 620.400390625 0 l 5
 400.970703125 0 l 5
 400.970703125 286.125 l 6
 400.970703125 342.940429688 384.05859375 371.870117188 338.80078125 371.870117188 c 4
 293.541992188 371.870117188 272.400390625 348.515625 272.400390625 281.700195312 c 5
 182.5 297.900390625 l 5
 182.5 416.589994423 234.180664062 540 404.700195312 540 c 4
 555.629882812 540 620.400390625 446.781094078 620.400390625 293 c 6xcc
60 531 m 5xb4
 236.400390625 531 l 5
 236.400390625 402.299804688 l 5xb4
 272.400390625 321.700195312 l 5
 272.400390625 -0.001953125 l 5xac
 60 -0.001953125 l 5
 60 531 l 5xb4
EndSplineSet
Validated: 5
EndChar

StartChar: m
Encoding: 109 109 82
Width: 1002
Flags: W
HStem: 0 21G<60 272.4 388.113 607.543 723.256 942.686> 371.87 168.13<291.779 467.308 626.921 802.45> 511 20G<60 236.4>
VStem: 60 176.4<402.3 531> 182.5 89.9004<297.9 348.516> 388.113 219.43<0 342.94> 517.643 89.9004<297.902 416.592> 723.256 219.43<0.00195312 360.527>
AnchorPoint: "Anchor-0" 521 531 basechar 0
AnchorPoint: "Anchor-2" 503 0 basechar 0
LayerCount: 2
Fore
SplineSet
942.685546875 293.001953125 m 2x83
 942.685546875 0.001953125 l 1
 723.255859375 0.001953125 l 1
 723.255859375 286.126953125 l 2
 723.255859375 342.942382812 708.03515625 371.872070312 667.303710938 371.872070312 c 0
 626.5703125 371.872070312 607.54296875 348.517578125 607.54296875 281.702148438 c 1x85
 517.642578125 297.90234375 l 1
 517.642578125 416.591947548 569.323242188 540.001953125 726.985351562 540.001953125 c 0
 877.915039062 540.001953125 942.685546875 446.783047203 942.685546875 293.001953125 c 2x83
607.54296875 293 m 2
 607.54296875 0 l 1
 388.11328125 0 l 1
 388.11328125 286.125 l 2
 388.11328125 342.940429688 372.892578125 371.870117188 332.161132812 371.870117188 c 0
 291.427734375 371.870117188 272.400390625 348.515625 272.400390625 281.700195312 c 1
 182.5 297.900390625 l 1
 182.5 416.589994423 234.180664062 540 391.842773438 540 c 0xcd
 542.772460938 540 607.54296875 446.781094078 607.54296875 293 c 2
60 531 m 1xb1
 236.400390625 531 l 1
 236.400390625 402.299804688 l 1xb1
 272.400390625 321.700195312 l 1
 272.400390625 -0.001953125 l 1xa9
 60 -0.001953125 l 1
 60 531 l 1xb1
EndSplineSet
Validated: 5
EndChar

StartChar: g
Encoding: 103 103 83
Width: 683
Flags: W
HStem: -189.9 148.101<255.467 387.585> 30.9404 174.13<194.349 382.399> 366.811 174.13<200.538 380.137> 510.94 20G<563.469 623.514>
VStem: 33.1133 218.43<227.516 344.662> 403.884 219.63<236.893 334.755> 411.113 212.4<-18.4858 60.9385 137.641 198.813>
AnchorPoint: "Anchor-2" 323 -179.994 basechar 0
AnchorPoint: "Anchor-0" 341 531 basechar 0
LayerCount: 2
Fore
SplineSet
403.883789062 284.065429688 m 0xec
 403.883789062 334.754882812 374.875976562 366.810546875 327.712890625 366.810546875 c 0
 280.55078125 366.810546875 251.54296875 334.754882812 251.54296875 284.065429688 c 0
 251.54296875 236.892578125 280.55078125 205.0703125 327.712890625 205.0703125 c 0
 374.875976562 205.0703125 403.883789062 236.892578125 403.883789062 284.065429688 c 0xec
623.513671875 55.9384765625 m 2xda
 623.513671875 -102.239257812 521.576171875 -189.900390625 325.313476562 -189.900390625 c 0
 96.970703125 -189.900390625 41 -57 41 -57 c 1
 234 9 l 1
 234 9 247.997070312 -41.7998046875 324.61328125 -41.7998046875 c 0
 391.157226562 -41.7998046875 411.11328125 -5.44140625 411.11328125 60.9384765625 c 2
 411.11328125 137.640625 l 1
 447.11328125 452.240234375 l 1
 603.11328125 530.940429688 l 1
 623.513671875 530.940429688 l 1
 623.513671875 55.9384765625 l 2xda
531.013671875 287.83984375 m 0
 531.013671875 156.807617188 440.333007812 30.9404296875 269.813476562 30.9404296875 c 0
 118.883789062 30.9404296875 33.11328125 136.861328125 33.11328125 281.83984375 c 0
 33.11328125 435.19921875 127.883789062 540.940429688 278.813476562 540.940429688 c 0xe8
 449.333007812 540.940429688 531.013671875 411.922851562 531.013671875 287.83984375 c 0
EndSplineSet
Validated: 5
EndChar

StartChar: k
Encoding: 107 107 84
Width: 688
Flags: W
HStem: 0 21G<60 272.4 412.923 686> 511.011 20G<402.181 653> 737 20G<60 272.4>
VStem: 60 212.4<-0.00195312 757>
AnchorPoint: "Anchor-2" 348 0 basechar 0
AnchorPoint: "Anchor-0" 167 758.008 basechar 0
LayerCount: 2
Fore
SplineSet
427 0 m 1
 225 287 l 1
 418 531.010742188 l 1
 653 531.010742188 l 1
 454 307 l 1
 686 0 l 1
 427 0 l 1
60 757 m 1
 272.400390625 757 l 1
 272.400390625 -0.001953125 l 1
 60 -0.001953125 l 1
 60 757 l 1
EndSplineSet
Validated: 5
EndChar

StartChar: s
Encoding: 115 115 85
Width: 530
Flags: W
HStem: -10 123.2<176.484 292.736> 424.4 116.793<229.619 324.732>
VStem: 29.4004 196.6<305.545 418.705> 295.4 199.6<120.139 234.918>
AnchorPoint: "Anchor-2" 241 0 basechar 0
AnchorPoint: "Anchor-0" 263 531 basechar 0
LayerCount: 2
Fore
SplineSet
261.400390625 541.193359375 m 0
 450.200195312 541.193359375 474.200195312 433.200195312 474.200195312 433.200195312 c 1
 344 368.799804688 l 17
 344 368.799804688 331.204101562 424.400390625 272.200195312 424.400390625 c 0
 241.624023438 424.400390625 226 408.93359375 226 388.400390625 c 0
 226 355.400390625 261.945497068 347.70248338 315.887695312 342.158203125 c 0
 411.8984375 332.290039062 495 290.836914062 495 179 c 0
 495 70.302734375 423.799804688 -10 235 -10 c 0
 46.2001953125 -10 15 130 15 130 c 25
 156.599609375 168 l 1
 156.599609375 168 162.200195312 113.200195312 236.599609375 113.200195312 c 0
 272.836914062 113.200195312 295.400390625 123.845703125 295.400390625 147.799804688 c 0
 295.400390625 177.4140625 263.373894861 185.153587153 203.48046875 193.077148438 c 0
 87.80859375 208.379882812 29.400390625 254.80078125 29.400390625 356.599609375 c 0
 29.400390625 451.4453125 88.599609375 541.193359375 261.400390625 541.193359375 c 0
EndSplineSet
Validated: 1
EndChar

StartChar: t
Encoding: 116 116 86
Width: 498
Flags: W
HStem: -10 171.101<235.561 426.089> 377.9 153<45 439>
VStem: 106 212.4<174.884 622.9>
AnchorPoint: "Anchor-0" 217 662.008 basechar 0
AnchorPoint: "Anchor-2" 284 0 basechar 0
LayerCount: 2
Fore
SplineSet
45 377.900390625 m 1
 45 530.900390625 l 1
 439 530.900390625 l 1
 439 377.900390625 l 1
 45 377.900390625 l 1
318.400390625 219.600585938 m 2
 318.400390625 175.900390625 340.900390625 161.100585938 378.700195312 161.100585938 c 0
 407.623046875 161.100585938 429.100585938 168.30078125 429.100585938 168.30078125 c 1
 434.5 16.1005859375 l 1
 434.5 16.1005859375 393.100585938 -10 304 -10 c 0
 167.122070312 -10 106 40.900390625 106 204.200195312 c 2
 106 622.900390625 l 1
 318.400390625 697.900390625 l 1
 318.400390625 219.600585938 l 2
EndSplineSet
Validated: 5
EndChar

StartChar: v
Encoding: 118 118 87
Width: 664
Flags: W
HStem: 511.011 20G<2 255.486 418.067 662.441>
AnchorPoint: "Anchor-2" 332 0 basechar 0
AnchorPoint: "Anchor-0" 341 531 basechar 0
LayerCount: 2
Fore
SplineSet
322 -20 m 5
 2 531.010742188 l 5
 248 531.010742188 l 5
 332.220703125 306 l 5
 426.44140625 531.010742188 l 5
 662.44140625 531.010742188 l 5
 342.44140625 -20 l 5
 322 -20 l 5
EndSplineSet
Validated: 1
EndChar

StartChar: w
Encoding: 119 119 88
Width: 863
Flags: W
HStem: 511 20G<2 249.281 413.897 468 632.615 862.297>
AnchorPoint: "Anchor-2" 429 0 basechar 0
AnchorPoint: "Anchor-0" 442 531 basechar 0
LayerCount: 2
Fore
SplineSet
269.4 -20 m 1
 2 531 l 1
 241.68 531 l 1
 315.79421875 336 l 1
 425.1084375 531 l 1
 456.7884375 531 l 1
 566.10265625 336 l 1
 640.216875 531 l 1
 862.296875 531 l 1
 586.096875 -20 l 1
 565.9084375 -20 l 1
 428.62890625 221 l 1
 289.5884375 -20 l 1
 269.4 -20 l 1
EndSplineSet
Validated: 1
EndChar

StartChar: x
Encoding: 120 120 89
Width: 695
Flags: W
HStem: 0 21G<2 271.975 423.025 693> 511.011 20G<35 281.259 413.741 660>
AnchorPoint: "Anchor-0" 350 531 basechar 0
AnchorPoint: "Anchor-2" 348 0 basechar 0
LayerCount: 2
Fore
SplineSet
261 0 m 1
 2 0 l 1
 214 277 l 1
 35 531.010742188 l 1
 270 531.010742188 l 1
 413 277 l 1
 261 0 l 1
434 0 m 1
 282 277 l 1
 425 531.010742188 l 1
 660 531.010742188 l 1
 481 277 l 1
 693 0 l 1
 434 0 l 1
EndSplineSet
Validated: 5
EndChar

StartChar: y
Encoding: 121 121 90
Width: 664
Flags: W
HStem: -179.994 21G<60 309.223> 511.011 20G<2 255.486 418.067 662.441>
AnchorPoint: "Anchor-2" 194 -179.994 basechar 0
AnchorPoint: "Anchor-0" 341 531 basechar 0
LayerCount: 2
Fore
SplineSet
218 109 m 1
 2 531.010742188 l 1
 248 531.010742188 l 1
 332.220703125 306 l 1
 426.44140625 531.010742188 l 1
 662.44140625 531.010742188 l 1
 299 -179.994140625 l 1
 60 -179.994140625 l 1
 218 109 l 1
EndSplineSet
Validated: 1
EndChar

StartChar: z
Encoding: 122 122 91
Width: 480
Flags: W
HStem: 0 168<339.4 464> 362.934 168<26 143.6>
AnchorPoint: "Anchor-2" 247 0 basechar 0
AnchorPoint: "Anchor-0" 250 531 basechar 0
LayerCount: 2
Fore
SplineSet
194 372.93359375 m 5
 26 362.93359375 l 5
 26 530.93359375 l 5
 478 530.93359375 l 5
 478 507.93359375 l 5
 286 158 l 1
 464 168 l 1
 464 0 l 1
 2 0 l 1
 2 23 l 5
 194 372.93359375 l 5
EndSplineSet
Validated: 1
EndChar

StartChar: backslash
Encoding: 92 92 92
Width: 550
Flags: W
LayerCount: 2
Fore
SplineSet
548 -199.994140625 m 1
 332 -199.994140625 l 5
 2 777.001953125 l 1
 218 777.001953125 l 1
 548 -199.994140625 l 1
EndSplineSet
Validated: 1
Substitution2: "'case' Case-Sensitive Forms in Latin lookup 0-1" backslash.case
EndChar

StartChar: parenleft
Encoding: 40 40 93
Width: 416
Flags: W
VStem: 35 204.811<117.823 465.72>
LayerCount: 2
Fore
SplineSet
401 -24.966796875 m 1
 401 -200 l 1
 175.060546875 -200 35 2.01351351351 35 295 c 0
 35 574.672823219 175.060546875 779 401 779 c 1
 401 603.966796875 l 1
 298.928659812 603.966796875 239.810546875 485.878806063 239.810546875 298.083007812 c 0
 239.810546875 92.9349192296 298.928659812 -24.966796875 401 -24.966796875 c 1
EndSplineSet
Validated: 1
Substitution2: "'case' Case-Sensitive Forms in Latin lookup 0-1" parenleft.case
EndChar

StartChar: parenright
Encoding: 41 41 94
Width: 416
Flags: W
VStem: 176.189 204.811<117.823 465.72>
LayerCount: 2
Fore
SplineSet
15 -24.966796875 m 5
 117.071289062 -24.966796875 176.189453125 92.9345703125 176.189453125 298.083007812 c 4
 176.189453125 485.87890625 117.071289062 603.966796875 15 603.966796875 c 5
 15 779 l 5
 240.939453125 779 381 574.672851562 381 295 c 4
 381 2.013671875 240.939453125 -200 15 -200 c 5
 15 -24.966796875 l 5
EndSplineSet
Validated: 1
Substitution2: "'case' Case-Sensitive Forms in Latin lookup 0-1" parenright.case
EndChar

StartChar: bar
Encoding: 124 124 95
Width: 326
Flags: W
VStem: 60 206<-199.994 777.002>
LayerCount: 2
Fore
SplineSet
266 -199.994140625 m 1
 60 -199.994140625 l 1
 60 777.001953125 l 1
 266 777.001953125 l 1
 266 -199.994140625 l 1
EndSplineSet
Validated: 1
Substitution2: "'case' Case-Sensitive Forms in Latin lookup 0-1" bar.case
EndChar

StartChar: bracketleft
Encoding: 91 91 96
Width: 431
Flags: W
HStem: -199.994 166.996<266 416> 610.006 166.996<266 416>
VStem: 60 356<-199.994 -32.998 610.006 777.002> 60 206<-32.998 610.006>
LayerCount: 2
Fore
SplineSet
60 777.001953125 m 5xe0
 416 777.001953125 l 5
 416 610.005859375 l 5xe0
 266 610.005859375 l 5
 266 -32.998046875 l 5xd0
 416 -32.998046875 l 5
 416 -199.994140625 l 5
 60 -199.994140625 l 5
 60 777.001953125 l 5xe0
EndSplineSet
Validated: 1
Substitution2: "'case' Case-Sensitive Forms in Latin lookup 0-1" bracketleft.case
EndChar

StartChar: bracketright
Encoding: 93 93 97
Width: 431
Flags: W
HStem: -199.994 166.996<15 165> 610.006 166.996<15 165>
VStem: 15 356<-199.994 -32.998 610.006 777.002> 165 206<-32.998 610.006>
LayerCount: 2
Fore
SplineSet
371 777.001953125 m 5xe0
 371 -199.994140625 l 5
 15 -199.994140625 l 5
 15 -32.998046875 l 5xe0
 165 -32.998046875 l 5
 165 610.005859375 l 5xd0
 15 610.005859375 l 5
 15 777.001953125 l 5
 371 777.001953125 l 5xe0
EndSplineSet
Validated: 1
Substitution2: "'case' Case-Sensitive Forms in Latin lookup 0-1" bracketright.case
EndChar

StartChar: sterling
Encoding: 163 163 98
Width: 670
Flags: W
HStem: 0 203<508.9 630> 273 134<46 454> 570 168.992<309.54 410.331>
VStem: 65 225<438.361 552.435> 134 206<241.728 399.003>
LayerCount: 2
Fore
SplineSet
46 407 m 5xe0
 454 407 l 5
 454 273 l 5
 46 273 l 5
 46 407 l 5xe0
351 738.9921875 m 0
 612 738.9921875 625 555 625 555 c 1
 445 451 l 1
 445 451 445 570 364 570 c 0
 312 570 290 540 290 497 c 0xf0
 290 425 340 406 340 320 c 0
 340 255.952148438 284 183 284 183 c 1
 630 203 l 1
 630 0 l 1
 1 0 l 1
 1 31 l 1
 1 31 134 186 134 308 c 0xe8
 134 392.005859375 65 430 65 529 c 0xf0
 65 625 138 738.9921875 351 738.9921875 c 0
EndSplineSet
Validated: 5
EndChar

StartChar: asciicircum
Encoding: 94 94 99
Width: 434
Flags: W
HStem: 450 301
LayerCount: 2
Fore
SplineSet
227.44140625 751 m 5
 437.44140625 450 l 5
 271.44140625 450 l 5
 217.220703125 561 l 5
 163 450 l 5
 -3 450 l 5
 207 751 l 5
 227.44140625 751 l 5
EndSplineSet
Validated: 1
EndChar

StartChar: underscore
Encoding: 95 95 100
Width: 750
Flags: W
HStem: -154 154<40 710>
LayerCount: 2
Fore
SplineSet
40 0 m 1
 710 0 l 5
 710 -154 l 5
 40 -154 l 1
 40 0 l 1
EndSplineSet
EndChar

StartChar: acute
Encoding: 180 180 101
Width: 294
Flags: W
HStem: 510 221
VStem: 2 290.441
LayerCount: 2
Fore
SplineSet
2 510 m 5
 66.44140625 731 l 5
 292.44140625 731 l 5
 22.44140625 510 l 5
 2 510 l 5
EndSplineSet
Validated: 1
EndChar

StartChar: grave
Encoding: 96 96 102
Width: 294
Flags: W
HStem: 510 221
VStem: 2 290.441
LayerCount: 2
Fore
SplineSet
292.44140625 510 m 5
 272 510 l 5
 2 731 l 5
 228 731 l 5
 292.44140625 510 l 5
EndSplineSet
Validated: 1
EndChar

StartChar: asterisk
Encoding: 42 42 103
Width: 535
Flags: W
HStem: 540 21G<249.776 285.91> 731 20G<174.644 360.644>
LayerCount: 2
Fore
SplineSet
284.49609375 450.633789062 m 5
 301.240234375 462.359375 l 5
 485.991210938 338.93359375 l 5
 333.627929688 232.247070312 l 5
 284.49609375 450.633789062 l 5
250.791015625 451.633789062 m 5
 201.659179688 233.247070312 l 5
 49.2958984375 339.93359375 l 5
 234.046875 463.359375 l 5
 250.791015625 451.633789062 l 5
300.236328125 512.518554688 m 5
 469.671875 665.684570312 l 5
 533.287109375 493.309570312 l 5
 307.227539062 493.309570312 l 5
 300.236328125 512.518554688 l 5
235.05078125 512.518554688 m 5
 228.059570312 493.309570312 l 5
 2 493.309570312 l 5
 65.615234375 665.684570312 l 5
 235.05078125 512.518554688 l 5
278.084960938 540 m 5
 257.643554688 540 l 5
 174.643554688 751 l 5
 360.643554688 751 l 5
 278.084960938 540 l 5
EndSplineSet
Validated: 1
EndChar

StartChar: at
Encoding: 64 64 104
Width: 913
Flags: W
HStem: -137.45 117.102<348.215 629.994> 87.3496 132.513<412.945 501.646> 87.3496 114.166<678.555 745.821> 346.528 124.847<412.382 501.037> 573.748 112.702<340.098 597.875>
VStem: 35 136.353<151.792 399.845> 247.459 152.935<233.538 335.349> 513.538 155.505<244.904 321.541> 520.938 79.5986<225.746 350.617> 762.552 116.414<216.489 425.907>
LayerCount: 2
Fore
SplineSet
513.538085938 284.501953125 m 4xdf40
 513.538085938 321.541015625 491.993164062 346.528320312 456.965820312 346.528320312 c 4
 421.9375 346.528320312 400.393554688 321.541015625 400.393554688 284.501953125 c 4
 400.393554688 244.904296875 421.9375 219.862304688 456.965820312 219.862304688 c 4
 491.993164062 219.862304688 513.538085938 244.904296875 513.538085938 284.501953125 c 4xdf40
600.537109375 290.5078125 m 4xdec0
 600.537109375 160.518554688 537.547851562 87.349609375 418.702148438 87.349609375 c 4
 313.510742188 87.349609375 247.458984375 164.174804688 247.458984375 275.598632812 c 4
 247.458984375 388.724609375 317.237304688 471.375 422.430664062 471.375 c 4
 531.275390625 471.375 600.537109375 403.161132812 600.537109375 290.5078125 c 4xdec0
35 269.549804688 m 4
 35 510.450195312 196.700195312 686.450195312 459.600585938 686.450195312 c 4
 704.900390625 686.450195312 878.965820312 553.032226562 878.965820312 306.950195312 c 4
 878.965820312 152.274414062 796.825195312 87.349609375 693.702148438 87.349609375 c 4
 535.026367188 87.349609375 520.938476562 225.74609375 520.938476562 350.6171875 c 13xbec0
 650.938476562 456.942382812 l 5
 669.04296875 456.942382812 l 5
 669.04296875 276.366210938 l 6
 669.04296875 221.188476562 685.838867188 201.515625 709.58984375 201.515625 c 4xbf40
 745.451171875 201.515625 762.551757812 235.405273438 762.551757812 308.875 c 4
 762.551757812 478.8671875 660.342773438 573.748046875 453.814453125 573.748046875 c 4
 294.595703125 573.748046875 171.352539062 471.017578125 171.352539062 269.873046875 c 4
 171.352539062 79.744140625 295.805664062 -20.3486328125 476.8046875 -20.3486328125 c 4
 654.654296875 -20.3486328125 756.440429688 58.8720703125 756.440429688 58.8720703125 c 5
 811.5 -42.0498046875 l 5
 811.5 -42.0498046875 698.178710938 -137.450195312 470.600585938 -137.450195312 c 4
 196.700195312 -137.450195312 35 28.650390625 35 269.549804688 c 4
EndSplineSet
Validated: 5
Substitution2: "'case' Case-Sensitive Forms in Latin lookup 0-1" at.case
EndChar

StartChar: hyphen.case
Encoding: 65537 -1 105
Width: 438
Flags: W
HStem: 258 214<40 398>
LayerCount: 2
Fore
SplineSet
40 472 m 1
 398 472 l 1
 398 258 l 1
 40 258 l 1
 40 472 l 1
EndSplineSet
Validated: 1
EndChar

StartChar: at.case
Encoding: 65538 -1 106
Width: 913
Flags: W
HStem: -47.4502 117.102<348.215 629.994> 177.35 132.513<412.945 501.646> 177.35 114.166<678.555 745.821> 436.528 124.847<412.382 501.037> 663.748 112.702<340.098 597.875>
VStem: 35 136.353<241.792 489.845> 247.459 152.935<323.538 425.349> 513.538 155.505<334.904 411.541> 520.938 79.5986<315.746 440.617> 762.552 116.414<306.489 515.907>
LayerCount: 2
Fore
SplineSet
513.538085938 374.501953125 m 4xdf40
 513.538085938 411.541015625 491.993164062 436.528320312 456.965820312 436.528320312 c 4
 421.9375 436.528320312 400.393554688 411.541015625 400.393554688 374.501953125 c 4
 400.393554688 334.904296875 421.9375 309.862304688 456.965820312 309.862304688 c 4
 491.993164062 309.862304688 513.538085938 334.904296875 513.538085938 374.501953125 c 4xdf40
600.537109375 380.5078125 m 4xdec0
 600.537109375 250.518554688 537.547851562 177.349609375 418.702148438 177.349609375 c 4
 313.510742188 177.349609375 247.458984375 254.174804688 247.458984375 365.598632812 c 4
 247.458984375 478.724609375 317.237304688 561.375 422.430664062 561.375 c 4
 531.275390625 561.375 600.537109375 493.161132812 600.537109375 380.5078125 c 4xdec0
35 359.549804688 m 4
 35 600.450195312 196.700195312 776.450195312 459.600585938 776.450195312 c 4
 704.900390625 776.450195312 878.965820312 643.032226562 878.965820312 396.950195312 c 4
 878.965820312 242.274414062 796.825195312 177.349609375 693.702148438 177.349609375 c 4
 535.026367188 177.349609375 520.938476562 315.74609375 520.938476562 440.6171875 c 13xbec0
 650.938476562 546.942382812 l 5
 669.04296875 546.942382812 l 5
 669.04296875 366.366210938 l 6
 669.04296875 311.188476562 685.838867188 291.515625 709.58984375 291.515625 c 4xbf40
 745.451171875 291.515625 762.551757812 325.405273438 762.551757812 398.875 c 4
 762.551757812 568.8671875 660.342773438 663.748046875 453.814453125 663.748046875 c 4
 294.595703125 663.748046875 171.352539062 561.017578125 171.352539062 359.873046875 c 4
 171.352539062 169.744140625 295.805664062 69.6513671875 476.8046875 69.6513671875 c 4
 654.654296875 69.6513671875 756.440429688 148.872070312 756.440429688 148.872070312 c 5
 811.5 47.9501953125 l 5
 811.5 47.9501953125 698.178710938 -47.4501953125 470.600585938 -47.4501953125 c 4
 196.700195312 -47.4501953125 35 118.650390625 35 359.549804688 c 4
EndSplineSet
Validated: 5
EndChar

StartChar: braceleft
Encoding: 123 123 107
Width: 541
Flags: W
HStem: -210.002 166.996<397.572 510.406> 232 164<40 154.439> 620.006 166.996<397.572 510.274>
VStem: 170 206<-23.4384 213.164 414.745 600.438>
LayerCount: 2
Fore
SplineSet
303 314 m 1
 303 314 376 299 376 209 c 2
 376 40.994140625 l 2
 376 -11.8349609375 401.8828125 -43.005859375 448 -43.005859375 c 0
 498 -43.005859375 509 -33.005859375 509 -33.005859375 c 1
 526 -200.001953125 l 1
 526 -200.001953125 486 -210.001953125 406 -210.001953125 c 0
 261.700195312 -210.001953125 170 -132.133789062 170 -0.001953125 c 2
 170 160 l 2
 170 207.328125 143.138671875 232 100 232 c 2
 40 232 l 1
 40 396 l 1
 100 396 l 2
 143.138671875 396 170 420.671875 170 468 c 2
 170 577.001953125 l 2
 170 709.133789062 261.700195312 787.001953125 406 787.001953125 c 0
 479 787.001953125 526 777.001953125 526 777.001953125 c 1
 509 610.005859375 l 1
 509 610.005859375 490 620.005859375 448 620.005859375 c 0
 401.8828125 620.005859375 376 588.834960938 376 536.005859375 c 2
 376 419 l 2
 376 327 303 314 303 314 c 1
EndSplineSet
Validated: 1
Substitution2: "'case' Case-Sensitive Forms in Latin lookup 0-1" braceleft.case
EndChar

StartChar: braceright
Encoding: 125 125 108
Width: 541
Flags: W
HStem: -210.002 166.996<30.5939 143.428> 232 164<386.561 501> 620.006 166.996<30.7265 143.428>
VStem: 165 206<-23.4384 213.164 414.745 600.438>
LayerCount: 2
Fore
SplineSet
238 314 m 5
 238 314 165 327 165 419 c 6
 165 536.005859375 l 6
 165 588.834960938 139.1171875 620.005859375 93 620.005859375 c 4
 51 620.005859375 32 610.005859375 32 610.005859375 c 5
 15 777.001953125 l 5
 15 777.001953125 62 787.001953125 135 787.001953125 c 4
 279.299804688 787.001953125 371 709.133789062 371 577.001953125 c 6
 371 468 l 6
 371 420.671875 397.861328125 396 441 396 c 6
 501 396 l 5
 501 232 l 5
 441 232 l 6
 397.861328125 232 371 207.328125 371 160 c 6
 371 -0.001953125 l 6
 371 -132.133789062 279.299804688 -210.001953125 135 -210.001953125 c 4
 55 -210.001953125 15 -200.001953125 15 -200.001953125 c 5
 32 -33.005859375 l 5
 32 -33.005859375 43 -43.005859375 93 -43.005859375 c 4
 139.1171875 -43.005859375 165 -11.8349609375 165 40.994140625 c 6
 165 209 l 6
 165 299 238 314 238 314 c 5
EndSplineSet
Validated: 1
Substitution2: "'case' Case-Sensitive Forms in Latin lookup 0-1" braceright.case
EndChar

StartChar: cent
Encoding: 162 162 109
Width: 593
Flags: W
HStem: -10 190.13<206.225 451.244> 355.87 184.13<206.225 443.64>
VStem: 35 203.229<206.945 328.835> 282 78<-77 604>
LayerCount: 2
Fore
SplineSet
282 -77 m 1
 282 604 l 1
 360 604 l 1
 360 -77 l 1
 282 -77 l 1
35 260.099609375 m 0
 35 421.836270662 143.307617188 540 319.400390625 540 c 0
 510.978244121 540 572.862304688 373.212890625 572.862304688 373.212890625 c 1
 402.987304688 294.10546875 l 1
 402.987304688 294.10546875 385.130610101 355.870117188 319.400390625 355.870117188 c 0
 269.141601562 355.870117188 238.229492188 321.228044269 238.229492188 269.875 c 0
 238.229492188 214.897362902 269.141601562 180.129882812 319.400390625 180.129882812 c 0
 390.097499624 180.129882812 402.958007812 246.424804688 402.958007812 246.424804688 c 1
 578.619140625 171.95703125 l 1
 578.619140625 171.95703125 525.5806902 -10 319.400390625 -10 c 0
 143.307617187 -10 35 100.230375714 35 260.099609375 c 0
EndSplineSet
EndChar

StartChar: yen
Encoding: 165 165 110
Width: 782
Flags: W
HStem: 0 21G<263 519> 203 74<106 676> 323 158<263 519> 323 74<106 274 508 676> 343 54<274 508> 711.008 20G<2 294.599 487.401 780>
VStem: 263 256<0 481>
LayerCount: 2
Fore
SplineSet
676 203 m 5xc6
 106 203 l 5
 106 277 l 5
 676 277 l 5
 676 203 l 5xc6
676 323 m 1xd6
 106 323 l 1
 106 397 l 1
 676 397 l 1
 676 323 l 1xd6
274 343 m 1xce
 2 731.0078125 l 1
 284 731.0078125 l 1
 391 529.111328125 l 1
 498 731.0078125 l 1
 780 731.0078125 l 1
 508 343 l 1
 274 343 l 1xce
263 0 m 1
 263 481 l 1
 519 481 l 1xe6
 519 0 l 1
 263 0 l 1
EndSplineSet
Validated: 5
EndChar

StartChar: copyright
Encoding: 169 169 111
Width: 842
Flags: W
HStem: -10 149.8<325.504 536.47> 274.82 179.359<377.472 488.793> 589.2 149.8<325.504 535.526>
VStem: 35 165.785<262.181 460.435>
CounterMasks: 1 e0
LayerCount: 2
Fore
SplineSet
200.78515625 361.799804688 m 0
 200.78515625 230.400390625 288.985351562 139.799804688 432.385742188 139.799804688 c 0
 614.336914062 139.799804688 646.408203125 295.14453125 646.408203125 295.14453125 c 1
 514.252929688 335.205078125 l 1
 514.252929688 335.205078125 499.1328125 274.8203125 432.352539062 274.8203125 c 0
 382.5 274.8203125 351.837890625 309.232421875 351.837890625 363.649414062 c 0
 351.837890625 417.7109375 382.5 454.1796875 432.352539062 454.1796875 c 0
 501.817382812 454.1796875 509.77734375 391.206054688 509.77734375 391.206054688 c 1
 650.141601562 446.822265625 l 1
 650.141601562 446.822265625 608.499023438 589.200195312 432.385742188 589.200195312 c 0
 288.985351562 589.200195312 200.78515625 493.200195312 200.78515625 361.799804688 c 0
35 360 m 0
 35 579 182 739 421 739 c 0
 660 739 807 579 807 360 c 0
 807 141 660 -10 421 -10 c 0
 182 -10 35 141 35 360 c 0
EndSplineSet
Validated: 1
EndChar

StartChar: registered.ss01
Encoding: 65539 -1 112
Width: 378
Flags: W
HStem: 457.402 62.4795<111.228 171.08 218.12 277.19> 618.522 36<171.08 204.147> 695.322 61.6797<111.228 253.857>
VStem: 35 74.6406<523.038 688.827> 171.08 33.0723<618.926 654.034> 267.32 76.4805<560.712 682.475>
LayerCount: 2
Fore
SplineSet
109.640625 519.881835938 m 1
 171.080078125 519.881835938 l 1025
218.120117188 519.881835938 m 1025
35 605.40234375 m 0
 35 693.001953125 93.80078125 757.001953125 189.400390625 757.001953125 c 0
 285 757.001953125 343.80078125 693.001953125 343.80078125 605.40234375 c 0
 343.80078125 517.801757812 285 457.40234375 189.400390625 457.40234375 c 0
 93.80078125 457.40234375 35 517.801757812 35 605.40234375 c 0
171.080078125 575.08203125 m 1
 177.80078125 575.08203125 l 2
 180.228515625 575.08203125 182.6796875 575.165039062 185.143554688 575.329101562 c 1
 218.120117188 519.881835938 l 1
 291.560546875 519.881835938 l 1
 237.155273438 591.958984375 l 1
 254.850585938 603.448242188 267.3203125 620.63671875 267.3203125 643.001953125 c 0
 267.3203125 673.71484375 243.642578125 695.322265625 189.80078125 695.322265625 c 2
 109.640625 695.322265625 l 1
 109.640625 519.881835938 l 1
 171.080078125 519.881835938 l 1
 171.080078125 575.08203125 l 1
171.080078125 618.522460938 m 1
 171.080078125 654.522460938 l 1
 181.640625 654.522460938 l 2
 196.750976562 654.522460938 204.15234375 647.713867188 204.15234375 636.797851562 c 0
 204.15234375 625.438476562 197 618.522460938 181.640625 618.522460938 c 2
 171.080078125 618.522460938 l 1
EndSplineSet
EndChar

StartChar: registered
Encoding: 174 174 113
Width: 842
Flags: W
HStem: -10 156.2<277.939 375.2 492.8 564.061> 392.8 90<375.2 451.876> 584.8 154.2<277.939 535.802>
VStem: 35 186.6<226.912 494.192> 375.2 82.6797<399.768 475.975> 615.8 191.2<250.5 495.951>
LayerCount: 2
Fore
SplineSet
221.599609375 146.200195312 m 5
 375.200195312 146.200195312 l 1029
492.799804688 146.200195312 m 1029
35 360 m 4
 35 579 182 739 421 739 c 4
 660 739 807 579 807 360 c 4
 807 141 660 -10 421 -10 c 4
 182 -10 35 141 35 360 c 4
375.200195312 284.200195312 m 5
 392 284.200195312 l 6
 398.069415187 284.200195312 404.197698081 284.406725573 410.357008298 284.817782046 c 5
 492.799804688 146.200195312 l 5
 676.400390625 146.200195312 l 5
 540.388010641 326.391189281 l 5
 584.626556248 355.116448709 615.799804688 398.087210329 615.799804688 454 c 4
 615.799804688 530.782226562 556.606445312 584.799804688 422 584.799804688 c 6
 221.599609375 584.799804688 l 5
 221.599609375 146.200195312 l 5
 375.200195312 146.200195312 l 5
 375.200195312 284.200195312 l 5
375.200195312 392.799804688 m 5
 375.200195312 482.799804688 l 5
 401.599609375 482.799804688 l 6
 439.375976562 482.799804688 457.879882812 465.779296875 457.879882812 438.490234375 c 4
 457.879882812 410.090820312 440 392.799804688 401.599609375 392.799804688 c 6
 375.200195312 392.799804688 l 5
EndSplineSet
Validated: 3
Substitution2: "'ss01' Style Set 1 in Latin lookup 1-1" registered.ss01
EndChar

StartChar: uni2117
Encoding: 8471 8471 114
Width: 842
Flags: W
HStem: -10 156.2<277.939 397> 374.8 90<397 479.676> 584.8 154.2<277.939 554.792>
VStem: 35 208.4<226.912 494.192> 397 88.6797<381.958 458.165> 643.6 163.4<338.548 494.79>
LayerCount: 2
Fore
SplineSet
35 360 m 0
 35 579 182 739 421 739 c 0
 660 739 807 579 807 360 c 0
 807 141 660 -10 421 -10 c 0
 182 -10 35 141 35 360 c 0
397 266.200195312 m 5
 449.799804688 266.200195312 l 6
 583.1640625 266.200195312 643.599609375 327.299804688 643.599609375 422.200195312 c 4
 643.599609375 518.182617188 584.407226562 584.799804688 449.799804688 584.799804688 c 6
 243.400390625 584.799804688 l 5
 243.400390625 146.200195312 l 5
 397 146.200195312 l 5
 397 266.200195312 l 5
397 374.799804688 m 5
 397 464.799804688 l 5
 429.400390625 464.799804688 l 6
 467.17578125 464.799804688 485.6796875 448.379882812 485.6796875 421.08984375 c 4
 485.6796875 392.690429688 467.799804688 374.799804688 429.400390625 374.799804688 c 6
 397 374.799804688 l 5
EndSplineSet
Validated: 1
EndChar

StartChar: plusminus
Encoding: 177 177 115
Width: 500
Flags: W
HStem: 167 134<40 178 322 460> 265 36<178 322> 356 134<40 460>
VStem: 178 144<265 563>
LayerCount: 2
Fore
SplineSet
40 301 m 1xb0
 460 301 l 1
 460 167 l 1
 40 167 l 1
 40 301 l 1xb0
40 490 m 1
 460 490 l 1
 460 356 l 1
 40 356 l 1
 40 490 l 1
178 265 m 1x70
 178 563 l 1
 322 563 l 1
 322 265 l 1
 178 265 l 1x70
EndSplineSet
Validated: 5
EndChar

StartChar: macron
Encoding: 175 175 116
Width: 460
Flags: W
HStem: 577.008 154<40 420>
LayerCount: 2
Fore
SplineSet
40 731.0078125 m 1
 420 731.0078125 l 1
 420 577.0078125 l 5
 40 577.0078125 l 5
 40 731.0078125 l 1
EndSplineSet
Validated: 1
EndChar

StartChar: uni00AD
Encoding: 173 173 117
Width: 438
Flags: W
HStem: 202 214<40 398>
LayerCount: 2
Fore
SplineSet
40 416 m 5
 398 416 l 5
 398 202 l 5
 40 202 l 5
 40 416 l 5
EndSplineSet
Validated: 1
EndChar

StartChar: logicalnot
Encoding: 172 172 118
Width: 558
Flags: W
HStem: 294 172<40 330>
VStem: 330 188<132 294>
LayerCount: 2
Fore
SplineSet
518 466 m 5
 518 132 l 5
 330 132 l 5
 330 294 l 5
 40 294 l 1
 40 466 l 1
 518 466 l 5
EndSplineSet
Validated: 1
EndChar

StartChar: brokenbar
Encoding: 166 166 119
Width: 326
Flags: W
VStem: 60 206<-200 246.996 330.006 777.002>
LayerCount: 2
Fore
SplineSet
266 -200 m 5
 60 -200 l 5
 60 246.99609375 l 5
 266 246.99609375 l 5
 266 -200 l 5
266 330.005859375 m 5
 60 330.005859375 l 5
 60 777.001953125 l 5
 266 777.001953125 l 5
 266 330.005859375 l 5
EndSplineSet
Validated: 1
Substitution2: "'case' Case-Sensitive Forms in Latin lookup 0-1" brokenbar.case
EndChar

StartChar: dieresis
Encoding: 168 168 120
Width: 606
Flags: W
HStem: 562 169<60.1943 275.806 330.194 545.806>
VStem: 60 216<562.194 730.806> 330 216<562.194 730.806>
LayerCount: 2
Fore
SplineSet
355.200195312 562 m 30
 340.799804688 562 330 572.799804688 330 587.200195312 c 30
 330 705.799804688 l 30
 330 720.200195312 340.799804688 731 355.200195312 731 c 30
 520.799804688 731 l 30
 535.200195312 731 546 720.200195312 546 705.799804688 c 30
 546 587.200195312 l 30
 546 572.799804688 535.200195312 562 520.799804688 562 c 30
 355.200195312 562 l 30
85.2001953125 562 m 26
 70.7998046875 562 60 572.799804688 60 587.200195312 c 26
 60 705.799804688 l 26
 60 720.200195312 70.7998046875 731 85.2001953125 731 c 26
 250.799804688 731 l 26
 265.200195312 731 276 720.200195312 276 705.799804688 c 26
 276 587.200195312 l 26
 276 572.799804688 265.200195312 562 250.799804688 562 c 26
 85.2001953125 562 l 26
EndSplineSet
Validated: 1
EndChar

StartChar: section
Encoding: 167 167 121
Width: 537
Flags: W
HStem: -31.9941 123.2<176.484 292.736> 650.199 116.793<236.321 331.732>
VStem: 29.4004 164.6<292.903 412.437> 36.4004 196.6<543.935 645.559> 295.4 199.6<98.8549 208.741> 325.368 171.6<321.337 446.137>
LayerCount: 2
Fore
SplineSet
210.48046875 418.875976562 m 4xd4
 99 458 36.400390625 500.599609375 36.400390625 589.3984375 c 4
 36.400390625 674.244140625 95.599609375 766.9921875 268.400390625 766.9921875 c 4
 457.200195312 766.9921875 481.200195312 658.999023438 481.200195312 658.999023438 c 5
 351 594.598632812 l 21
 351 594.598632812 338.204101562 650.19921875 279.200195312 650.19921875 c 4
 252.624023438 650.19921875 233 637.732421875 233 617.19921875 c 4
 233 584.19921875 284.154296875 574.8515625 322.887695312 567.95703125 c 4
 435 548 496.967773438 486.233398438 496.967773438 406.040039062 c 4
 496.967773438 316.625976562 428.368164062 263.040039062 428.368164062 263.040039062 c 5
 291.368164062 303.040039062 l 5
 291.368164062 303.040039062 325.368164062 324 325.368164062 351 c 4
 325.368164062 398.633789062 261.77734375 400.873046875 210.48046875 418.875976562 c 4xd4
106 476 m 1
 223 436 l 1
 223 436 194 423.9765625 194 388.40625 c 0
 194 349 217 331 315.887695312 320.1640625 c 0
 411.830078125 309.651367188 495 261.842773438 495 154.805664062 c 0
 495 55.30859375 423.799804688 -31.994140625 235 -31.994140625 c 0
 46.2001953125 -31.994140625 15 108.005859375 15 108.005859375 c 25
 156.599609375 146.005859375 l 1
 156.599609375 146.005859375 162.200195312 91.2060546875 236.599609375 91.2060546875 c 0
 272.836914062 91.2060546875 295.400390625 101.8515625 295.400390625 125.805664062 c 0
 295.400390625 155.419921875 263.49364784 164.121061995 203.48046875 171.083007812 c 0
 88.80859375 184.385742188 29.400390625 252.806640625 29.400390625 333 c 0xe8
 29.400390625 422.4140625 106 476 106 476 c 1
EndSplineSet
EndChar

StartChar: guillemotleft
Encoding: 171 171 122
Width: 774
Flags: W
LayerCount: 2
Fore
SplineSet
342 291 m 5
 542 491 l 5
 772 491 l 5
 558.75 264 l 5
 772 37 l 5
 542 37 l 5
 342 237 l 5
 342 291 l 5
2 291 m 5
 202 491 l 5
 432 491 l 5
 218.75 264 l 5
 432 37 l 5
 202 37 l 5
 2 237 l 5
 2 291 l 5
EndSplineSet
Validated: 1
Substitution2: "'case' Case-Sensitive Forms in Latin lookup 0-1" guillemotleft.case
EndChar

StartChar: guillemotright
Encoding: 187 187 123
Width: 774
Flags: W
LayerCount: 2
Fore
SplineSet
432 291 m 5
 432 237 l 5
 232 37 l 5
 2 37 l 5
 215.25 264 l 5
 2 491 l 5
 232 491 l 5
 432 291 l 5
772 291 m 5
 772 237 l 5
 572 37 l 5
 342 37 l 5
 555.25 264 l 5
 342 491 l 5
 572 491 l 5
 772 291 l 5
EndSplineSet
Validated: 1
Substitution2: "'case' Case-Sensitive Forms in Latin lookup 0-1" guillemotright.case
EndChar

StartChar: guilsinglleft
Encoding: 8249 8249 124
Width: 434
Flags: W
LayerCount: 2
Fore
SplineSet
2 291 m 5
 202 491 l 5
 432 491 l 5
 218.75 264 l 5
 432 37 l 5
 202 37 l 5
 2 237 l 5
 2 291 l 5
EndSplineSet
Validated: 1
Substitution2: "'case' Case-Sensitive Forms in Latin lookup 0-1" guilsinglleft.case
EndChar

StartChar: guilsinglright
Encoding: 8250 8250 125
Width: 434
Flags: W
LayerCount: 2
Fore
SplineSet
432 291 m 5
 432 237 l 5
 232 37 l 5
 2 37 l 5
 215.25 264 l 5
 2 491 l 5
 232 491 l 5
 432 291 l 5
EndSplineSet
Validated: 1
Substitution2: "'case' Case-Sensitive Forms in Latin lookup 0-1" guilsinglright.case
EndChar

StartChar: guillemotleft.case
Encoding: 65540 -1 126
Width: 774
Flags: W
LayerCount: 2
Fore
SplineSet
342 391 m 5
 542 591 l 5
 772 591 l 5
 558.75 364 l 5
 772 137 l 5
 542 137 l 5
 342 337 l 5
 342 391 l 5
2 391 m 5
 202 591 l 5
 432 591 l 5
 218.75 364 l 5
 432 137 l 5
 202 137 l 5
 2 337 l 5
 2 391 l 5
EndSplineSet
Validated: 1
EndChar

StartChar: guillemotright.case
Encoding: 65541 -1 127
Width: 774
Flags: W
LayerCount: 2
Fore
SplineSet
432 391 m 5
 432 337 l 5
 232 137 l 5
 2 137 l 5
 215.25 364 l 5
 2 591 l 5
 232 591 l 5
 432 391 l 5
772 391 m 5
 772 337 l 5
 572 137 l 5
 342 137 l 5
 555.25 364 l 5
 342 591 l 5
 572 591 l 5
 772 391 l 5
EndSplineSet
Validated: 1
EndChar

StartChar: guilsinglleft.case
Encoding: 65542 -1 128
Width: 434
Flags: W
LayerCount: 2
Fore
SplineSet
2 391 m 5
 202 591 l 5
 432 591 l 5
 218.75 364 l 5
 432 137 l 5
 202 137 l 5
 2 337 l 5
 2 391 l 5
EndSplineSet
Validated: 1
EndChar

StartChar: guilsinglright.case
Encoding: 65543 -1 129
Width: 434
Flags: W
LayerCount: 2
Fore
SplineSet
432 391 m 5
 432 337 l 5
 232 137 l 5
 2 137 l 5
 215.25 364 l 5
 2 591 l 5
 232 591 l 5
 432 391 l 5
EndSplineSet
Validated: 1
EndChar

StartChar: mu
Encoding: 181 181 130
Width: 680
Flags: W
HStem: -179.992 21G<60 276.4> -10.002 188.13<291.729 391.625> 510 21.0098G<60 276.4 408 620.4>
VStem: 60 216.4<232.098 531.01> 204.7 71.7002<113.408 232.098> 408 212.4<228.298 530>
LayerCount: 2
Fore
SplineSet
620.400390625 -1.001953125 m 1xe4
 444 -1.001953125 l 1
 444 127.698242188 l 1
 408 228.297851562 l 1
 408 530 l 1
 620.400390625 530 l 1
 620.400390625 -1.001953125 l 1xe4
342.700195312 -10.001953125 m 0
 242.180664062 -10.001953125 204.700195312 113.408203125 204.700195312 232.09765625 c 1xec
 275.600585938 268.297851562 l 1
 275.600585938 201.482421875 296.7421875 178.127929688 342.000976562 178.127929688 c 0
 386.858398438 178.127929688 408 201.482421875 408 268.297851562 c 1
 497.900390625 232.09765625 l 1
 497.900390625 113.408203125 443.219726562 -10.001953125 342.700195312 -10.001953125 c 0
60 531.009765625 m 1xf4
 276.400390625 531.009765625 l 1xf4
 276.400390625 -179.990234375 l 1xec
 60 -179.9921875 l 1
 60 531.009765625 l 1xf4
EndSplineSet
Validated: 5
EndChar

StartChar: periodcentered
Encoding: 183 183 131
Width: 370
Flags: W
HStem: 170 250<60.6897 309.31>
VStem: 60 250<170.69 419.31>
LayerCount: 2
Fore
SplineSet
88 170 m 30
 72 170 60 182 60 198 c 30
 60 392 l 30
 60 408 72 420 88 420 c 30
 282 420 l 30
 298 420 310 408 310 392 c 30
 310 198 l 30
 310 182 298 170 282 170 c 30
 88 170 l 30
EndSplineSet
Validated: 1
EndChar

StartChar: degree
Encoding: 176 176 134
Width: 466
Flags: W
HStem: 364.492 127.463<189.923 276.077> 611.529 127.463<189.923 276.077>
VStem: 35 144.324<503.657 599.808> 286.676 144.324<503.657 599.808>
LayerCount: 2
Fore
SplineSet
179.32421875 551.174804688 m 4
 179.32421875 514.896484375 199.765625 491.955078125 233 491.955078125 c 4
 266.234375 491.955078125 286.67578125 514.896484375 286.67578125 551.174804688 c 4
 286.67578125 587.216796875 266.234375 611.529296875 233 611.529296875 c 4
 199.765625 611.529296875 179.32421875 587.216796875 179.32421875 551.174804688 c 4
35 549.4921875 m 4
 35 658.9921875 113.5 738.9921875 233 738.9921875 c 4
 352.5 738.9921875 431 658.9921875 431 549.4921875 c 4
 431 439.9921875 352.5 364.4921875 233 364.4921875 c 4
 113.5 364.4921875 35 439.9921875 35 549.4921875 c 4
EndSplineSet
Validated: 1
EndChar

StartChar: paragraph
Encoding: 182 182 135
Width: 762
Flags: W
HStem: -120 193<305.443 420.444> 711 20G<200.828 374 446 702>
VStem: 35 339<347.339 601.42> 446 256<101.4 731>
LayerCount: 2
Fore
SplineSet
446 161 m 2
 446 731 l 1
 702 731 l 1
 702 142 l 2
 702 -39 610 -120 361 -120 c 0
 63 -120 50 89 50 89 c 1
 272 158 l 1
 272 158 279.864257812 73 361 73 c 0
 427 73 446 113 446 161 c 2
374 731 m 1
 374 220 l 1
 298 220 l 2
 105.727539062 220 35 311.833007812 35 470 c 0
 35 629.970703125 103.655273438 731 298 731 c 2
 374 731 l 1
EndSplineSet
Validated: 1
EndChar

StartChar: ordfeminine
Encoding: 170 170 136
Width: 508
Flags: W
HStem: 353.608 129.591<147.693 286.039> 610.417 128.892<200.919 290.04>
VStem: 34.999 153.602<494.751 597.008> 302.239 146.04<508.295 585.267> 324.8 123.479<360.65 495.89> 324.8 65.7295<459.206 495.89>
LayerCount: 2
Fore
SplineSet
302.239257812 545.49609375 m 0xf0
 302.239257812 585.266601562 280.600585938 610.416992188 245.418945312 610.416992188 c 0
 210.23828125 610.416992188 188.600585938 585.266601562 188.600585938 545.49609375 c 0
 188.600585938 508.294921875 210.23828125 483.19921875 245.418945312 483.19921875 c 0
 280.600585938 483.19921875 302.239257812 508.294921875 302.239257812 545.49609375 c 0xf0
390.529296875 569.137695312 m 0xe4
 390.529296875 459.206054688 320.053710938 353.608398438 200.689453125 353.608398438 c 0
 95.0390625 353.608398438 34.9990234375 433.958984375 34.9990234375 543.9375 c 0
 34.9990234375 659.576171875 115.338867188 739.30859375 220.989257812 739.30859375 c 0
 340.353515625 739.30859375 390.529296875 652.564453125 390.529296875 569.137695312 c 0xe4
448.279296875 360.650390625 m 1xe8
 324.799804688 360.650390625 l 1
 324.799804688 444.440429688 l 1
 299.599609375 629.66015625 l 1
 433.299804688 732.3515625 l 1
 448.279296875 732.3515625 l 1
 448.279296875 360.650390625 l 1xe8
EndSplineSet
Validated: 5
EndChar

StartChar: ordmasculine
Encoding: 186 186 137
Width: 468
Flags: W
HStem: 353.65 131.69<189.572 278.588> 608.359 130.99<189.171 278.989>
VStem: 35 142.261<497.198 595.366> 290.898 142.261<497.198 595.366>
LayerCount: 2
Fore
SplineSet
177.260742188 548.162109375 m 0
 177.260742188 509.677734375 198.8984375 485.340820312 234.080078125 485.340820312 c 0
 269.260742188 485.340820312 290.8984375 509.677734375 290.8984375 548.162109375 c 0
 290.8984375 584.109375 269.260742188 608.359375 234.080078125 608.359375 c 0
 198.8984375 608.359375 177.260742188 584.109375 177.260742188 548.162109375 c 0
35 542.719726562 m 0
 35 656.33984375 110.815429688 739.349609375 234.080078125 739.349609375 c 0
 357.34375 739.349609375 433.159179688 656.33984375 433.159179688 542.719726562 c 0
 433.159179688 430.811523438 357.34375 353.650390625 234.080078125 353.650390625 c 0
 110.815429688 353.650390625 35 430.811523438 35 542.719726562 c 0
EndSplineSet
Validated: 1
EndChar

StartChar: asciitilde
Encoding: 126 126 138
Width: 570
Flags: W
HStem: 227 169<318.612 458.798> 291 165<106.615 260.406>
LayerCount: 2
Fore
SplineSet
60 325 m 6x40
 60 406 99.6337890625 456 189 456 c 4x40
 291 456 316 396 400 396 c 4
 453.3984375 396 482 426 482 426 c 5
 510 426 l 5
 510 385 l 6
 510 287 470.296875 227 388 227 c 4x80
 298 227 262 291 180 291 c 4
 114.6015625 291 88 257 88 257 c 5
 60 257 l 5
 60 325 l 6x40
EndSplineSet
Validated: 1
EndChar

StartChar: Thorn
Encoding: 222 222 139
Width: 762
Flags: W
HStem: 0 21G<60 316> 130 181<285 453.879> 421 200<290 454.292> 711 20G<60 316>
VStem: 60 256<0 130 311 421 621 731> 290 26<130 311 421 621> 463.8 263.2<325.08 408.564>
LayerCount: 2
Fore
SplineSet
60 0 m 1xfa
 60 731 l 1
 316 731 l 1
 316 0 l 1
 60 0 l 1xfa
290 421 m 1xf6
 290 621 l 1
 404 621 l 2
 628.344726562 621 727 529.970703125 727 370 c 0
 727 211.833007812 626.272460938 130 404 130 c 6
 285 130 l 5
 285 311 l 5
 370 311 l 6
 434 311 463.799804688 320.817382812 463.799804688 368.150390625 c 0
 463.799804688 413.6328125 432.959960938 421 370 421 c 2
 290 421 l 1xf6
EndSplineSet
Validated: 5
EndChar

StartChar: divide
Encoding: 247 247 140
Width: 500
Flags: W
HStem: 130 120<165.69 334.31> 297 134<40 460> 470 120<165.69 334.31>
VStem: 165 170<130.69 249.31 470.69 589.31>
LayerCount: 2
Fore
SplineSet
193 470 m 26
 177 470 165 482 165 498 c 26
 165 562 l 26
 165 578 177 590 193 590 c 26
 307 590 l 30
 323 590 335 578 335 562 c 30
 335 498 l 30
 335 482 323 470 307 470 c 30
 193 470 l 26
40 431 m 1
 460 431 l 1
 460 297 l 1
 40 297 l 1
 40 431 l 1
193 130 m 26
 177 130 165 142 165 158 c 26
 165 222 l 26
 165 238 177 250 193 250 c 26
 307 250 l 30
 323 250 335 238 335 222 c 30
 335 158 l 30
 335 142 323 130 307 130 c 30
 193 130 l 26
EndSplineSet
Validated: 1
EndChar

StartChar: multiply
Encoding: 215 215 141
Width: 500
Flags: W
LayerCount: 2
Fore
SplineSet
54.1318359375 262.883789062 m 5
 351.116210938 559.868164062 l 5
 445.868164062 465.116210938 l 5
 148.883789062 168.131835938 l 5
 54.1318359375 262.883789062 l 5
339.802734375 172.374023438 m 1
 58.3740234375 453.802734375 l 1
 160.197265625 555.625976562 l 1
 441.625976562 274.197265625 l 1
 339.802734375 172.374023438 l 1
EndSplineSet
Validated: 5
EndChar

StartChar: currency
Encoding: 164 164 142
Width: 647
Flags: W
HStem: 135.768 140.209<279.882 367.317> 407.508 140.209<279.882 367.317>
VStem: 105.8 158.757<289.728 393.704> 382.643 158.757<289.728 393.704>
LayerCount: 2
Fore
SplineSet
485.299804688 46.658203125 m 25
 401.69921875 227.05859375 l 25
 441.299804688 266.658203125 l 25
 627.19921875 178.658203125 l 25
 485.299804688 46.658203125 l 25
161.899414062 46.658203125 m 29
 20 178.658203125 l 29
 205.899414062 266.658203125 l 29
 245.5 227.05859375 l 29
 161.899414062 46.658203125 l 29
485.299804688 636.826171875 m 25
 627.19921875 504.826171875 l 25
 441.299804688 416.826171875 l 25
 401.69921875 456.42578125 l 25
 485.299804688 636.826171875 l 25
161.899414062 636.826171875 m 25
 245.5 456.42578125 l 25
 205.899414062 416.826171875 l 25
 20 504.826171875 l 25
 161.899414062 636.826171875 l 25
264.556640625 341.118164062 m 0
 264.556640625 301.211914062 287.041992188 275.9765625 323.599609375 275.9765625 c 0
 360.157226562 275.9765625 382.642578125 301.211914062 382.642578125 341.118164062 c 0
 382.642578125 380.764648438 360.157226562 407.5078125 323.599609375 407.5078125 c 0
 287.041992188 407.5078125 264.556640625 380.764648438 264.556640625 341.118164062 c 0
105.799804688 339.267578125 m 0
 105.799804688 459.716796875 192.149414062 547.716796875 323.599609375 547.716796875 c 0
 455.049804688 547.716796875 541.399414062 459.716796875 541.399414062 339.267578125 c 0
 541.399414062 218.817382812 455.049804688 135.767578125 323.599609375 135.767578125 c 0
 192.149414062 135.767578125 105.799804688 218.817382812 105.799804688 339.267578125 c 0
EndSplineSet
Validated: 5
EndChar

StartChar: cedilla
Encoding: 184 184 143
Width: 332
Flags: W
HStem: -234 91.7969<112.846 182.208> -73 103.403<106.2 182.666>
VStem: 184.6 113<-138.471 -76.5968>
LayerCount: 2
Fore
SplineSet
62.2001953125 -71.400390625 m 5
 106.200195312 30.4033203125 l 1
 220.400390625 30.4033203125 l 1
 195.984375 -23.7021484375 l 1
 253 -23.7021484375 297.599609375 -52.5927734375 297.599609375 -117 c 0
 297.599609375 -193.203125 245.799804688 -234 163 -234 c 0
 44.2001953125 -234 25 -151.203125 25 -151.203125 c 1
 106.200195312 -105.802734375 l 1
 106.200195312 -105.802734375 111.799804688 -142.203125 146.599609375 -142.203125 c 0
 170.200195312 -142.203125 184.599609375 -128.603515625 184.599609375 -108 c 0
 184.599609375 -86.228515625 171.057617188 -73 145 -73 c 0
 117.400390625 -73 105 -93.400390625 105 -93.400390625 c 1
 62.2001953125 -71.400390625 l 5
EndSplineSet
Validated: 1
EndChar

StartChar: AE
Encoding: 198 198 144
Width: 1174
Flags: W
HStem: 0 171<836 1134> 270 186<742 1128> 270 1<684 742> 551 180<836 1134>
VStem: 580 162<121 270> 684 152<271 456>
AnchorPoint: "Anchor-0" 630 731.008 basechar 0
AnchorPoint: "Anchor-2" 632 0 basechar 0
LayerCount: 2
Fore
SplineSet
684 270 m 1xb4
 684 456 l 1
 1128 456 l 1
 1128 270 l 1xd4
 684 270 l 1xb4
248 271 m 1xb8
 742 271 l 1
 742 121 l 1
 248 121 l 1
 248 271 l 1xb8
836 551 m 1x94
 836 171 l 1x94
 1134 171 l 1
 1134 0 l 1
 580 0 l 1
 580 442.806640625 l 1x98
 320 0 l 1
 -3 0 l 1
 572 731 l 1
 1134 731 l 1
 1134 551 l 1
 836 551 l 1x94
EndSplineSet
Validated: 5
EndChar

StartChar: eth
Encoding: 240 240 146
Width: 645
Flags: W
HStem: -10 185.13<264.089 374.856> 356.87 184.13<266.142 365.607> 718 20G<545.277 592.424> 737 20G<339.44 424.4>
VStem: 35 203.229<201.395 329.038> 400.57 212.229<201.916 328.291>
LayerCount: 2
Fore
SplineSet
586 738 m 25xec
 639 573 l 25
 417 518 l 25
 417 655 l 25
 586 738 l 25xec
238.229492188 267.875 m 0
 238.229492188 211.059570312 269.141601562 175.129882812 319.400390625 175.129882812 c 0
 369.658203125 175.129882812 400.5703125 211.059570312 400.5703125 267.875 c 0
 400.5703125 321.01953125 369.658203125 356.870117188 319.400390625 356.870117188 c 0
 269.141601562 356.870117188 238.229492188 321.01953125 238.229492188 267.875 c 0
35 260.099609375 m 0
 35 422.41410716 118.307617188 541 285 541 c 0
 345.322265625 541 365.67578125 525.435546875 365.67578125 525.435546875 c 1
 320 607 275.15234375 647.994140625 212 707 c 1
 424.400390625 757 l 1xdc
 424.400390625 757 612.799804688 535 612.799804688 290 c 0
 612.799804688 90.1845703125 495.455612764 -10 319.400390625 -10 c 0
 143.307617188 -10 35 100.230375714 35 260.099609375 c 0
EndSplineSet
Validated: 5
EndChar

StartChar: Eth
Encoding: 208 208 147
Width: 832
Flags: W
HStem: 0 201<336 469.814> 282 174<17 435> 521 210<336 479.326>
VStem: 80 256<201 521> 533.8 263.2<261.101 460.025>
AnchorPoint: "Anchor-2" 412 0 basechar 0
AnchorPoint: "Anchor-0" 407 731.008 basechar 0
LayerCount: 2
Fore
SplineSet
17 456 m 1
 435 456 l 1
 435 282 l 1
 17 282 l 1
 17 456 l 1
EndSplineSet
Refer: 10 68 N 1 0 0 1 20 0 2
Validated: 5
EndChar

StartChar: kgreenlandic
Encoding: 312 312 148
Width: 688
Flags: W
HStem: 0 21G<60 272.4 412.923 686> 511.011 20G<60 272.4 402.181 653>
VStem: 60 212.4<-0.00195312 531>
AnchorPoint: "Anchor-0" 341 531 basechar 0
AnchorPoint: "Anchor-2" 348 0 basechar 0
LayerCount: 2
Fore
SplineSet
427 0 m 1
 225 287 l 1
 418 531.010742188 l 1
 653 531.010742188 l 1
 454 307 l 1
 686 0 l 1
 427 0 l 1
60 531 m 1
 272.400390625 531 l 1
 272.400390625 -0.001953125 l 1
 60 -0.001953125 l 1
 60 531 l 1
EndSplineSet
Validated: 5
EndChar

StartChar: longs
Encoding: 383 383 149
Width: 382
Flags: W
HStem: 0 21G<60 272.4> 625.8 141.101<184.561 368.251>
VStem: 60 212.4<0 615.503>
AnchorPoint: "Anchor-0" 254 758.008 basechar 0
AnchorPoint: "Anchor-2" 205 0 basechar 0
LayerCount: 2
Fore
SplineSet
272.400390625 567.299804688 m 2
 272.400390625 0 l 1
 60 0 l 1
 60 592.700195312 l 2
 60 692 116.122070312 766.900390625 253 766.900390625 c 0
 372.100585938 766.900390625 408 719 408 719 c 1
 366 608 l 1
 366 608 352.623046875 625.799804688 323.700195312 625.799804688 c 0
 285.900390625 625.799804688 272.400390625 600 272.400390625 567.299804688 c 2
EndSplineSet
EndChar

StartChar: dcroat
Encoding: 273 273 151
Width: 715
Flags: W
HStem: -10 185.07<204.319 390.626> 0 21G<449 625.4> 356.811 184.189<196.235 370.457> 563 124<303 701> 737.002 20G<413 625.4>
VStem: 35 219.43<201.116 328.759> 413 212.4<210.921 320.881 332.85 757.002> 449 63.9004<109.332 171.15>
AnchorPoint: "Anchor-0" 527 758.008 basechar 0
AnchorPoint: "Anchor-2" 331 0 basechar 0
LayerCount: 2
Fore
SplineSet
303 687 m 5x3c
 701 687 l 5
 701 563 l 5
 303 563 l 5
 303 687 l 5x3c
EndSplineSet
Refer: 70 100 N 1 0 0 1 0 0 2
Validated: 5
EndChar

StartChar: Hbar
Encoding: 294 294 152
Width: 806
Flags: W
HStem: 0 21G<60 316 490 746> 202 214<227 585> 497 134<3 803> 711 20G<60 316 490 746>
VStem: 60 256<0 202 416 731> 227 89<202 416> 490 256<0 202 416 731> 490 95<202 416>
AnchorPoint: "Anchor-0" 404 731.008 basechar 0
LayerCount: 2
Fore
SplineSet
227 416 m 5xf5
 585 416 l 5
 585 202 l 5
 227 202 l 5
 227 416 l 5xf5
490 0 m 1xf2
 490 731 l 1
 746 731 l 1
 746 0 l 1
 490 0 l 1xf2
60 0 m 1xf8
 60 731 l 1
 316 731 l 1
 316 0 l 1
 60 0 l 1xf8
3 631 m 5
 803 631 l 5
 803 497 l 5
 3 497 l 5
 3 631 l 5
EndSplineSet
Validated: 5
EndChar

StartChar: hbar
Encoding: 295 295 153
Width: 720
Flags: W
HStem: 0 21G<100 312.4 440.971 660.4> 371.87 169.13<337.335 520.165> 563 124<23 421> 737 20G<100 312.4>
VStem: 100 212.4<-0.00195312 757> 222.5 89.9004<297.9 417.08> 440.971 219.43<0 354.44>
AnchorPoint: "Anchor-2" 374 0 basechar 0
AnchorPoint: "Anchor-0" 204 758.008 basechar 0
LayerCount: 2
Fore
SplineSet
23 687 m 1xf2
 421 687 l 1
 421 563 l 1
 23 563 l 1
 23 687 l 1xf2
EndSplineSet
Refer: 76 104 N 1 0 0 1 40 0 2
Validated: 5
EndChar

StartChar: Eng
Encoding: 330 330 154
Width: 803
Flags: W
HStem: -190 203<393.814 603.5> 0 21G<60 296> 731 0G<60 102.77 507 744>
VStem: 60 236<0 286> 507 237<27.3318 135.485 429 731>
LayerCount: 2
Fore
SplineSet
60 0 m 1x78
 60 751 l 1
 76 751 l 1
 507 429 l 1
 507 731 l 1
 744 731 l 1
 744 52 l 2
 744 -129 683 -190 524 -190 c 0xb8
 425 -190 379 -161 379 -161 c 1
 385 21 l 1x78
 385 21 408.864257812 13 441 13 c 0xb8
 483 13 508 30 508 78 c 2
 508 135.484918794 l 1
 296 286 l 1
 296 0 l 1
 60 0 l 1x78
EndSplineSet
Validated: 1
EndChar

StartChar: eng
Encoding: 331 331 155
Width: 680
Flags: W
HStem: -189.9 161.101<295.267 490.639> -0.00195312 21G<60 272.4> 371.87 168.13<297.335 480.165> 511 20G<60 236.4>
VStem: 60 176.4<402.3 531> 182.5 89.9004<297.9 348.516> 400.8 219.601<-16.7647 354.193>
LayerCount: 2
Fore
SplineSet
60 531 m 1xda
 236.400390625 531 l 1
 236.400390625 402.299804688 l 1xda
 272.400390625 321.700195312 l 1
 272.400390625 -0.001953125 l 1xd6
 60 -0.001953125 l 1
 60 531 l 1xda
620.400390625 26.2998046875 m 6
 620.400390625 -137 559.078125 -189.900390625 422.200195312 -189.900390625 c 4
 333.099609375 -189.900390625 285.700195312 -163.799804688 285.700195312 -163.799804688 c 5
 291.099609375 -21.599609375 l 5
 291.099609375 -21.599609375 312.577148438 -28.7998046875 341.5 -28.7998046875 c 4
 379.299804688 -28.7998046875 400.799804688 -14 400.799804688 29.7001953125 c 6
 400.799804688 295.675267596 l 6
 398.926004338 346.180645885 381.448840303 371.870117188 338.80078125 371.870117188 c 4
 293.541992188 371.870117188 272.400390625 348.515625 272.400390625 281.700195312 c 5
 182.5 297.900390625 l 5
 182.5 416.589994423 234.180664062 540 404.700195312 540 c 4xe6
 555.629882812 540 620.400390625 446.781094078 620.400390625 293 c 6
 620.400390625 26.2998046875 l 6
EndSplineSet
Validated: 5
EndChar

StartChar: OE
Encoding: 338 338 156
Width: 1021
Flags: W
HStem: 0 171<362.186 450 706 981> 100 71<450 706> 270 186<601 975> 551 180<361.814 450 706 981> 551 60<450 706>
VStem: 35 263.2<235.957 485.138> 450 256<100 270 456 611> 601 105<270 456>
AnchorPoint: "Anchor-0" 510 731.008 basechar 0
AnchorPoint: "Anchor-2" 512 0 basechar 0
LayerCount: 2
Fore
SplineSet
450 100 m 1x6e
 450 611 l 1
 706 611 l 1
 706 100 l 1
 450 100 l 1x6e
601 270 m 1x25
 601 456 l 1
 975 456 l 1
 975 270 l 1
 601 270 l 1x25
408 731 m 2xb4
 981 731 l 1
 981 551 l 1
 427 551 l 2
 344.78125 551 298.200195312 498.962890625 298.200195312 363.150390625 c 0
 298.200195312 226.774414062 343.453125 171 427 171 c 2
 981 171 l 1
 981 0 l 1
 408 0 l 2
 155.412109375 0 35 141 35 360 c 0
 35 579 153.158203125 730.806640625 408 731 c 2xb4
EndSplineSet
Validated: 5
EndChar

StartChar: Tbar
Encoding: 358 358 158
Width: 712
Flags: W
HStem: 0 21G<228 484> 222 184<127 585> 528 203<40 171.6 540.4 672>
VStem: 228 256<0 538>
AnchorPoint: "Anchor-2" 358 0 basechar 0
AnchorPoint: "Anchor-0" 360 731.008 basechar 0
LayerCount: 2
Fore
SplineSet
127 406 m 1
 585 406 l 1
 585 222 l 1
 127 222 l 1
 127 406 l 1
EndSplineSet
Refer: 23 84 N 1 0 0 1 0 0 2
Validated: 5
EndChar

StartChar: tbar
Encoding: 359 359 159
Width: 498
Flags: W
HStem: -10 171.101<235.561 426.089> 217 124<50 428> 377.9 153<45 439>
VStem: 106 212.4<174.884 622.9>
AnchorPoint: "Anchor-2" 284 0 basechar 0
AnchorPoint: "Anchor-0" 217 662.008 basechar 0
LayerCount: 2
Fore
SplineSet
50 341 m 1
 428 341 l 1
 428 217 l 1
 50 217 l 1
 50 341 l 1
EndSplineSet
Refer: 86 116 N 1 0 0 1 0 0 2
Validated: 5
EndChar

StartChar: Oslash
Encoding: 216 216 160
Width: 842
Flags: W
HStem: -10 225.033<345.327 496.673> 513.967 225.033<346.692 495.308>
VStem: 35 251.811<278.804 449.514> 555.189 251.811<278.804 449.514>
AnchorPoint: "Anchor-3" 471 0 basechar 0
AnchorPoint: "Anchor-0" 420 731.008 basechar 0
AnchorPoint: "Anchor-2" 422 0 basechar 0
LayerCount: 2
Fore
SplineSet
148.899414062 -72.341796875 m 25
 7 59.658203125 l 25
 192.899414062 147.658203125 l 25
 232.5 108.05859375 l 25
 148.899414062 -72.341796875 l 25
695.299804688 787.826171875 m 25
 837.19921875 655.826171875 l 25
 651.299804688 567.826171875 l 25
 611.69921875 607.42578125 l 25
 695.299804688 787.826171875 l 25
EndSplineSet
Refer: 1 79 N 1 0 0 1 0 0 2
Validated: 5
EndChar

StartChar: oslash
Encoding: 248 248 161
Width: 638
Flags: W
HStem: -10 188.13<263.387 375.413> 353.87 187.13<263.387 375.413>
VStem: 35 203.229<202.49 327.952> 400.57 203.229<202.49 327.952>
AnchorPoint: "Anchor-3" 359 0 basechar 0
AnchorPoint: "Anchor-0" 321 531 basechar 0
AnchorPoint: "Anchor-2" 321 0 basechar 0
LayerCount: 2
Fore
SplineSet
148.899414062 -59.341796875 m 25
 7 72.658203125 l 25
 192.899414062 160.658203125 l 25
 232.5 121.05859375 l 25
 148.899414062 -59.341796875 l 25
491.299804688 580.826171875 m 25
 633.19921875 448.826171875 l 25
 447.299804688 360.826171875 l 25
 407.69921875 400.42578125 l 25
 491.299804688 580.826171875 l 25
EndSplineSet
Refer: 68 111 N 1 0 0 1 0 0 2
Validated: 5
EndChar

StartChar: a.ss01
Encoding: 65544 -1 162
Width: 645
Flags: W
HStem: -10 148.07<177.521 360.373> 0 21G<409 585.4> 223.811 103.189<175.8 369.31> 394.4 146.793<232.72 353.759>
VStem: 35 200.43<146.277 213.081> 373 212.4<149.808 211.377 212.017 375.027> 409 63.9004<88.9421 141.983>
AnchorPoint: "Anchor-2" 300 0 basechar 0
AnchorPoint: "Anchor-3" 457 0 basechar 0
AnchorPoint: "Anchor-0" 326 531 basechar 0
LayerCount: 2
Fore
SplineSet
377.770507812 179.065429688 m 4xb8
 377.770507812 211.376953125 350.666992188 223.810546875 306.599609375 223.810546875 c 4
 262.533203125 223.810546875 235.4296875 211.376953125 235.4296875 179.065429688 c 4
 235.4296875 149.807617188 262.533203125 138.0703125 306.599609375 138.0703125 c 4
 350.666992188 138.0703125 377.770507812 149.807617188 377.770507812 179.065429688 c 4xb8
373 321.400390625 m 2x7c
 373 371.537109375 346.216007001 394.400390625 293.799804688 394.400390625 c 0
 229.496410556 394.400390625 211 348.799804688 211 348.799804688 c 1
 60.7998046875 413.200195312 l 1
 60.7998046875 413.200195312 105.941461897 541.193359375 314.599609375 541.193359375 c 0
 516.473763167 541.193359375 585.400390625 457 585.400390625 337 c 2
 585.400390625 0 l 1x7c
 409 0 l 1
 409 119.700195312 l 1x7a
 373 234.299804688 l 1
 373 321.400390625 l 2x7c
472.900390625 184.099609375 m 0xba
 472.900390625 88.9420591686 411.219726562 -10 240.700195312 -10 c 0
 114.341865976 -10 35 59.4193667795 35 160.099609375 c 0
 35 256.540746478 109.899729987 327 241.700195312 327 c 0
 405.15009998 327 472.900390625 256.986693292 472.900390625 184.099609375 c 0xba
EndSplineSet
Validated: 5
EndChar

StartChar: ae
Encoding: 230 230 163
Width: 984
Flags: W
HStem: -10 148.07<177.521 372.223> -10 167.13<621.159 742.757> 216 109<517 757.644> 223.811 103.189<175.8 370.188> 383.87 157.13<621.55 733.942> 394.4 146.793<229.432 353.977>
VStem: 35 200.43<146.277 213.081> 373 142.4<149.808 211.377 212.017 375.027> 377.771 145.13<119.375 256.987> 517 71.2295<216 325>
AnchorPoint: "Anchor-0" 491 531 basechar 0
AnchorPoint: "Anchor-2" 491 0 basechar 0
LayerCount: 2
Fore
SplineSet
377.770507812 179.065429688 m 4x9280
 377.770507812 211.376953125 350.666992188 223.810546875 306.599609375 223.810546875 c 4
 262.533203125 223.810546875 235.4296875 211.376953125 235.4296875 179.065429688 c 4
 235.4296875 149.807617188 262.533203125 138.0703125 306.599609375 138.0703125 c 4
 350.666992188 138.0703125 377.770507812 149.807617188 377.770507812 179.065429688 c 4x9280
373 321.400390625 m 6x07
 373 371.537109375 346.216007001 394.400390625 293.799804688 394.400390625 c 4
 229.496410556 394.400390625 211 348.799804688 211 348.799804688 c 5
 60.7998046875 413.200195312 l 5
 60.7998046875 413.200195312 102.384196968 541.193359375 294.599609375 541.193359375 c 4
 459.200208626 541.193359375 515.400390625 457 515.400390625 337 c 6
 515.400390625 100 l 5
 409 100 l 5
 409 119.700195312 l 5
 373 234.299804688 l 5
 373 321.400390625 l 6x07
522.900390625 184.099609375 m 4x9280
 522.900390625 88.9420591686 447.937940993 -10 240.700195312 -10 c 4
 114.341865976 -10 35 59.4193667795 35 160.099609375 c 4
 35 256.540746478 109.899729987 327 241.700195312 327 c 4
 440.498232893 327 522.900390625 256.986693292 522.900390625 184.099609375 c 4x9280
EndSplineSet
Refer: 62 101 N 1 0 0 1 360 0 2
EndChar

StartChar: uni018F
Encoding: 399 399 164
Width: 842
Flags: W
HStem: -10 205.361<345.453 487.844> 279.992 148.2<295.545 644.482> 513.823 225.169<341.26 492.261>
VStem: 551.884 92.5986<279.992 428.192>
AnchorPoint: "Anchor-0" 420 731.008 basechar 0
AnchorPoint: "Anchor-2" 422 0 basechar 0
LayerCount: 2
Back
SplineSet
35 360.129882812 m 0
 35 578.048810039 182.25854244 738.9921875 421 738.9921875 c 0
 681.555487225 738.9921875 805.58203125 552.424439129 805.58203125 378.416992188 c 0
 805.58203125 321.666015625 797.599609375 300.799804688 797.599609375 300.799804688 c 1
 196.099609375 300.799804688 l 1
 196.099609375 449 l 1
 545.037109375 449 l 1
 545.037109375 449 523.80608197 533.630859375 426.220703125 533.630859375 c 4
 330.905056977 533.630859375 288.698242188 463.355095926 288.698242188 368.637695312 c 0
 288.698242188 287.09091907 326.758170768 215.168945312 425.099609375 215.168945312 c 0
 504.52734375 215.168945312 536.845703125 274.052734375 536.845703125 274.052734375 c 1
 747.5 142.900390625 l 1
 747.5 142.900390625 662.35350339 -10 427.220703125 -10 c 0
 179.368423049 -10 35 141.053904872 35 360.129882812 c 0
EndSplineSet
Fore
SplineSet
805.58203125 368.862304688 m 0
 805.58203125 150.943359375 658.323242188 -10 419.58203125 -10 c 0
 159.026367188 -10 35 176.567382812 35 350.575195312 c 0
 35 407.326171875 42.982421875 428.192382812 42.982421875 428.192382812 c 1
 644.482421875 428.192382812 l 1
 644.482421875 279.9921875 l 1
 295.544921875 279.9921875 l 1
 295.544921875 279.9921875 316.776197823 195.361328125 414.361328125 195.361328125 c 4
 509.677201898 195.361328125 551.883789062 265.63725312 551.883789062 360.354492188 c 0
 551.883789062 441.901479712 513.82421875 513.823242188 415.482421875 513.823242188 c 0
 336.0546875 513.823242188 303.736328125 454.939453125 303.736328125 454.939453125 c 1
 93.08203125 586.091796875 l 1
 93.08203125 586.091796875 178.228122854 738.9921875 413.361328125 738.9921875 c 0
 661.213867188 738.9921875 805.58203125 587.938476562 805.58203125 368.862304688 c 0
EndSplineSet
EndChar

StartChar: tilde
Encoding: 732 732 166
Width: 550
Flags: W
HStem: 530.002 149<305.724 443.153> 594.002 145<106.615 253.637>
LayerCount: 2
Fore
SplineSet
60 608.001953125 m 2x40
 60 689.001953125 99.6337890625 739.001953125 189 739.001953125 c 0x40
 291 739.001953125 296 679.001953125 380 679.001953125 c 0
 433.3984375 679.001953125 462 709.001953125 462 709.001953125 c 1
 490 709.001953125 l 1
 490 678.001953125 l 6
 490 580.001953125 450.296875 530.001953125 368 530.001953125 c 4x80
 278 530.001953125 262 594.001953125 180 594.001953125 c 4
 114.6015625 594.001953125 88 560.001953125 88 560.001953125 c 5
 60 560.001953125 l 5
 60 608.001953125 l 2x40
EndSplineSet
Validated: 1
EndChar

StartChar: breve
Encoding: 728 728 167
Width: 550
Flags: W
HStem: 512.002 153<157.2 393.273> 711.002 20G<60.2861 88.2861 462 490>
LayerCount: 2
Fore
SplineSet
275.142578125 665.001953125 m 0
 419 665.001953125 462 731.001953125 462 731.001953125 c 1
 490 731.001953125 l 1
 490 680.001953125 l 2
 490 582.001953125 417.583007812 512.001953125 275.286132812 512.001953125 c 4
 132.989257812 512.001953125 60.2861328125 582.001953125 60.2861328125 680.001953125 c 2
 60.2861328125 731.001953125 l 1
 88.2861328125 731.001953125 l 1
 88.2861328125 731.001953125 131.649414062 665.001953125 275.142578125 665.001953125 c 0
EndSplineSet
Validated: 1
EndChar

StartChar: dotaccent
Encoding: 729 729 168
Width: 336
Flags: W
HStem: 562 169<60.1943 275.806>
VStem: 60 216<562.194 730.806>
LayerCount: 2
Fore
SplineSet
85.2001953125 562 m 26
 70.7998046875 562 60 572.799804688 60 587.200195312 c 26
 60 705.799804688 l 26
 60 720.200195312 70.7998046875 731 85.2001953125 731 c 26
 250.799804688 731 l 26
 265.200195312 731 276 720.200195312 276 705.799804688 c 26
 276 587.200195312 l 26
 276 572.799804688 265.200195312 562 250.799804688 562 c 26
 85.2001953125 562 l 26
EndSplineSet
Validated: 1
EndChar

StartChar: ring
Encoding: 730 730 169
Width: 386
Flags: W
HStem: 444.492 107.463<157.808 228.192> 631.529 107.463<158.002 227.998>
VStem: 35 118.324<557.02 627.994> 232.676 118.324<557.02 627.994>
LayerCount: 2
Fore
SplineSet
153.32421875 591.174804688 m 0
 153.32421875 567.148591035 168.433989748 551.955078125 193 551.955078125 c 0
 217.566010252 551.955078125 232.67578125 567.148591035 232.67578125 591.174804688 c 0
 232.67578125 615.273363708 217.566010252 631.529296875 193 631.529296875 c 0
 168.433989748 631.529296875 153.32421875 615.273363708 153.32421875 591.174804688 c 0
35 589.4921875 m 0
 35 675.878731036 97.6414141414 738.9921875 193 738.9921875 c 0
 288.358585859 738.9921875 351 675.878731036 351 589.4921875 c 0
 351 503.667863176 288.358585859 444.4921875 193 444.4921875 c 0
 97.6414141414 444.4921875 35 503.667863176 35 589.4921875 c 0
EndSplineSet
Validated: 1
EndChar

StartChar: ogonek
Encoding: 731 731 170
Width: 335
Flags: W
HStem: -234 94.7969<155.967 222.753>
VStem: 35 118<-135.828 -61.8689>
LayerCount: 2
Fore
SplineSet
269.399414062 30.4033203125 m 5
 269.399414062 30.4033203125 153 -44 153 -107.203125 c 0
 153 -125.603515625 165.399414062 -139.203125 189 -139.203125 c 0
 223.799804688 -139.203125 229.399414062 -102.802734375 229.399414062 -102.802734375 c 1
 310.599609375 -151.203125 l 1
 310.599609375 -151.203125 291.399414062 -234 172.599609375 -234 c 0
 89.7998046875 -234 35 -195.203125 35 -128.400390625 c 0
 35 -37.603515625 155.19921875 30.4033203125 155.19921875 30.4033203125 c 5
 269.399414062 30.4033203125 l 5
EndSplineSet
Validated: 1
EndChar

StartChar: hungarumlaut
Encoding: 733 733 171
Width: 564
Flags: W
HStem: 510 221
LayerCount: 2
Fore
SplineSet
272 510 m 5
 336.44140625 731 l 5
 562.44140625 731 l 5
 292.44140625 510 l 5
 272 510 l 5
2 510 m 5
 66.44140625 731 l 5
 292.44140625 731 l 5
 22.44140625 510 l 5
 2 510 l 5
EndSplineSet
Validated: 1
EndChar

StartChar: circumflex
Encoding: 710 710 172
Width: 414
Flags: W
HStem: 530 221
LayerCount: 2
Fore
SplineSet
217.44140625 751 m 1
 417.44140625 530 l 1
 261.44140625 530 l 5
 207.220703125 611 l 1
 153 530 l 1
 -3 530 l 1
 197 751 l 1
 217.44140625 751 l 1
EndSplineSet
Validated: 1
EndChar

StartChar: caron
Encoding: 711 711 173
Width: 414
Flags: W
HStem: 510 221
LayerCount: 2
Fore
SplineSet
197 510 m 1
 -3 731 l 1
 153 731 l 1
 207.220703125 650 l 1
 261.44140625 731 l 1
 417.44140625 731 l 1
 217.44140625 510 l 1
 197 510 l 1
EndSplineSet
Validated: 1
EndChar

StartChar: uni02C9
Encoding: 713 713 174
Width: 460
Flags: W
HStem: 577.008 154<40 420>
LayerCount: 2
Fore
SplineSet
40 731.0078125 m 1
 420 731.0078125 l 1
 420 577.0078125 l 5
 40 577.0078125 l 5
 40 731.0078125 l 1
EndSplineSet
Validated: 1
EndChar

StartChar: Lslash
Encoding: 321 321 238
Width: 694
Flags: W
HStem: 0 198<356 654> 711 20G<100 356>
VStem: 100 256<198 731>
LayerCount: 2
Fore
SplineSet
40 466 m 1
 468 606 l 1
 468 442 l 5
 40 302 l 5
 40 466 l 1
EndSplineSet
Refer: 8 76 N 1 0 0 1 40 0 2
Validated: 5
EndChar

StartChar: lslash
Encoding: 322 322 239
Width: 448
Flags: W
HStem: 0 21G<110 322.4> 737 20G<110 322.4>
VStem: 110 212.4<0 757>
LayerCount: 2
Fore
SplineSet
40 456 m 1
 408 576 l 1
 408 422 l 5
 40 302 l 5
 40 456 l 1
EndSplineSet
Refer: 80 108 N 1 0 0 1 50 0 2
Validated: 5
EndChar

StartChar: endash
Encoding: 8211 8211 308
Width: 650
Flags: W
HStem: 202 214<40 610>
LayerCount: 2
Fore
SplineSet
40 202 m 5
 40 416 l 5
 610 416 l 5
 610 202 l 5
 40 202 l 5
EndSplineSet
Validated: 1
Substitution2: "'case' Case-Sensitive Forms in Latin lookup 0-1" endash.case
EndChar

StartChar: emdash
Encoding: 8212 8212 309
Width: 1050
Flags: W
HStem: 202 214<40 1010>
LayerCount: 2
Fore
SplineSet
40 202 m 5
 40 416 l 5
 1010 416 l 5
 1010 202 l 5
 40 202 l 5
EndSplineSet
Validated: 1
Substitution2: "'case' Case-Sensitive Forms in Latin lookup 0-1" emdash.case
EndChar

StartChar: dcaron
Encoding: 271 271 358
Width: 746
Flags: W
HStem: -10 185.07<204.319 390.626> 0 21G<449 625.4> 356.811 184.189<196.235 370.457> 737 20G<710 830> 737.002 20G<413 625.4>
VStem: 35 219.43<201.116 328.759> 413 212.4<210.921 320.881 332.85 757.002> 449 63.9004<109.332 171.15>
LayerCount: 2
Fore
SplineSet
830 729 m 5x34
 718 567 l 5
 690 567 l 5
 690 729 l 6
 690 745 702 757 718 757 c 6
 830 757 l 5
 830 729 l 5x34
EndSplineSet
Refer: 70 100 N 1 0 0 1 0 0 2
Validated: 5
EndChar

StartChar: tcaron
Encoding: 357 357 360
Width: 470
Flags: W
HStem: -10 171.101<235.561 426.089> 377.9 153<45 439>
VStem: 106 212.4<174.884 622.9>
LayerCount: 2
Fore
SplineSet
510 749 m 1
 398 567 l 1
 370 567 l 1
 370 749 l 2
 370 765 382 777 398 777 c 2
 510 777 l 1
 510 749 l 1
EndSplineSet
Refer: 86 116 N 1 0 0 1 0 0 2
Validated: 5
EndChar

StartChar: Euro
Encoding: 8364 8364 377
Width: 893
Flags: W
HStem: -10 225.033<430.299 584.383> 269 74<41 505> 389 74<41 531> 513.967 225.033<431.664 582.031>
LayerCount: 2
Fore
SplineSet
120 360 m 4
 120 579 267 739 506 739 c 4
 799.5234375 739 868.926757812 501.703125 868.926757812 501.703125 c 5
 634.987304688 409.009765625 l 5
 634.987304688 409.009765625 621.720703125 513.966796875 505.9453125 513.966796875 c 4
 422.858398438 513.966796875 371.754882812 453.185546875 371.754882812 363.083007812 c 4
 371.754882812 272.387695312 422.858398438 215.033203125 505.9453125 215.033203125 c 4
 617.245117188 215.033203125 642.4453125 315.674804688 642.4453125 315.674804688 c 5
 862.705078125 248.907226562 l 5
 862.705078125 248.907226562 809.252929688 -10 506 -10 c 4
 267 -10 120 141 120 360 c 4
505 269 m 1
 41 269 l 1
 41 343 l 1
 525 343 l 1
 505 269 l 1
531 389 m 1
 41 389 l 1
 41 463 l 1
 551 463 l 1
 531 389 l 1
EndSplineSet
EndChar

StartChar: uni0326
Encoding: 806 806 388
Width: 0
Flags: W
HStem: -320 300<0.689667 28>
VStem: 0 220<-320 -292.69>
AnchorPoint: "Anchor-2" 111 42 mark 0
LayerCount: 2
Fore
SplineSet
220 -48 m 1
 28 -320 l 1
 0 -320 l 1
 0 -48 l 2
 0 -32 12 -20 28 -20 c 2
 220 -20 l 1
 220 -48 l 1
EndSplineSet
Validated: 1
EndChar

StartChar: uni0123
Encoding: 291 291 398
Width: 683
Flags: W
HStem: -189.9 148.101<255.467 387.585> 30.9404 174.13<194.349 382.399> 366.811 174.13<200.538 380.137> 510.94 20G<563.469 623.514>
VStem: 33.1133 218.43<227.516 344.662> 403.884 219.63<236.893 334.755> 411.113 212.4<-18.4858 60.9385 137.641 198.813>
LayerCount: 2
Fore
SplineSet
231 750 m 5xc8
 231 778 l 5
 423 778 l 6
 439 778 451 766 451 750 c 6
 451 584 l 5
 423 584 l 5
 231 750 l 5xc8
EndSplineSet
Refer: 83 103 N 1 0 0 1 0 0 2
Validated: 5
EndChar

StartChar: Lcaron
Encoding: 317 317 401
Width: 654
Flags: W
HStem: 0 198<316 614> 711 20G<60 316> 718.992 20G<414 614>
VStem: 60 256<198 731>
LayerCount: 2
Fore
SplineSet
614 710.9921875 m 5xb0
 422 454.9921875 l 5
 394 454.9921875 l 5
 394 710.9921875 l 6
 394 726.9921875 406 738.9921875 422 738.9921875 c 6
 614 738.9921875 l 5
 614 710.9921875 l 5xb0
EndSplineSet
Refer: 8 76 N 1 0 0 1 0 0 2
Validated: 1
EndChar

StartChar: lcaron
Encoding: 318 318 402
Width: 394
Flags: W
HStem: 0 21G<60 272.4> 737 20G<60 272.4 358 478>
VStem: 60 212.4<0 757>
LayerCount: 2
Fore
SplineSet
478 729 m 1
 366 567 l 1
 338 567 l 1
 338 729 l 2
 338 745 350 757 366 757 c 2
 478 757 l 1
 478 729 l 1
EndSplineSet
Refer: 80 108 N 1 0 0 1 0 0 2
Validated: 1
EndChar

StartChar: uni030F
Encoding: 783 783 405
Width: 0
Flags: W
HStem: 510 221
AnchorPoint: "Anchor-0" 424 469 mark 0
LayerCount: 2
Fore
SplineSet
290.44140625 510 m 1
 270 510 l 1
 0 731 l 1
 226 731 l 1
 290.44140625 510 l 1
560.44140625 510 m 1
 540 510 l 1
 270 731 l 1
 496 731 l 1
 560.44140625 510 l 1
EndSplineSet
Validated: 1
EndChar

StartChar: dagger
Encoding: 8224 8224 443
Width: 618
Flags: W
HStem: -179.994 21G<202.8 415.2> 516 20G<40 220.667 400 578> 737 20G<212.8 405.2>
LayerCount: 2
Fore
SplineSet
40 536 m 5
 311 506 l 5
 578 536 l 5
 578 332 l 5
 309 382 l 5
 40 332 l 5
 40 536 l 5
202.799804688 -179.994140625 m 5
 232.799804688 409 l 5
 212.799804688 757 l 5
 405.200195312 757 l 5
 385.200195312 409 l 5
 415.200195312 -179.994140625 l 5
 202.799804688 -179.994140625 l 5
EndSplineSet
Validated: 5
EndChar

StartChar: daggerdbl
Encoding: 8225 8225 444
Width: 618
Flags: W
HStem: -179.994 21G<202.8 415.2> 737 20G<212.8 405.2>
VStem: 40 192.8<179.568 289 429 543.8> 232.8 152.4<179.568 543.8> 385.2 192.8<179.568 289 429 543.8>
LayerCount: 2
Fore
SplineSet
40 326 m 5xe8
 311 296 l 5
 578 326 l 5
 578 122 l 5
 309 172 l 5
 40 122 l 5
 40 326 l 5xe8
40 586 m 5
 311 556 l 5
 578 586 l 5
 578 382 l 5
 309 432 l 5
 40 382 l 5
 40 586 l 5
202.799804688 -179.994140625 m 1
 232.799804688 289 l 5
 232.799804688 429 l 5xe0
 212.799804688 757 l 1
 405.200195312 757 l 1
 385.200195312 429 l 5
 385.200195312 289 l 5xd0
 415.200195312 -179.994140625 l 1
 202.799804688 -179.994140625 l 1
EndSplineSet
Validated: 5
EndChar

StartChar: perthousand
Encoding: 8240 8240 445
Width: 1179
Flags: W
HStem: -9.99805 134.937<637.624 714.422 907.578 984.376> 0 21G<176 294.558> 229.565 134.937<637.922 714.124 907.876 984.078> 364.492 134.937<194.351 271.649> 604.056 134.937<194.649 271.351> 711.008 20G<622.442 741>
VStem: 40 146.034<508.154 595.379> 279.967 146.033<508.154 595.379> 483 146.034<133.664 220.889> 773 76<65.502 284.502> 992.967 146.033<133.664 220.889>
LayerCount: 2
Fore
SplineSet
899.034179688 176.755859375 m 0xa3e0
 899.034179688 145.012695312 916.919921875 124.938476562 946 124.938476562 c 0
 975.080078125 124.938476562 992.966796875 145.012695312 992.966796875 176.755859375 c 0
 992.966796875 208.291992188 975.080078125 229.565429688 946 229.565429688 c 0
 916.919921875 229.565429688 899.034179688 208.291992188 899.034179688 176.755859375 c 0xa3e0
773 175.001953125 m 0
 773 284.501953125 836.5 364.501953125 956 364.501953125 c 0
 1075.5 364.501953125 1139 284.501953125 1139 175.001953125 c 0
 1139 65.501953125 1075.5 -9.998046875 956 -9.998046875 c 0
 836.5 -9.998046875 773 65.501953125 773 175.001953125 c 0
629.034179688 176.755859375 m 0
 629.034179688 145.012695312 646.919921875 124.938476562 676 124.938476562 c 0
 705.080078125 124.938476562 722.966796875 145.012695312 722.966796875 176.755859375 c 0
 722.966796875 208.291992188 705.080078125 229.565429688 676 229.565429688 c 0
 646.919921875 229.565429688 629.034179688 208.291992188 629.034179688 176.755859375 c 0
483 175.001953125 m 0
 483 284.501953125 546.5 364.501953125 666 364.501953125 c 0
 785.5 364.501953125 849 284.501953125 849 175.001953125 c 0
 849 65.501953125 785.5 -9.998046875 666 -9.998046875 c 0
 546.5 -9.998046875 483 65.501953125 483 175.001953125 c 0
186.034179688 551.24609375 m 0
 186.034179688 519.502929688 203.919921875 499.428710938 233 499.428710938 c 0
 262.080078125 499.428710938 279.966796875 519.502929688 279.966796875 551.24609375 c 0
 279.966796875 582.782226562 262.080078125 604.055664062 233 604.055664062 c 0x1be0
 203.919921875 604.055664062 186.034179688 582.782226562 186.034179688 551.24609375 c 0
40 549.4921875 m 0
 40 658.9921875 113.5 738.9921875 233 738.9921875 c 0
 352.5 738.9921875 426 658.9921875 426 549.4921875 c 0
 426 439.9921875 352.5 364.4921875 233 364.4921875 c 0
 113.5 364.4921875 40 439.9921875 40 549.4921875 c 0
EndSplineSet
Refer: 448 8260 S 1 0 0 1 330 0 2
EndChar

StartChar: bullet
Encoding: 8226 8226 447
Width: 510
Flags: W
HStem: 151 430<155.73 354.27>
VStem: 35 440<266.243 460.27>
LayerCount: 2
Fore
SplineSet
35 361 m 4
 35 491.428710938 124.571289062 581 255 581 c 4
 385.428710938 581 475 491.428710938 475 361 c 4
 475 236.5 385.428710938 151 255 151 c 4
 124.571289062 151 35 236.5 35 361 c 4
EndSplineSet
Validated: 1
EndChar

StartChar: fraction
Encoding: 8260 8260 448
Width: 217
Flags: W
HStem: 0 21G<-154 -35.442> 711.008 20G<292.442 411>
LayerCount: 2
Fore
SplineSet
-154 0 m 1
 305 731.0078125 l 5
 411 731.0078125 l 5
 -48 0 l 1
 -154 0 l 1
EndSplineSet
EndChar

StartChar: estimated
Encoding: 8494 8494 451
Width: 842
Flags: W
HStem: -10 185.169<348.907 511.883> 127 48.1689<297.919 346> 300.8 148.2<156.1 495> 395 54<495 575.037> 573.631 165.361<309.646 492.684> 573.631 16.3691<301.646 346>
VStem: 156.1 189.9<300.8 449> 187 159<368.638 590> 187 61.6982<303.738 445.644> 495 98<395 617>
LayerCount: 2
Fore
SplineSet
35 360.129882812 m 0x98c0
 35 578.048828125 182.258789062 738.9921875 421 738.9921875 c 0
 681.555664062 738.9921875 805.58203125 552.424804688 805.58203125 378.416992188 c 0
 805.58203125 321.666015625 797.599609375 300.799804688 797.599609375 300.799804688 c 1
 156.099609375 300.799804688 l 1
 156.099609375 449 l 1xaa40
 575.037109375 449 l 1
 575.037109375 449 547.551605749 573.630859375 421.220703125 573.630859375 c 0
 301.646338052 573.630859375 248.698242188 486.317091254 248.698242188 368.637695312 c 0
 248.698242188 265.836493292 297.918864943 175.168945312 425.099609375 175.168945312 c 0
 547.174597919 175.168945312 596.845703125 274.052734375 596.845703125 274.052734375 c 1
 747.5 142.900390625 l 1
 747.5 142.900390625 662.353515625 -10 427.220703125 -10 c 0
 179.368164062 -10 35 141.053710938 35 360.129882812 c 0x98c0
495 617 m 5
 593 617 l 1
 593 395 l 1
 495 395 l 5x1040
 495 617 l 5
187 590 m 1x4540
 346 590 l 1
 346 127 l 1x4540
 187 127 l 1x44c0
 187 590 l 1x4540
EndSplineSet
Validated: 5
EndChar

StartChar: Omega
Encoding: 8486 8486 452
Width: 908
HStem: 523.967 215.033<358.595 548.634>
VStem: 69 251.811<382.032 487.799> 587.189 251.811<382.032 487.799>
LayerCount: 2
Fore
SplineSet
453 739 m 0
 216 739 69 647.319335938 69 480 c 0
 69 302.29296875 242 260.405273438 242 260.405273438 c 1
 242 201 l 1
 40 201 l 1
 40 6 l 1
 418 6 l 1
 418 339.254882812 l 1
 418 339.254882812 320.810546875 345.564453125 320.810546875 429.083007812 c 0
 320.810546875 494.403320312 371.9140625 523.966796875 453 523.966796875 c 0
 536.0859375 523.966796875 587.189453125 494.403320312 587.189453125 429.083007812 c 0
 587.189453125 345.564453125 490 339.254882812 490 339.254882812 c 1
 490 6 l 1
 868 6 l 1
 868 201 l 1
 666 201 l 1
 666 260.405273438 l 1
 666 260.405273438 839 302.29296875 839 480 c 0
 839 647.319335938 692 739 453 739 c 0
EndSplineSet
Validated: 9
EndChar

StartChar: uni2113
Encoding: 8467 8467 453
Width: 631
Flags: W
HStem: -10 167.13<278.771 411.568> 607.872 159.13<320.553 401.662>
VStem: 60 193.229<159.475 486.027> 407.644 185.496<500.737 601.756>
AnchorPoint: "Anchor-0" 352 757.002 basechar 0
AnchorPoint: "Anchor-2" 346 0 basechar 0
LayerCount: 2
Fore
SplineSet
60 270.099609375 m 0
 60 597.266949339 172.116210938 767.001953125 354.400390625 767.001953125 c 0
 525.532226562 767.001953125 593.139648438 661.814453125 593.139648438 563.70703125 c 0
 593.139648438 236.261508709 22 156 22 156 c 1
 2 316 l 1
 2 316 407.643554688 387.489257812 407.643554688 565.001953125 c 4
 407.643554688 591.946289062 391.821289062 607.872070312 361.400390625 607.872070312 c 4
 291.280273438 607.872070312 253.229492188 465.957839866 253.229492188 255.875 c 0
 253.229492188 208.719726562 267.880859375 157.129882812 342 157.129882812 c 0
 433.891601562 157.129882812 457.958007812 235.424804688 457.958007812 235.424804688 c 1
 610 147 l 1
 610 147 557.26171875 -10 344.400390625 -10 c 0
 160.69140625 -10 60 110.23046875 60 270.099609375 c 0
EndSplineSet
EndChar

StartChar: Delta
Encoding: 8710 8710 454
Width: 880
HStem: 0 190<316 554.441> 731 20G<417.022 463.42>
LayerCount: 2
Fore
SplineSet
840.44140625 150 m 5
 840.44140625 0 l 1
 40 0 l 1
 40 150 l 5
 430 751 l 1
 450.44140625 751 l 1
 840.44140625 150 l 5
554.44140625 190 m 1
 440.220703125 405 l 1
 316 190 l 1
 554.44140625 190 l 1
EndSplineSet
Validated: 1
EndChar

StartChar: gradient
Encoding: 8711 8711 455
Width: 880
Flags: W
HStem: -20 20G<417.022 463.42> 541 190<326 564.441>
LayerCount: 2
Fore
SplineSet
40 581 m 5
 40 731 l 1
 840.44140625 731 l 1
 840.44140625 581 l 5
 450.44140625 -20 l 1
 430 -20 l 1
 40 581 l 5
326 541 m 1
 440.220703125 326 l 1
 564.44140625 541 l 1
 326 541 l 1
EndSplineSet
Validated: 1
EndChar

StartChar: emptyset
Encoding: 8709 8709 456
Width: 842
Flags: W
HStem: -10 195.033<312.874 509.543> 543.967 195.033<334.302 531.992>
VStem: 35 211.811<248.299 457.338> 595.189 211.811<270.78 475.459>
LayerCount: 2
Fore
SplineSet
5 0 m 1
 784 791.0078125 l 1
 850 731.0078125 l 1
 71 -60 l 1
 5 0 l 1
246.810546875 363.083007812 m 0
 246.810546875 254.009694877 313.147306078 185.033203125 421 185.033203125 c 4
 528.852693922 185.033203125 595.189453125 254.009694877 595.189453125 363.083007812 c 0
 595.189453125 471.100501084 528.852693922 543.966796875 421 543.966796875 c 0
 313.147306078 543.966796875 246.810546875 471.100501084 246.810546875 363.083007812 c 0
35 360 m 0
 35 579 182 739 421 739 c 0
 660 739 807 579 807 360 c 0
 807 141 660 -10 421 -10 c 0
 182 -10 35 141 35 360 c 0
EndSplineSet
Validated: 5
EndChar

StartChar: summation
Encoding: 8721 8721 457
Width: 763
Flags: W
HStem: -179.994 202.5<559.533 721> -179.994 187.5<375 536.467> 527.5 211.502<578.625 723> 543.5 195.502<393 537.375>
LayerCount: 2
Fore
SplineSet
723 739.001953125 m 1x60
 723 527.5 l 1x60
 393 543.5 l 1
 532 289.5 l 5
 532 263.5 l 5
 375 7.505859375 l 1x50
 721 22.505859375 l 1
 721 -179.994140625 l 1x80
 0 -179.994140625 l 1
 0 -163.994140625 l 1
 287 271.5 l 5
 2 722.9921875 l 1
 2 738.9921875 l 1
 723 739.001953125 l 1x60
EndSplineSet
Validated: 1
EndChar

StartChar: product
Encoding: 8719 8719 458
Width: 856
Flags: W
HStem: -179.994 21G<60 316 540 796> 517 214<316 540>
VStem: 60 256<-179.994 517> 540 256<-179.994 517>
LayerCount: 2
Fore
SplineSet
60 731 m 1
 796 731 l 5
 796 -179.994140625 l 5
 540 -179.994140625 l 5
 540 517 l 5
 316 517 l 1
 316 -179.994140625 l 1
 60 -179.994140625 l 1
 60 731 l 1
EndSplineSet
Validated: 1
EndChar

StartChar: infinity
Encoding: 8734 8734 459
Width: 775
Flags: W
HStem: 405.3 163.4<192.227 291.677> 438.7 130<452.114 582.31> 140.3 163.4<482.991 582.773> 140.3 130<192.69 313.374>
VStem: 35 140.1<289.066 390.388> 599.9 140.1<318.612 419.934>
LayerCount: 2
Back
SplineSet
512.049804688 287 m 4xd6
 550.75 287 575.950195312 315.799804688 575.950195312 354.5 c 4
 575.950195312 393.200195312 550.75 422 512.049804688 422 c 4
 473.349609375 422 449.049804688 393.200195312 449.049804688 354.5 c 4
 449.049804688 315.799804688 473.349609375 287 512.049804688 287 c 4xd6
536 140.299804688 m 4
 402.784179688 140.299804688 355 221.873046875 355 354.5 c 4xb6
 355 487.126953125 402.784179688 568.700195312 536 568.700195312 c 4
 662.387695312 568.700195312 740 487.126953125 740 354.5 c 4
 740 221.873046875 662.387695312 140.299804688 536 140.299804688 c 4
262.950195312 287 m 4xd6
 301.650390625 287 325.950195312 315.799804688 325.950195312 354.5 c 4
 325.950195312 393.200195312 301.650390625 422 262.950195312 422 c 4
 224.25 422 199.049804688 393.200195312 199.049804688 354.5 c 4
 199.049804688 315.799804688 224.25 287 262.950195312 287 c 4xd6
239 140.299804688 m 4
 112.612304688 140.299804688 35 221.873046875 35 354.5 c 4
 35 487.126953125 112.612304688 568.700195312 239 568.700195312 c 4
 372.215820312 568.700195312 420 487.126953125 420 354.5 c 4xb6
 420 221.873046875 372.215820312 140.299804688 239 140.299804688 c 4
EndSplineSet
Fore
SplineSet
239 568.700195312 m 0x8c
 112.612304688 568.700195312 35 487.126953125 35 354.5 c 0
 35 221.873046875 112.612304688 140.299804688 239 140.299804688 c 0x9c
 342.233398438 140.299804688 387.5 199.185546875 387.5 199.185546875 c 1
 387.5 199.185546875 432.766601562 140.299804688 536 140.299804688 c 0
 662.387695312 140.299804688 740 221.873046875 740 354.5 c 0
 740 487.126953125 662.387695312 568.700195312 536 568.700195312 c 0x6c
 432.766601562 568.700195312 387.5 509.814453125 387.5 509.814453125 c 5
 387.5 509.814453125 342.233398438 568.700195312 239 568.700195312 c 0x8c
239 405.299804688 m 0
 317.700195312 405.299804688 327 302.799804688 327 302.799804688 c 0
 327 302.799804688 297.700195312 270.299804688 248 270.299804688 c 0
 200.299804688 270.299804688 175.099609375 299.099609375 175.099609375 337.799804688 c 0
 175.099609375 376.5 200.299804688 405.299804688 239 405.299804688 c 0
527 438.700195312 m 0x6c
 574.700195312 438.700195312 599.900390625 409.900390625 599.900390625 371.200195312 c 0
 599.900390625 332.5 574.700195312 303.700195312 536 303.700195312 c 0
 453.299804688 303.700195312 443 411.200195312 443 411.200195312 c 0
 443 411.200195312 477.299804688 438.700195312 527 438.700195312 c 0x6c
EndSplineSet
EndChar

StartChar: uni2215
Encoding: 8725 8725 460
Width: 550
Flags: W
HStem: 0 21G<0 205.631> 711.008 20G<342.369 548>
LayerCount: 2
Fore
SplineSet
0 0 m 1
 352 731.0078125 l 5
 548 731.0078125 l 1
 196 0 l 1
 0 0 l 1
EndSplineSet
Validated: 1
EndChar

StartChar: eogonek
Encoding: 281 281 465
Width: 626
HStem: -256 94.7969<338.967 405.753> -10 167.13<261.159 382.757> 216 109<157 397.644> 383.87 157.13<261.55 373.942>
VStem: 157 71.2295<216 325> 218 118<-157.828 -92.5124>
LayerCount: 2
Fore
SplineSet
502.399414062 48.4033203125 m 1xf4
 502.399414062 48.4033203125 336 -66 336 -129.203125 c 4
 336 -147.603515625 348.399414062 -161.203125 372 -161.203125 c 4
 406.799804688 -161.203125 412.399414062 -124.802734375 412.399414062 -124.802734375 c 5
 493.599609375 -173.203125 l 5
 493.599609375 -173.203125 474.399414062 -256 355.599609375 -256 c 4
 272.799804688 -256 218 -217.203125 218 -150.400390625 c 4
 218 -59.603515625 388.19921875 28.4033203125 388.19921875 28.4033203125 c 1
 502.399414062 48.4033203125 l 1xf4
EndSplineSet
Refer: 62 101 N 1 0 0 1 0 0 3
EndChar

StartChar: uni031B
Encoding: 795 795 476
Width: 0
Flags: W
HStem: 452 128<0 58.8501> 711 20G<118.721 290.441>
VStem: 0 290.441
LayerCount: 2
Fore
SplineSet
0 580 m 5
 75 590 113 641 124.44140625 731 c 1
 290.44140625 731 l 1
 274 580.93359375 191 452 0 452 c 1
 0 580 l 5
EndSplineSet
Validated: 1
EndChar

StartChar: radical
Encoding: 8730 8730 481
Width: 794
Flags: W
LayerCount: 2
Fore
SplineSet
354 -20 m 5
 233 263 132 365 2 481.010742188 c 1
 248 551.010742188 l 1
 288 511 326.563476562 446.39453125 352.220703125 386 c 1
 399.954101562 546.336914062 442.42578125 626.670898438 526.44140625 787.001953125 c 1
 792.44140625 787.001953125 l 1
 592 531.010742188 487 322 374.44140625 -20 c 5
 354 -20 l 5
EndSplineSet
EndChar

StartChar: hookabovecomb
Encoding: 777 777 482
Width: 0
Flags: W
HStem: 627.167 111.841<88.0842 197.815>
VStem: 142.391 150.34<578.674 657.547>
AnchorPoint: "Anchor-0" 159 455 mark 0
LayerCount: 2
Fore
SplineSet
146.610351562 739.0078125 m 0
 249.020507812 739.0078125 292.73046875 684.986328125 292.73046875 630.107421875 c 0
 292.73046875 553.176757812 227.41015625 554.657226562 227.41015625 514.186523438 c 6
 227.41015625 508.3671875 l 5
 95.5302734375 508.3671875 l 5
 95.5302734375 526.436523438 l 6
 95.5302734375 575.236328125 142.390625 583.272460938 142.390625 607.077148438 c 0
 142.390625 618.831054688 135.040039062 627.166992188 118.380859375 627.166992188 c 0
 92.900390625 627.166992188 82.1201171875 593.357421875 82.1201171875 593.357421875 c 1
 0 661.8671875 l 1
 0 661.8671875 36.8505859375 739.0078125 146.610351562 739.0078125 c 0
EndSplineSet
Validated: 1
EndChar

StartChar: uni1E9E
Encoding: 7838 7838 524
Width: 865
Flags: W
HStem: -9.99805 175.998<393.312 638.967> 0 21G<60 316> 533 198<316 490.049>
VStem: 60 256<0 533> 567 263<190.348 295.346>
LayerCount: 2
Fore
SplineSet
316 533 m 1xb8
 316 0 l 1
 60 0 l 1x78
 60 731 l 1
 806 731 l 1
 806 708 l 1
 666 443 l 1
 666 443 830 412 830 225 c 0
 830 78 734 -9.998046875 537 -9.998046875 c 0
 420 -9.998046875 373 17 373 17 c 1
 396 186 l 1
 396 186 434 166 479 166 c 0
 531 166 567 195 567 243 c 0
 567 287 531 324 470 324 c 0
 420 324 403 314 403 314 c 1
 403 337 l 1
 490.048828125 533 l 1
 316 533 l 1xb8
EndSplineSet
Validated: 1
EndChar

StartChar: lira
Encoding: 8356 8356 537
Width: 670
Flags: W
HStem: 0 203<508.9 630> 238 74<16 526> 358 74<16 526> 570 168.992<309.54 410.331>
VStem: 65 225<438.361 552.435> 134 206<247 356.753>
LayerCount: 2
Back
SplineSet
526 238 m 5xf0
 16 238 l 5
 16 312 l 5
 526 312 l 5
 526 238 l 5xf0
526 358 m 5
 16 358 l 5
 16 432 l 5
 526 432 l 5
 526 358 l 5
EndSplineSet
Fore
SplineSet
16 312 m 5xf0
 526 312 l 5
 526 238 l 5
 16 238 l 5
 16 312 l 5xf0
16 432 m 1
 526 432 l 1
 526 358 l 1
 16 358 l 1
 16 432 l 1
351 738.9921875 m 0
 612 738.9921875 625 555 625 555 c 1
 445 451 l 1
 445 451 445 570 364 570 c 0
 312 570 290 540 290 497 c 0xf8
 290 425 340 406 340 320 c 0
 340 255.952148438 284 183 284 183 c 1
 630 203 l 1
 630 0 l 1
 1 0 l 1
 1 31 l 1
 1 31 134 186 134 308 c 0xf4
 134 392.005859375 65 430 65 529 c 0xf8
 65 625 138 738.9921875 351 738.9921875 c 0
EndSplineSet
EndChar

StartChar: uni20A9
Encoding: 8361 8361 538
Width: 978
Flags: W
HStem: 238 74<44 364 614 934> 358 74<4 364 614 974> 711 20G<-10 281.91 475.724 529.159 722.973 994.883>
LayerCount: 2
Fore
SplineSet
934 238 m 5
 614 238 l 5
 614 312 l 5
 934 312 l 5
 934 238 l 5
974 358 m 5
 614 358 l 5
 614 432 l 5
 974 432 l 5
 974 358 l 5
364 238 m 5
 44 238 l 1
 44 312 l 1
 364 312 l 5
 364 238 l 5
364 358 m 5
 4 358 l 1
 4 432 l 1
 364 432 l 5
 364 358 l 5
300 -20 m 5
 -10 731 l 5
 276 731 l 5
 360.220703125 446 l 5
 484.44140625 731 l 5
 520.44140625 731 l 5
 644.662109375 446 l 5
 728.8828125 731 l 5
 994.8828125 731 l 5
 664.8828125 -20 l 5
 644.44140625 -20 l 5
 488.44140625 281 l 5
 320.44140625 -20 l 5
 300 -20 l 5
EndSplineSet
EndChar

StartChar: uni20AD
Encoding: 8365 8365 539
Width: 866
Flags: W
HStem: 0 21G<108 364 544.46 864> 323 134<4 812> 711 20.0078G<108 364 537.117 834>
VStem: 108 256<0 731>
LayerCount: 2
Fore
SplineSet
4 457 m 5
 812 457 l 5
 812 323 l 5
 4 323 l 5
 4 457 l 5
108 0 m 1
 108 731 l 1
 364 731 l 1
 364 0 l 1
 108 0 l 1
558 0 m 1
 296 387 l 1
 552 731.0078125 l 1
 834 731.0078125 l 1
 572 407 l 1
 864 0 l 1
 558 0 l 1
EndSplineSet
Validated: 5
EndChar

StartChar: uni20AE
Encoding: 8366 8366 540
Width: 712
Flags: W
HStem: 0 21G<228 484> 528 203<40 171.6 540.4 672>
VStem: 228 256<0 538>
LayerCount: 2
Fore
SplineSet
228 0 m 1
 228 538 l 1
 40 528 l 1
 40 731 l 1
 672 731 l 1
 672 528 l 1
 484 538 l 1
 484 0 l 1
 228 0 l 1
611 238 m 5
 101 78 l 5
 101 162 l 5
 611 322 l 5
 611 238 l 5
611 368 m 5
 101 208 l 5
 101 292 l 5
 611 452 l 5
 611 368 l 5
EndSplineSet
Validated: 5
EndChar

StartChar: uni20B1
Encoding: 8369 8369 541
Width: 898
Flags: W
HStem: 0 21G<120 376> 200 181<354 494.458> 348 74<4 345 544 894> 348 33<345 354> 468 74<4 354 544 894> 531 200<376 503.339>
VStem: 120 256<0 200 348 381 422 468> 345 31<200 348> 345 9<348 381>
LayerCount: 2
Fore
SplineSet
894 348 m 1xa0
 544 348 l 1
 544 422 l 1
 894 422 l 1
 894 348 l 1xa0
894 468 m 1x88
 544 468 l 1
 544 542 l 1
 894 542 l 1
 894 468 l 1x88
354 348 m 1x9080
 4 348 l 5
 4 422 l 5
 354 422 l 1xa080
 354 348 l 1x9080
354 468 m 1x8880
 4 468 l 5
 4 542 l 5
 354 542 l 1
 354 468 l 1x8880
376 531 m 1xc5
 376 0 l 1
 120 0 l 1
 120 731 l 1xc6
 464 731 l 2
 688.344726562 731 787 619.970703125 787 460 c 0
 787 301.833007812 686.272460938 200 464 200 c 2
 345 200 l 1xc5
 345 381 l 1x9080
 430 381 l 2
 494 381 523.799804688 410.817382812 523.799804688 458.150390625 c 0
 523.799804688 503.6328125 492.959960938 531 430 531 c 2
 376 531 l 1xc5
EndSplineSet
Validated: 5
EndChar

StartChar: uni20B5
Encoding: 8373 8373 542
Width: 808
Flags: W
HStem: -10 225.033<345.299 499.383> 513.967 225.033<346.664 497.031>
VStem: 35 251.755<278.804 449.514> 384 78<-77 793>
LayerCount: 2
Fore
SplineSet
35 360 m 4
 35 579 182 739 421 739 c 4
 714.523284683 739 783.926886337 501.7030546 783.926886337 501.7030546 c 5
 549.987304688 409.009765625 l 5
 549.987304688 409.009765625 536.720703125 513.966796875 420.9453125 513.966796875 c 4
 337.858398438 513.966796875 286.754882812 453.185546875 286.754882812 363.083007812 c 4
 286.754882812 272.387695312 337.858398438 215.033203125 420.9453125 215.033203125 c 4
 532.245117188 215.033203125 557.4453125 315.674804688 557.4453125 315.674804688 c 5
 777.705078125 248.907226562 l 5
 777.705078125 248.907226562 724.253247368 -10 421 -10 c 4
 182 -10 35 141 35 360 c 4
384 -77 m 1
 384 793 l 1
 462 793 l 1
 462 -77 l 1
 384 -77 l 1
EndSplineSet
EndChar

StartChar: uni20B9
Encoding: 8377 8377 543
Width: 750
Flags: W
HStem: 0 21G<429.522 748> 230 181<61 324> 447 74<60 709> 561 170<60 709>
VStem: 353.8 243.2<438.675 534.336>
LayerCount: 2
Fore
SplineSet
709 447 m 1
 60 447 l 1
 60 521 l 1
 709 521 l 1
 709 447 l 1
60 731 m 1
 709 731 l 1
 709 561 l 1
 60 561 l 1
 60 731 l 1
442 0 m 1
 228 343 l 5
 444 363 l 5
 748 0 l 1
 442 0 l 1
60 561 m 1
 60 731 l 1
 294 731 l 6
 466 731 597 640.970703125 597 497 c 4
 597 329.833007812 416.272460938 230 244 230 c 6
 61 230 l 1
 61 411 l 1
 260 411 l 6
 324 411 353.799804688 439.817382812 353.799804688 487.150390625 c 4
 353.799804688 532.6328125 322.959960938 561 260 561 c 6
 60 561 l 1
EndSplineSet
Validated: 5
EndChar

StartChar: uni20B2
Encoding: 8370 8370 544
Width: 846
Flags: W
HStem: -10 225.033<348.603 498.971> 513.967 225.033<346.664 497.706>
VStem: 35 251.755<278.804 449.514> 384 78<-77 793>
LayerCount: 2
Fore
SplineSet
786 328 m 5
 786 -19 l 5
 766 -19 l 5
 577 108 l 5
 577 328 l 5
 786 328 l 5
35 360 m 4
 35 579 182 739 421 739 c 4
 714.523284683 739 783.926886337 501.7030546 783.926886337 501.7030546 c 5
 556.987304688 409.009765625 l 5
 556.987304688 409.009765625 536.720703125 513.966796875 420.9453125 513.966796875 c 4
 337.858398438 513.966796875 286.754882812 453.185546875 286.754882812 363.083007812 c 4
 286.754882812 272.387695312 337.858398438 215.033203125 420.9453125 215.033203125 c 4
 542.745117188 215.033203125 558 328 558 328 c 5
 776 328 l 5
 776 328 704.252929688 -10 391 -10 c 4
 182 -10 35 141 35 360 c 4
384 -77 m 1
 384 793 l 1
 462 793 l 1
 462 -77 l 1
 384 -77 l 1
EndSplineSet
EndChar

StartChar: uni20A6
Encoding: 8358 8358 545
Width: 928
Flags: W
HStem: 0 21G<110 346> 238 74<4 324 604 924> 358 74<4 324 604 924> 731 0G<110 152.77 557 793>
VStem: 110 236<0 238> 110 214<238 312 358 432> 557 236<432 731> 604 189<238 312 358 432>
LayerCount: 2
Fore
SplineSet
924 238 m 1xf1
 604 238 l 1
 604 312 l 1
 924 312 l 1
 924 238 l 1xf1
924 358 m 5
 604 358 l 5
 604 432 l 5
 924 432 l 5
 924 358 l 5
324 238 m 1xf4
 4 238 l 1
 4 312 l 1
 324 312 l 1
 324 238 l 1xf4
324 358 m 1
 4 358 l 1
 4 432 l 1
 324 432 l 1
 324 358 l 1
110 0 m 1xf9
 110 751 l 1
 126 751 l 1
 557 429 l 1
 557 731 l 1
 793 731 l 1xf6
 793 -20 l 1
 777 -20 l 1
 346 286 l 1
 346 0 l 1
 110 0 l 1xf9
EndSplineSet
Validated: 5
EndChar

StartChar: uni20B8
Encoding: 8376 8376 546
Width: 712
Flags: W
HStem: 0 21G<228 484> 318 203<40 171.6 540.4 672> 597 134<40 672>
VStem: 228 256<0 328>
LayerCount: 2
Fore
SplineSet
40 731 m 1
 672 731 l 1
 672 597 l 1
 40 597 l 1
 40 731 l 1
228 0 m 1
 228 328 l 5
 40 318 l 5
 40 521 l 5
 672 521 l 5
 672 318 l 5
 484 328 l 5
 484 0 l 1
 228 0 l 1
EndSplineSet
Validated: 1
EndChar

StartChar: franc
Encoding: 8355 8355 547
Width: 654
Flags: W
HStem: 0 21G<60 316> 73 134<4 422> 253 198<164 588> 533 198<316 614>
VStem: 60 256<0 253 451 533> 164 152<253 451>
LayerCount: 2
Fore
SplineSet
4 207 m 5xf0
 422 207 l 5
 422 73 l 5
 4 73 l 5
 4 207 l 5xf0
164 253 m 1xf4
 164 451 l 1
 588 451 l 1
 588 253 l 1
 164 253 l 1xf4
316 533 m 1xf8
 316 0 l 1
 60 0 l 1
 60 731 l 1
 614 731 l 1
 614 533 l 1
 316 533 l 1xf8
EndSplineSet
Validated: 5
EndChar

StartChar: uni20BD
Encoding: 8381 8381 548
Width: 762
Flags: W
HStem: 0 21G<80 336> 118 74<4 504> 240 141<4 434.458> 711 20G<80 516.172>
VStem: 80 256<0 531> 463.8 263.2<405.415 507.833>
LayerCount: 2
Fore
SplineSet
504 118 m 1
 4 118 l 1
 4 192 l 1
 504 192 l 1
 504 118 l 1
336 531 m 1
 336 0 l 1
 80 0 l 1
 80 731 l 1
 404 731 l 2
 628.344726562 731 727 635.970703125 727 476 c 4
 727 317.833007812 626.272460938 240 404 240 c 2
 4 240 l 1
 4 381 l 1
 370 381 l 2
 434 381 463.799804688 410.817382812 463.799804688 458.150390625 c 0
 463.799804688 503.6328125 432.959960938 531 370 531 c 2
 336 531 l 1
EndSplineSet
Validated: 5
EndChar

StartChar: uni20BF
Encoding: 8383 8383 549
Width: 766
Flags: W
HStem: 0 83<274 352 394 472> 280 171<285 441.284> 593 138<274 352 394 472>
VStem: 274 78<-77 83 593 793> 285 31<280 451> 394 78<-77 83 593 793> 476.8 254.2<170.093 260.62>
LayerCount: 2
Fore
SplineSet
316 561 m 5xee
 316 150 l 5
 381 150 l 6
 443.959960938 150 476.799804688 172.3671875 476.799804688 211.849609375 c 4
 476.799804688 259.182617188 445 280 381 280 c 6
 285 280 l 5
 285 451 l 5
 367 451 l 6
 431 451 452.799804688 469.817382812 452.799804688 507.150390625 c 4
 452.799804688 536.6328125 429.959960938 561 367 561 c 6
 316 561 l 5xee
60 0 m 5
 60 731 l 5
 404 731 l 6
 628.344690259 731 717 651.970703125 717 535 c 4
 717 381 575.506835938 367.630859375 575.506835938 367.630859375 c 5
 575.506835938 367.630859375 731 346 731 200 c 4
 731 77.029296875 642.344726562 0 418 0 c 6
 60 0 l 5
394 -77 m 1
 394 83 l 1
 472 83 l 1
 472 -77 l 1
 394 -77 l 1
274 -77 m 1xf6
 274 83 l 1
 352 83 l 1
 352 -77 l 1
 274 -77 l 1xf6
394 593 m 1
 394 793 l 1
 472 793 l 1
 472 593 l 1
 394 593 l 1
274 593 m 1
 274 793 l 1
 352 793 l 1
 352 593 l 1
 274 593 l 1
EndSplineSet
EndChar

StartChar: uni20B3
Encoding: 8371 8371 550
Width: 928
Flags: W
HStem: 0 21G<24 319.207 609.234 904.441> 158 74<4 324 604 924> 278 74<4 324 604 924> 731 20G<442.549 485.893>
LayerCount: 2
Fore
SplineSet
474.44140625 751 m 5
 904.44140625 0 l 5
 618.44140625 0 l 5
 464.220703125 335 l 5
 310 0 l 5
 24 0 l 5
 454 751 l 5
 474.44140625 751 l 5
924 158 m 1
 604 158 l 1
 604 232 l 1
 924 232 l 1
 924 158 l 1
924 278 m 1
 604 278 l 1
 604 352 l 1
 924 352 l 1
 924 278 l 1
324 158 m 1
 4 158 l 1
 4 232 l 1
 324 232 l 1
 324 158 l 1
324 278 m 1
 4 278 l 1
 4 352 l 1
 324 352 l 1
 324 278 l 1
EndSplineSet
Validated: 5
EndChar

StartChar: uni20B4
Encoding: 8372 8372 551
Width: 758
Flags: W
HStem: -10 154<294.631 473.353> 279 74<4 754> 399 74<360.141 754> 589 149.992<296.21 450.364>
VStem: 54 227<160.752 316.564> 475 213<494.096 567.729>
LayerCount: 2
Fore
SplineSet
754 279 m 1
 4 279 l 1
 4 353 l 1
 754 353 l 1
 754 279 l 1
754 399 m 1
 4 399 l 1
 4 473 l 1
 754 473 l 1
 754 399 l 1
391 738.9921875 m 0
 601.79296875 738.9921875 688 620 688 502 c 0
 688 362.811523438 586.739257812 289.3515625 425.244140625 266.026367188 c 0
 340.5078125 258.857421875 281 246.916992188 281 196 c 0
 281 163.077148438 309.348632812 144 387 144 c 0
 495.799804688 144 530 215 530 215 c 1
 714 145 l 25
 714 145 656.491210938 -10 389 -10 c 0
 145.73828125 -10 54 104 54 232 c 0
 54 395.74609375 199.25390625 459.444335938 360.140625 472.697265625 c 0
 435.056640625 480.05859375 475 487.907226562 475 531 c 0
 475 562.733398438 434.711914062 589 376 589 c 0
 273.12890625 589 256 516 256 516 c 13
 83 595 l 1
 83 595 143.383789062 738.9921875 391 738.9921875 c 0
EndSplineSet
Validated: 5
EndChar

StartChar: colonmonetary
Encoding: 8353 8353 552
Width: 808
Flags: W
HStem: -10 222<222 490.074> 513.967 279.033<431 514> 531 21G<357.059 445.703 517.059 605.703> 719 20G<301.5 567.762>
VStem: 35 251.755<278.804 449.514> 154 83<-77 -47.25> 305 77<182.25 212> 314 83<-77 -47.25> 440.059 77<531 555.803>
LayerCount: 2
Fore
SplineSet
35 360 m 4xc880
 35 579 182 739 421 739 c 4x9880
 714.523284683 739 783.926886337 501.7030546 783.926886337 501.7030546 c 5
 549.987304688 409.009765625 l 5
 549.987304688 409.009765625 536.720703125 513.966796875 420.9453125 513.966796875 c 4
 337.858398438 513.966796875 286.754882812 453.185546875 286.754882812 363.083007812 c 4
 286.754882812 272.387695312 337.858398438 215.033203125 420.9453125 215.033203125 c 4
 532.245117188 215.033203125 557.4453125 315.674804688 557.4453125 315.674804688 c 5
 777.705078125 248.907226562 l 5
 777.705078125 248.907226562 724.253247368 -10 421 -10 c 4
 182 -10 35 141 35 360 c 4xc880
517.05859375 531 m 1xa080
 591 793 l 1
 674 793 l 1xc080
 600.05859375 531 l 1
 517.05859375 531 l 1xa080
357.05859375 531 m 1xa080
 431 793 l 1
 514 793 l 1xc080
 440.05859375 531 l 1
 357.05859375 531 l 1xa080
382 212 m 1x8280
 465 212 l 1
 397 -77 l 1
 314 -77 l 1x8180
 382 212 l 1x8280
222 212 m 1
 305 212 l 1
 237 -77 l 1
 154 -77 l 1x8680
 222 212 l 1
EndSplineSet
EndChar

StartChar: peseta
Encoding: 8359 8359 553
Width: 898
Flags: W
HStem: 0 21G<120 376> 200 181<345 500.9> 383 134<4 242 544 894> 531 200<376 503.339>
VStem: 120 122<383 517> 345 31<200 381> 544 243<383 517>
LayerCount: 2
Fore
SplineSet
544 517 m 5
 894 517 l 1
 894 383 l 1
 544 383 l 5
 544 517 l 5
4 517 m 1
 242 517 l 1
 242 383 l 1
 4 383 l 1
 4 517 l 1
376 531 m 1
 376 0 l 1
 120 0 l 1
 120 731 l 1
 464 731 l 2
 688.344726562 731 787 619.970703125 787 460 c 0
 787 301.833007812 686.272460938 200 464 200 c 2
 345 200 l 1
 345 381 l 1
 430 381 l 2
 494 381 523.799804688 410.817382812 523.799804688 458.150390625 c 0
 523.799804688 503.6328125 492.959960938 531 430 531 c 2
 376 531 l 1
EndSplineSet
Validated: 5
EndChar

StartChar: uni20BC
Encoding: 8380 8380 554
Width: 1012
Flags: W
HStem: 0 21G<60 281.811 378 634 730.189 952> 425.967 185.033<289.551 722.449> 711 20G<378 634>
VStem: 60 221.811<0 328.142> 378 256<0 731> 730.189 221.811<0 328.142>
CounterMasks: 1 1c
LayerCount: 2
Fore
SplineSet
506 611 m 0
 769.766601562 611 952 489.139648438 952 241 c 2
 952 0 l 9
 730.189453125 0 l 17
 730.189453125 217.916992188 l 2
 730.189453125 339.423828125 675.130859375 425.966796875 506 425.966796875 c 0
 336.869140625 425.966796875 281.810546875 339.423828125 281.810546875 217.916992188 c 2
 281.810546875 0 l 9
 60 0 l 17
 60 241 l 2
 60 489.139648438 242.233398438 611 506 611 c 0
378 731 m 1
 634 731 l 1
 634 0 l 1
 378 0 l 1
 378 731 l 1
EndSplineSet
Validated: 5
EndChar

StartChar: uni2031
Encoding: 8241 8241 555
Width: 1429
Flags: W
HStem: -9.99805 134.937<637.624 714.422 907.684 984.15 1157.58 1234.38> 0 21G<176 294.558> 229.565 134.937<637.922 714.124 907.982 983.852 1157.88 1234.08> 364.492 134.937<194.351 271.649> 604.056 134.937<194.649 271.351> 711.008 20G<622.442 741>
VStem: 40 146.034<508.154 595.379> 279.967 146.033<508.154 595.379> 483 146.034<133.664 220.889> 773 76<65.502 284.502> 1023 86<65.502 284.502> 1242.97 146.033<133.664 220.889>
LayerCount: 2
Fore
SplineSet
1149.03417969 176.755859375 m 0xa3f0
 1149.03417969 145.012695312 1166.91992188 124.938476562 1196 124.938476562 c 0
 1225.08007812 124.938476562 1242.96679688 145.012695312 1242.96679688 176.755859375 c 0
 1242.96679688 208.291992188 1225.08007812 229.565429688 1196 229.565429688 c 0
 1166.91992188 229.565429688 1149.03417969 208.291992188 1149.03417969 176.755859375 c 0xa3f0
1023 175.001953125 m 0
 1023 284.501953125 1086.5 364.501953125 1206 364.501953125 c 0
 1325.5 364.501953125 1389 284.501953125 1389 175.001953125 c 0
 1389 65.501953125 1325.5 -9.998046875 1206 -9.998046875 c 0
 1086.5 -9.998046875 1023 65.501953125 1023 175.001953125 c 0
899.034179688 176.755859375 m 0
 899.034179688 145.012695312 916.919921875 124.938476562 946 124.938476562 c 0
 975.080078125 124.938476562 992.966796875 145.012695312 992.966796875 176.755859375 c 0
 992.966796875 208.291992188 975.080078125 229.565429688 946 229.565429688 c 0
 916.919921875 229.565429688 899.034179688 208.291992188 899.034179688 176.755859375 c 0
773 175.001953125 m 0
 773 284.501953125 826.5 364.501953125 946 364.501953125 c 0
 1065.5 364.501953125 1109 284.501953125 1109 175.001953125 c 0
 1109 65.501953125 1065.5 -9.998046875 946 -9.998046875 c 0
 826.5 -9.998046875 773 65.501953125 773 175.001953125 c 0
629.034179688 176.755859375 m 0
 629.034179688 145.012695312 646.919921875 124.938476562 676 124.938476562 c 0
 705.080078125 124.938476562 722.966796875 145.012695312 722.966796875 176.755859375 c 0
 722.966796875 208.291992188 705.080078125 229.565429688 676 229.565429688 c 0
 646.919921875 229.565429688 629.034179688 208.291992188 629.034179688 176.755859375 c 0
483 175.001953125 m 0
 483 284.501953125 546.5 364.501953125 666 364.501953125 c 0
 785.5 364.501953125 849 284.501953125 849 175.001953125 c 0
 849 65.501953125 785.5 -9.998046875 666 -9.998046875 c 0
 546.5 -9.998046875 483 65.501953125 483 175.001953125 c 0
186.034179688 551.24609375 m 0
 186.034179688 519.502929688 203.919921875 499.428710938 233 499.428710938 c 0
 262.080078125 499.428710938 279.966796875 519.502929688 279.966796875 551.24609375 c 0
 279.966796875 582.782226562 262.080078125 604.055664062 233 604.055664062 c 0x1bf0
 203.919921875 604.055664062 186.034179688 582.782226562 186.034179688 551.24609375 c 0
40 549.4921875 m 0
 40 658.9921875 113.5 738.9921875 233 738.9921875 c 0
 352.5 738.9921875 426 658.9921875 426 549.4921875 c 0
 426 439.9921875 352.5 364.4921875 233 364.4921875 c 0
 113.5 364.4921875 40 439.9921875 40 549.4921875 c 0
EndSplineSet
Refer: 448 8260 S 1 0 0 1 330 0 2
EndChar

StartChar: minute
Encoding: 8242 8242 556
Width: 420
Flags: W
HStem: 719 20G<153 380>
LayerCount: 2
Fore
SplineSet
380 711 m 5
 58 369 l 5
 30 369 l 5
 130 711 l 6
 135.118164062 728.50390625 142 739 164 739 c 6
 380 739 l 5
 380 711 l 5
EndSplineSet
Validated: 1
EndChar

StartChar: uni20BA
Encoding: 8378 8378 559
Width: 720
Flags: W
HStem: -10 201<319.659 412.007> 711 20G<60 316>
VStem: 60 256<200 731>
LayerCount: 2
Fore
SplineSet
450 387.921875 m 1
 4 248 l 1
 4 332 l 1
 450 471.921875 l 1
 450 387.921875 l 1
450 517.921875 m 1
 4 378 l 1
 4 462 l 1
 450 601.921875 l 1
 450 517.921875 l 1
316 200 m 1
 316 200 331 191 356 191 c 0
 467 191 474 378 474 378 c 1
 700 314 l 1
 700 314 695 -10 352 -10 c 0
 142 -10 60 60 60 60 c 1
 60 731 l 1
 316 731 l 1
 316 200 l 1
EndSplineSet
Validated: 5
EndChar

StartChar: dong
Encoding: 8363 8363 560
Width: 685
Flags: W
HStem: 0 134<33 623> 180 145.07<272.141 394.507> 466.811 144.189<196.235 383.168> 613 74<357 677> 711.002 20G<413 625.4>
VStem: 35 216.43<344.743 447.169> 413.771 211.63<352.864 438.629 527.512 731.002> 449 63.9004<278.942 361.15>
LayerCount: 2
Fore
SplineSet
677 613 m 1xfc
 357 613 l 1
 357 687 l 1
 677 687 l 1
 677 613 l 1xfc
33 134 m 1
 623 134 l 1
 623 0 l 1
 33 0 l 1
 33 134 l 1
413.770507812 394.065429688 m 4xfe
 413.770507812 438.62890625 382.858398438 466.810546875 332.599609375 466.810546875 c 4
 282.341796875 466.810546875 251.4296875 438.62890625 251.4296875 394.065429688 c 4
 251.4296875 352.864257812 282.341796875 325.0703125 332.599609375 325.0703125 c 4
 382.858398438 325.0703125 413.770507812 352.864257812 413.770507812 394.065429688 c 4xfe
625.400390625 190 m 1
 449 190 l 1
 449 309.700195312 l 1xfd
 413 574.299804688 l 1
 413 731.001953125 l 1
 625.400390625 731.001953125 l 1
 625.400390625 190 l 1
512.900390625 374.099609375 m 0
 512.900390625 278.942382812 451.219726562 180 280.700195312 180 c 0
 129.770507812 180 35 265.744024062 35 390.099609375 c 0
 35 517.744040183 120.770507812 611 271.700195312 611 c 0
 442.219726562 611 512.900390625 494.931792138 512.900390625 374.099609375 c 0
EndSplineSet
Validated: 5
EndChar

StartChar: G.ss02
Encoding: 65551 -1 634
Width: 826
Flags: W
HStem: -10 225.033<345.299 494.13> 278 144<385 526.445> 513.967 225.033<346.664 501.962>
VStem: 35 251.755<278.804 449.514>
AnchorPoint: "Anchor-0" 420 731.008 basechar 0
AnchorPoint: "Anchor-2" 422 0 basechar 0
LayerCount: 2
Fore
SplineSet
35 360 m 0
 35 579 182 739 421 739 c 0
 684.523284683 739 763.926757812 571.703125 763.926757812 571.703125 c 1
 539.987304688 449.009765625 l 1
 539.987304688 449.009765625 516.720703125 513.966796875 420.9453125 513.966796875 c 0
 337.858398438 513.966796875 286.754882812 453.185546875 286.754882812 363.083007812 c 0
 286.754882812 272.387695312 337.858398438 215.033203125 420.9453125 215.033203125 c 0
 512.245117188 215.033203125 526.4453125 277.674804688 526.4453125 277.674804688 c 1
 385 278 l 1
 385 422 l 1
 814 422 l 1
 814 422 824.253247368 -10 421 -10 c 0
 182 -10 35 141 35 360 c 0
EndSplineSet
Validated: 33
EndChar

StartChar: M.ss03
Encoding: 65552 -1 635
Width: 909
Flags: W
HStem: 0 21G<60 287 593 849> 731 20G<60 99.7888 809.77 849>
VStem: 60 227<0 276> 593 256<0 276>
AnchorPoint: "Anchor-2" 437 0 basechar 0
AnchorPoint: "Anchor-0" 458 731.008 basechar 0
LayerCount: 2
Fore
SplineSet
60 0 m 1
 60 751 l 1
 76 751 l 1
 459 429 l 1
 833 751 l 1
 849 751 l 1
 849 0 l 1
 593 0 l 1
 593 276 l 1
 449 154 l 1
 423 154 l 1
 287 276 l 1
 287 0 l 1
 60 0 l 1
EndSplineSet
Validated: 1
EndChar

StartChar: Q.ss04
Encoding: 65553 -1 636
Width: 842
Flags: W
HStem: -10 225.033<345.327 496.673> 513.967 225.033<346.692 495.308>
VStem: 35 251.811<278.804 449.514> 555.189 251.811<278.804 449.514>
AnchorPoint: "Anchor-0" 420 731.008 basechar 0
AnchorPoint: "Anchor-2" 422 0 basechar 0
LayerCount: 2
Fore
SplineSet
672 -60 m 1
 352 311 l 1
 478 411 l 1
 798 40 l 1
 672 -60 l 1
EndSplineSet
Refer: 1 79 S 1 0 0 1 0 0 2
Validated: 5
EndChar

StartChar: R.ss05
Encoding: 65554 -1 637
Width: 800
Flags: W
HStem: 0 21G<60 316 488 798> 252 159<285 392.422> 561 170<316 424.723>
VStem: 60 256<0 252 411 561> 285 31<252 411> 453.8 263.2<432.98 538.227>
AnchorPoint: "Anchor-0" 377 731.008 basechar 0
AnchorPoint: "Anchor-2" 392 0 basechar 0
LayerCount: 2
Fore
SplineSet
316 561 m 1xf4
 316 0 l 1
 60 0 l 1
 60 731 l 1xf4
 394 731 l 2
 618.344726562 731 717 640.970703125 717 513 c 0
 717 373.181207024 575.25390625 320.459960938 575.25390625 320.459960938 c 1
 575.25390625 320.459960938 726.157226562 235.807617188 798 0 c 1
 512 0 l 1
 464 174 407 252 329 252 c 2
 285 252 l 1
 285 411 l 1xec
 360 411 l 2
 424 411 453.799804688 439.817382812 453.799804688 487.150390625 c 0
 453.799804688 532.6328125 422.959960938 561 360 561 c 2
 316 561 l 1xf4
EndSplineSet
Validated: 5
EndChar

StartChar: germandbls
Encoding: 223 223 638
Width: 700
Flags: W
HStem: -10 163.992<329.112 506> 0 21G<60 272> 590 176.992<298.828 407.754>
VStem: 60 212<0 561.238> 422 208<479.488 575.216> 444 222<169.77 284.081>
LayerCount: 2
Fore
SplineSet
431 -10 m 0xb4
 363.728515625 -10 323 6 323 6 c 1
 329.510742188 162 l 1
 329.510742188 162 349 153.9921875 383 153.9921875 c 0
 415 153.9921875 444 175.9921875 444 223.9921875 c 0xb4
 444 335.9921875 313 348.9921875 313 348.9921875 c 1
 313 392 l 1
 313 392 422 427 422 519 c 0
 422 562 404 590 352 590 c 4
 303 590 272 560 272 483 c 2
 272 0 l 1
 60 0 l 1
 60 507 l 2
 60 657 135 766.9921875 349 766.9921875 c 0
 536 766.9921875 630 686 630 563 c 0x78
 630 446.021484375 517.211914062 391.836914062 517.211914062 391.836914062 c 1
 517.211914062 391.836914062 666 351.028320312 666 188.9921875 c 0
 666 62.9921875 581 -10 431 -10 c 0xb4
EndSplineSet
EndChar

StartChar: partialdiff
Encoding: 8706 8706 639
Width: 718
Flags: W
HStem: -9.99805 183.998<293.586 400.763> 326 150.934<304.617 414.936> 566 172.992<274.569 418.123>
VStem: 35 243<189.26 299.9> 430 253<218.567 458.24>
LayerCount: 2
Fore
SplineSet
430 260 m 4
 430 303.420898438 401.341796875 326 364 326 c 4
 315.341796875 326 278 296.579101562 278 240 c 4
 278 196.579101562 306.658203125 174 344 174 c 4
 392.658203125 174 430 203.420898438 430 260 c 4
347 738.9921875 m 0
 542.540983607 738.9921875 683 631.275660879 683 388 c 0
 683 137.860198041 572.716012085 -9.998046875 332 -9.998046875 c 0
 124.006309148 -9.998046875 35 97.8236123132 35 225 c 0
 35 359.976676637 131.922851562 476.93359375 315 476.93359375 c 0
 408.8828125 476.93359375 448 455 448 455 c 25
 448 455 448 566 369 566 c 0
 316.408602151 566 296 520 296 520 c 25
 112 610 l 25
 112 610 169.137254902 738.9921875 347 738.9921875 c 0
EndSplineSet
Validated: 1
EndChar

StartChar: uni2213
Encoding: 8723 8723 640
Width: 500
Flags: W
HStem: 240 134<40 460> 429 134<40 178 322 460> 429 36<178 322>
VStem: 178 144<167 465>
LayerCount: 2
Fore
SplineSet
460 429 m 5xd0
 40 429 l 5
 40 563 l 5
 460 563 l 5
 460 429 l 5xd0
460 240 m 5
 40 240 l 5
 40 374 l 5
 460 374 l 5
 460 240 l 5
322 465 m 5xb0
 322 167 l 5
 178 167 l 5
 178 465 l 5
 322 465 l 5xb0
EndSplineSet
Validated: 5
EndChar

StartChar: notequal
Encoding: 8800 8800 642
Width: 500
Flags: W
HStem: 215 124<40 460> 390 124<40 460>
LayerCount: 2
Fore
SplineSet
67 146.005859375 m 5
 267 583.001953125 l 1
 433 583.001953125 l 1
 233 146.005859375 l 5
 67 146.005859375 l 5
EndSplineSet
Refer: 56 61 N 1 0 0 1 0 0 2
Validated: 5
EndChar

StartChar: approxequal
Encoding: 8776 8776 643
Width: 570
Flags: W
HStem: 167 139<318.612 458.798> 231 135<106.615 260.406> 367 139<318.612 458.798> 431 135<106.615 260.406> 516 20G<482 510>
LayerCount: 2
Fore
SplineSet
60 435 m 2x10
 60 516 99.6337890625 566 189 566 c 0x10
 291 566 316 506 400 506 c 0
 453.3984375 506 482 536 482 536 c 1
 510 536 l 1
 510 525 l 2
 510 427 470.296875 367 388 367 c 0x28
 298 367 262 431 180 431 c 0
 114.6015625 431 88 397 88 397 c 1
 60 397 l 1
 60 435 l 2x10
60 235 m 2
 60 316 99.6337890625 366 189 366 c 0x40
 291 366 316 306 400 306 c 0
 453.3984375 306 482 336 482 336 c 1
 510 336 l 1
 510 325 l 6
 510 227 470.296875 167 388 167 c 4x80
 298 167 262 231 180 231 c 4x40
 114.6015625 231 88 197 88 197 c 5
 60 197 l 5
 60 235 l 2
EndSplineSet
Validated: 1
EndChar

StartChar: uni2116
Encoding: 8470 8470 644
Width: 1257
Flags: W
HStem: 0 21G<60 296> 177 120<860 1142> 352.65 131.69<959.572 1048.59> 607.359 130.99<959.171 1048.99> 731 0G<60 102.77 507 743>
VStem: 60 236<0 286> 507 236<429 731> 805 142.261<496.198 594.366> 1060.9 142.261<496.198 594.366>
LayerCount: 2
Fore
SplineSet
947.260742188 547.162109375 m 4xf780
 947.260742188 508.677734375 968.899414062 484.340820312 1004.08007812 484.340820312 c 4
 1039.26074219 484.340820312 1060.89941406 508.677734375 1060.89941406 547.162109375 c 4
 1060.89941406 583.109375 1039.26074219 607.359375 1004.08007812 607.359375 c 4
 968.899414062 607.359375 947.260742188 583.109375 947.260742188 547.162109375 c 4xf780
805 541.719726562 m 4
 805 655.33984375 880.815429688 738.349609375 1004.08007812 738.349609375 c 4
 1127.34472656 738.349609375 1203.16015625 655.33984375 1203.16015625 541.719726562 c 4
 1203.16015625 429.811523438 1127.34472656 352.650390625 1004.08007812 352.650390625 c 4
 880.815429688 352.650390625 805 429.811523438 805 541.719726562 c 4
860 177 m 5
 860 297 l 5
 1142 297 l 5
 1142 177 l 5
 860 177 l 5
EndSplineSet
Refer: 11 78 N 1 0 0 1 0 0 2
EndChar

StartChar: integral
Encoding: 8747 8747 768
Width: 519
Flags: W
HStem: -189.994 191.101<-20.4114 157.839> 605.8 161.101<321.561 502.751>
LayerCount: 2
Fore
SplineSet
90.2001953125 -189.900390625 m 1024
313.400390625 24.2060546875 m 2
 287.794220522 -133.375445811 226.278320312 -189.994140625 89.400390625 -189.994140625 c 0
 0.2998046875 -189.994140625 -50.099609375 -153.893554688 -50.099609375 -153.893554688 c 1
 -18.7001953125 17.306640625 l 5
 -18.7001953125 17.306640625 3.77734375 1.1064453125 39 1.1064453125 c 0
 70.5 1.1064453125 91.6525892663 12.9771745883 99 59.6064453125 c 2
 183 592.700195312 l 2
 198.528552948 691.249892015 253.122070312 766.900390625 390 766.900390625 c 0
 509.100585938 766.900390625 545 719 545 719 c 1
 498 588 l 1
 498 588 484.623046875 605.799804688 455.700195312 605.799804688 c 0
 417.900390625 605.799804688 404.282905665 583.501061769 398.400390625 547.299804688 c 2
 313.400390625 24.2060546875 l 2
EndSplineSet
Validated: 1
EndChar

StartChar: florin
Encoding: 402 402 769
Width: 388
Flags: W
HStem: -189.994 161.101<-41.6889 148.839> 400 141<15 376> 625.8 141.101<190.561 374.251>
VStem: 66 212.4<-18.809 615.503>
AnchorPoint: "Anchor-2" 82.2002 -179.9 basechar 0
AnchorPoint: "Anchor-0" 260 758.008 basechar 0
LayerCount: 2
Fore
SplineSet
81.2001953125 -189.900390625 m 1028
15 541 m 1
 376 541 l 1
 376 400 l 1
 15 400 l 1
 15 541 l 1
278.400390625 24.2060546875 m 2
 278.400390625 -139.09375 217.278320312 -189.994140625 80.400390625 -189.994140625 c 0
 -8.7001953125 -189.994140625 -50.099609375 -163.893554688 -50.099609375 -163.893554688 c 1
 -44.7001953125 -21.693359375 l 1
 -44.7001953125 -21.693359375 -23.22265625 -28.8935546875 5.7001953125 -28.8935546875 c 0
 43.5 -28.8935546875 66 -14.09375 66 29.6064453125 c 2
 66 592.700195312 l 2
 66 692 122.122070312 766.900390625 259 766.900390625 c 0
 378.100585938 766.900390625 414 719 414 719 c 1
 372 608 l 1
 372 608 358.623046875 625.799804688 329.700195312 625.799804688 c 0
 291.900390625 625.799804688 278.400390625 600 278.400390625 567.299804688 c 2
 278.400390625 24.2060546875 l 2
EndSplineSet
Validated: 5
EndChar

StartChar: lozenge
Encoding: 9674 9674 770
Width: 697
Flags: W
LayerCount: 2
Fore
SplineSet
349.220703125 236.010742188 m 1
 449.44140625 366.010742188 l 1
 349.220703125 496.021484375 l 1
 248 366.010742188 l 1
 349.220703125 236.010742188 l 1
328 -19.9892578125 m 1
 2 356.021484375 l 1
 2 376.021484375 l 1
 328 752.021484375 l 1
 369.44140625 752.021484375 l 1
 695.44140625 376.021484375 l 1
 695.44140625 356.021484375 l 1
 369.44140625 -19.9892578125 l 1
 328 -19.9892578125 l 1
EndSplineSet
Validated: 1
EndChar

StartChar: uni203D
Encoding: 8253 8253 772
Width: 627
Flags: W
HStem: 0 200<165.69 414.31> 561 206.002<210.547 314.946>
VStem: 165 250<0.689667 199.31> 222 62<347 394> 326 266<468.293 613>
LayerCount: 2
Fore
SplineSet
80 497 m 1xd0
 284 497 l 1
 284 403 l 1
 264 243 l 1
 168 243 l 1
 80 403 l 1
 80 497 l 1xd0
304 767.001953125 m 0
 513 767.001953125 592 669 592 557 c 0
 592 400 414 354 414 260 c 2
 414 243 l 1
 222 243 l 1
 222 274 l 2
 222 394 326 436.010742188 326 505 c 0xd8
 326 538.989257812 307 561 263 561 c 0
 206 561 193 513 193 513 c 1
 15 602 l 1
 15 602 60 767.001953125 304 767.001953125 c 0
193 0 m 2
 177 0 165 12 165 28 c 2
 165 172 l 2
 165 188 177 200 193 200 c 2
 387 200 l 2
 403 200 415 188 415 172 c 2
 415 28 l 2xe0
 415 12 403 0 387 0 c 2
 193 0 l 2
EndSplineSet
Validated: 5
EndChar

StartChar: uni2E3B
Encoding: 11835 11835 774
Width: 3050
Flags: W
HStem: 202 214<40 3010>
LayerCount: 2
Fore
SplineSet
40 202 m 1
 40 416 l 1
 3010 416 l 5
 3010 202 l 5
 40 202 l 1
EndSplineSet
Validated: 1
Substitution2: "'case' Case-Sensitive Forms in Latin lookup 0-1" uni2E3B.case
EndChar

StartChar: uni2E3A
Encoding: 11834 11834 775
Width: 2050
Flags: W
HStem: 202 214<40 2010>
LayerCount: 2
Fore
SplineSet
40 202 m 5
 40 416 l 5
 2010 416 l 5
 2010 202 l 5
 40 202 l 5
EndSplineSet
Validated: 1
Substitution2: "'case' Case-Sensitive Forms in Latin lookup 0-1" uni2E3A.case
EndChar

StartChar: zero.superior
Encoding: 8304 8304 776
Width: 550
HStem: 284 155<230.465 319.535> 646 155<231.011 318.989>
VStem: 23 189<457.846 626.777> 338 189<457.846 626.777>
LayerCount: 2
Fore
SplineSet
212 542 m 4
 212 479 229 439 275 439 c 4
 321 439 338 479 338 542 c 4
 338 604 321 646 275 646 c 4
 229 646 212 604 212 542 c 4
23 539 m 4
 23 690 110 801 275 801 c 4
 440 801 527 690 527 539 c 4
 527 388 440 284 275 284 c 4
 110 284 23 388 23 539 c 4
EndSplineSet
Validated: 1
EndChar

StartChar: one.superior
Encoding: 185 185 777
Width: 272
VStem: 40 192<300 741>
LayerCount: 2
Fore
SplineSet
40 300 m 5
 40 741 l 5
 232 801 l 5
 232 300 l 5
 40 300 l 5
EndSplineSet
Validated: 1
EndChar

StartChar: two.superior
Encoding: 178 178 778
Width: 462
HStem: 300 151<306.818 436> 654 139<151.853 242.449>
VStem: 251 183<593.434 690.356>
LayerCount: 2
Fore
SplineSet
218 793 m 4
 377 793 434 733 434 659 c 0
 434 547 233 440 233 440 c 25
 436 451 l 17
 436 300 l 25
 1 300 l 1
 1 317 l 1
 1 317 251 518 251 608 c 0
 251 635 235 654 200 654 c 0
 134 654 133 579 133 579 c 25
 21 647 l 25
 21 647 38 793 218 793 c 4
EndSplineSet
Validated: 1
EndChar

StartChar: three.superior
Encoding: 179 179 779
Width: 499
HStem: 286 117<180.454 286.734> 682 117<190.913 281.207>
VStem: 288 169<598.72 675.416> 297 179<412.002 501.324>
LayerCount: 2
Fore
SplineSet
243 799 m 4xe0
 380 799 457 744 457 659 c 4xe0
 457 579 367 554 367 554 c 5
 367 554 476 533 476 436 c 4
 476 350 394 286 243 286 c 4
 60 286 13 354 13 420 c 4
 13 432 17 442 17 442 c 5
 174 473 l 5
 174 473 172 465 172 450 c 4
 172 426 191 403 235 403 c 4
 277 403 297 421 297 452 c 4xd0
 297 530 199 533 199 533 c 5
 199 560 l 5
 199 560 288 565 288 636 c 4
 288 663 273 682 238 682 c 4
 178 682 176 618 176 618 c 5
 24 655 l 5
 24 655 41 799 243 799 c 4xe0
EndSplineSet
Validated: 1
EndChar

StartChar: four.superior
Encoding: 8308 8308 780
Width: 550
HStem: 376 121<183 524>
VStem: 284 170<300 590>
LayerCount: 2
Fore
SplineSet
284 300 m 5
 284 590 l 5
 183 497 l 1
 524 497 l 1
 524 376 l 1
 27 376 l 1
 27 474 l 1
 351 787 l 1
 454 787 l 1
 454 300 l 1
 284 300 l 5
EndSplineSet
Validated: 5
EndChar

StartChar: five.superior
Encoding: 8309 8309 781
Width: 487
HStem: 293 140<168.91 273.846> 523 110<178.431 268.854> 653 134<185 407>
VStem: 280 184<442.863 508.071>
LayerCount: 2
Fore
SplineSet
45 502 m 1
 75 787 l 25
 431 787 l 29
 407 653 l 5
 185 653 l 25
 178 622 l 17
 178 622 203 633 262 633 c 0
 396 633 464 572 464 470 c 0
 464 358 386 293 241 293 c 0
 33 293 17 443 17 443 c 1
 152 480 l 1
 152 480 162 433 220 433 c 0
 259 433 280 451 280 475 c 0
 280 506 251 523 187 523 c 0
 129 523 70 496 70 496 c 9
 45 502 l 1
EndSplineSet
Validated: 1
EndChar

StartChar: six.superior
Encoding: 8310 8310 782
Width: 520
HStem: 285 135<218.549 304.041> 507 113<216.603 371> 669 131<222.052 363.999>
VStem: 23 188<426.989 591.25> 312 185<427.032 499.638>
LayerCount: 2
Fore
SplineSet
211 464 m 4
 211 435 233 420 262 420 c 4
 291 420 312 435 312 464 c 4
 312 493 291 507 262 507 c 4
 233 507 211 493 211 464 c 4
291 800 m 4
 432 800 477 699 477 699 c 29
 339 643 l 29
 339 643 321 669 275 669 c 4
 200 669 200 588 200 588 c 29
 200 588 232 620 310 620 c 4
 432 620 497 549 497 463 c 4
 497 367 427 285 265 285 c 4
 99 285 23 376 23 531 c 4
 23 717 135 800 291 800 c 4
EndSplineSet
Validated: 1
EndChar

StartChar: seven.superior
Encoding: 8311 8311 783
Width: 409
HStem: 646 141<47 250>
LayerCount: 2
Fore
SplineSet
19 646 m 5
 47 787 l 29
 408 787 l 29
 408 770 l 29
 257 300 l 29
 64 300 l 29
 250 650 l 29
 19 646 l 5
EndSplineSet
Validated: 1
EndChar

StartChar: eight.superior
Encoding: 8312 8312 784
Width: 528
HStem: 286 122<212.979 315.021> 498 106<236 292> 533 44<123 405> 675 125<219.445 308.555>
VStem: 23 182<417.633 487.937> 37 179<609.383 668.501> 312 179<609.383 668.501> 323 182<417.633 487.937>
LayerCount: 2
Fore
SplineSet
205 453 m 4xd9
 205 426 230 408 264 408 c 4
 298 408 323 426 323 453 c 4
 323 480 298 498 264 498 c 4
 230 498 205 480 205 453 c 4xd9
23 437 m 4
 23 527 94 577 264 577 c 4xb9
 434 577 505 527 505 437 c 4
 505 334 404 286 264 286 c 4
 124 286 23 334 23 437 c 4
216 639 m 4xd6
 216 617 236 604 264 604 c 4
 292 604 312 617 312 639 c 4
 312 661 292 675 264 675 c 4
 236 675 216 661 216 639 c 4xd6
37 659 m 4
 37 747 123 800 264 800 c 4
 405 800 491 747 491 659 c 4
 491 567 405 533 264 533 c 4xb6
 123 533 37 567 37 659 c 4
EndSplineSet
Validated: 5
EndChar

StartChar: nine.superior
Encoding: 8313 8313 785
Width: 519
HStem: 285 129<155.083 292.622> 467 118<149 301.864> 672 128<211.635 300.544>
VStem: 23 183<592.482 664.552> 307 189<493.75 664.594>
LayerCount: 2
Fore
SplineSet
307 628 m 0
 307 657 286 672 257 672 c 0
 228 672 206 657 206 628 c 0
 206 599 228 585 257 585 c 0
 286 585 307 599 307 628 c 0
229 285 m 0
 74 285 23 404 23 404 c 25
 176 447 l 25
 176 447 190 414 239 414 c 0
 317 414 318 499 318 499 c 29
 318 499 288 467 210 467 c 0
 88 467 23 543 23 629 c 0
 23 725 93 800 255 800 c 0
 421 800 496 709 496 554 c 0
 496 368 384 285 229 285 c 0
EndSplineSet
Validated: 1
EndChar

StartChar: zero.inferior
Encoding: 8320 8320 786
Width: 550
HStem: -316 155<230.465 319.535> 46 155<231.011 318.989>
VStem: 23 189<-142.154 26.7773> 338 189<-142.154 26.7773>
LayerCount: 2
Fore
SplineSet
212 -58 m 4
 212 -121 229 -161 275 -161 c 4
 321 -161 338 -121 338 -58 c 4
 338 4 321 46 275 46 c 4
 229 46 212 4 212 -58 c 4
23 -61 m 4
 23 90 110 201 275 201 c 4
 440 201 527 90 527 -61 c 4
 527 -212 440 -316 275 -316 c 4
 110 -316 23 -212 23 -61 c 4
EndSplineSet
Validated: 1
EndChar

StartChar: one.inferior
Encoding: 8321 8321 787
Width: 272
VStem: 40 192<-300 141>
LayerCount: 2
Fore
SplineSet
40 -300 m 5
 40 141 l 5
 232 201 l 5
 232 -300 l 5
 40 -300 l 5
EndSplineSet
Validated: 1
EndChar

StartChar: two.inferior
Encoding: 8322 8322 788
Width: 462
HStem: -300 151<306.818 436> 54 139<151.853 242.449>
VStem: 251 183<-6.56603 90.3557>
LayerCount: 2
Fore
SplineSet
218 193 m 4
 377 193 434 133 434 59 c 0
 434 -53 233 -160 233 -160 c 25
 436 -149 l 17
 436 -300 l 25
 1 -300 l 1
 1 -283 l 1
 1 -283 251 -82 251 8 c 0
 251 35 235 54 200 54 c 0
 134 54 133 -21 133 -21 c 25
 21 47 l 25
 21 47 38 193 218 193 c 4
EndSplineSet
Validated: 1
EndChar

StartChar: three.inferior
Encoding: 8323 8323 789
Width: 499
HStem: -314 117<180.454 286.734> 82 117<190.913 281.207>
VStem: 288 169<-1.27995 75.4157> 297 179<-187.998 -98.6757>
LayerCount: 2
Fore
SplineSet
243 199 m 4xe0
 380 199 457 144 457 59 c 4xe0
 457 -21 367 -46 367 -46 c 5
 367 -46 476 -67 476 -164 c 4
 476 -250 394 -314 243 -314 c 4
 60 -314 13 -246 13 -180 c 4
 13 -168 17 -158 17 -158 c 5
 174 -127 l 5
 174 -127 172 -135 172 -150 c 4
 172 -174 191 -197 235 -197 c 4
 277 -197 297 -179 297 -148 c 4xd0
 297 -70 199 -67 199 -67 c 5
 199 -40 l 5
 199 -40 288 -35 288 36 c 4
 288 63 273 82 238 82 c 4
 178 82 176 18 176 18 c 5
 24 55 l 5
 24 55 41 199 243 199 c 4xe0
EndSplineSet
Validated: 1
EndChar

StartChar: four.inferior
Encoding: 8324 8324 790
Width: 550
HStem: -224 121<183 524>
VStem: 284 170<-300 -10>
LayerCount: 2
Fore
SplineSet
284 -300 m 5
 284 -10 l 5
 183 -103 l 1
 524 -103 l 1
 524 -224 l 1
 27 -224 l 1
 27 -126 l 1
 351 187 l 1
 454 187 l 1
 454 -300 l 1
 284 -300 l 5
EndSplineSet
Validated: 5
EndChar

StartChar: five.inferior
Encoding: 8325 8325 791
Width: 487
HStem: -307 140<168.91 273.846> -77 110<178.431 268.854> 53 134<185 407>
VStem: 280 184<-157.137 -91.9295>
LayerCount: 2
Fore
SplineSet
45 -98 m 1
 75 187 l 25
 431 187 l 29
 407 53 l 5
 185 53 l 25
 178 22 l 17
 178 22 203 33 262 33 c 0
 396 33 464 -28 464 -130 c 0
 464 -242 386 -307 241 -307 c 0
 33 -307 17 -157 17 -157 c 1
 152 -120 l 1
 152 -120 162 -167 220 -167 c 0
 259 -167 280 -149 280 -125 c 0
 280 -94 251 -77 187 -77 c 0
 129 -77 70 -104 70 -104 c 9
 45 -98 l 1
EndSplineSet
Validated: 1
EndChar

StartChar: six.inferior
Encoding: 8326 8326 792
Width: 520
HStem: -315 135<218.549 304.041> -93 113<216.603 371> 69 131<222.052 363.999>
VStem: 23 188<-173.011 -8.75> 312 185<-172.968 -100.362>
LayerCount: 2
Fore
SplineSet
211 -136 m 4
 211 -165 233 -180 262 -180 c 4
 291 -180 312 -165 312 -136 c 4
 312 -107 291 -93 262 -93 c 4
 233 -93 211 -107 211 -136 c 4
291 200 m 4
 432 200 477 99 477 99 c 29
 339 43 l 29
 339 43 321 69 275 69 c 4
 200 69 200 -12 200 -12 c 29
 200 -12 232 20 310 20 c 4
 432 20 497 -51 497 -137 c 4
 497 -233 427 -315 265 -315 c 4
 99 -315 23 -224 23 -69 c 4
 23 117 135 200 291 200 c 4
EndSplineSet
Validated: 1
EndChar

StartChar: seven.inferior
Encoding: 8327 8327 793
Width: 409
HStem: 46 141<47 250>
LayerCount: 2
Fore
SplineSet
19 46 m 5
 47 187 l 29
 408 187 l 29
 408 170 l 29
 257 -300 l 29
 64 -300 l 29
 250 50 l 29
 19 46 l 5
EndSplineSet
Validated: 1
EndChar

StartChar: eight.inferior
Encoding: 8328 8328 794
Width: 528
HStem: -314 122<212.979 315.021> -102 106<236 292> -67 44<123 405> 75 125<219.445 308.555>
VStem: 23 182<-182.367 -112.063> 37 179<9.38338 68.5005> 312 179<9.38338 68.5005> 323 182<-182.367 -112.063>
LayerCount: 2
Fore
SplineSet
205 -147 m 4xd9
 205 -174 230 -192 264 -192 c 4
 298 -192 323 -174 323 -147 c 4
 323 -120 298 -102 264 -102 c 4
 230 -102 205 -120 205 -147 c 4xd9
23 -163 m 4
 23 -73 94 -23 264 -23 c 4xb9
 434 -23 505 -73 505 -163 c 4
 505 -266 404 -314 264 -314 c 4
 124 -314 23 -266 23 -163 c 4
216 39 m 4xd6
 216 17 236 4 264 4 c 4
 292 4 312 17 312 39 c 4
 312 61 292 75 264 75 c 4
 236 75 216 61 216 39 c 4xd6
37 59 m 4
 37 147 123 200 264 200 c 4
 405 200 491 147 491 59 c 4
 491 -33 405 -67 264 -67 c 4xb6
 123 -67 37 -33 37 59 c 4
EndSplineSet
Validated: 5
EndChar

StartChar: nine.inferior
Encoding: 8329 8329 795
Width: 519
HStem: -315 129<155.083 292.622> -133 118<149 301.864> 72 128<211.635 300.544>
VStem: 23 183<-7.51808 64.5517> 307 189<-106.25 64.5937>
LayerCount: 2
Fore
SplineSet
307 28 m 0
 307 57 286 72 257 72 c 0
 228 72 206 57 206 28 c 0
 206 -1 228 -15 257 -15 c 0
 286 -15 307 -1 307 28 c 0
229 -315 m 0
 74 -315 23 -196 23 -196 c 25
 176 -153 l 25
 176 -153 190 -186 239 -186 c 0
 317 -186 318 -101 318 -101 c 29
 318 -101 288 -133 210 -133 c 0
 88 -133 23 -57 23 29 c 0
 23 125 93 200 255 200 c 0
 421 200 496 109 496 -46 c 0
 496 -232 384 -315 229 -315 c 0
EndSplineSet
Validated: 1
EndChar

StartChar: zero.numr
Encoding: 65555 -1 796
Width: 550
HStem: 222 155<230.465 319.535> 584 155<231.011 318.989>
VStem: 23 189<395.846 564.777> 338 189<395.846 564.777>
LayerCount: 2
Fore
SplineSet
212 480 m 4
 212 417 229 377 275 377 c 4
 321 377 338 417 338 480 c 4
 338 542 321 584 275 584 c 4
 229 584 212 542 212 480 c 4
23 477 m 4
 23 628 110 739 275 739 c 4
 440 739 527 628 527 477 c 4
 527 326 440 222 275 222 c 4
 110 222 23 326 23 477 c 4
EndSplineSet
Validated: 1
EndChar

StartChar: one.numr
Encoding: 65556 -1 797
Width: 272
HStem: 722 20G<168 232>
VStem: 40 192<241 682>
LayerCount: 2
Fore
SplineSet
40 241 m 5
 40 682 l 5
 232 742 l 5
 232 241 l 5
 40 241 l 5
EndSplineSet
Validated: 1
EndChar

StartChar: two.numr
Encoding: 65557 -1 798
Width: 462
HStem: 246 151<306.818 436> 600 139<151.853 242.449>
VStem: 251 183<539.434 636.356>
LayerCount: 2
Fore
SplineSet
218 739 m 4
 377 739 434 679 434 605 c 4
 434 493 233 386 233 386 c 29
 436 397 l 21
 436 246 l 29
 1 246 l 5
 1 263 l 5
 1 263 251 464 251 554 c 4
 251 581 235 600 200 600 c 4
 134 600 133 525 133 525 c 29
 21 593 l 29
 21 593 38 739 218 739 c 4
EndSplineSet
Validated: 1
EndChar

StartChar: three.numr
Encoding: 65558 -1 799
Width: 499
HStem: 226 117<180.454 286.734> 622 117<190.913 281.207>
VStem: 288 169<538.72 615.416> 297 179<352.002 441.324>
LayerCount: 2
Fore
SplineSet
243 739 m 4xe0
 380 739 457 684 457 599 c 4xe0
 457 519 367 494 367 494 c 5
 367 494 476 473 476 376 c 4
 476 290 394 226 243 226 c 4
 60 226 13 294 13 360 c 4
 13 372 17 382 17 382 c 5
 174 413 l 5
 174 413 172 405 172 390 c 4
 172 366 191 343 235 343 c 4
 277 343 297 361 297 392 c 4xd0
 297 470 199 473 199 473 c 5
 199 500 l 5
 199 500 288 505 288 576 c 4
 288 603 273 622 238 622 c 4
 178 622 176 558 176 558 c 5
 24 595 l 5
 24 595 41 739 243 739 c 4xe0
EndSplineSet
Validated: 1
EndChar

StartChar: four.numr
Encoding: 65559 -1 800
Width: 550
HStem: 320 121<183 524> 711 20G<330.297 454>
VStem: 284 170<244 534>
LayerCount: 2
Fore
SplineSet
284 244 m 5
 284 534 l 5
 183 441 l 5
 524 441 l 5
 524 320 l 5
 27 320 l 5
 27 418 l 5
 351 731 l 5
 454 731 l 5
 454 244 l 5
 284 244 l 5
EndSplineSet
Validated: 5
EndChar

StartChar: five.numr
Encoding: 65560 -1 801
Width: 487
HStem: 237 140<168.91 273.846> 467 110<178.431 268.854> 597 134<185 407>
VStem: 280 184<386.863 452.071>
LayerCount: 2
Fore
SplineSet
45 446 m 5
 75 731 l 29
 431 731 l 29
 407 597 l 5
 185 597 l 29
 178 566 l 21
 178 566 203 577 262 577 c 4
 396 577 464 516 464 414 c 4
 464 302 386 237 241 237 c 4
 33 237 17 387 17 387 c 5
 152 424 l 5
 152 424 162 377 220 377 c 4
 259 377 280 395 280 419 c 4
 280 450 251 467 187 467 c 4
 129 467 70 440 70 440 c 13
 45 446 l 5
EndSplineSet
Validated: 1
EndChar

StartChar: six.numr
Encoding: 65561 -1 802
Width: 520
HStem: 224 135<218.549 304.041> 446 113<216.603 371> 608 131<222.052 363.999>
VStem: 23 188<365.989 530.25> 312 185<366.032 438.638>
LayerCount: 2
Fore
SplineSet
211 403 m 4
 211 374 233 359 262 359 c 4
 291 359 312 374 312 403 c 4
 312 432 291 446 262 446 c 4
 233 446 211 432 211 403 c 4
291 739 m 4
 432 739 477 638 477 638 c 29
 339 582 l 29
 339 582 321 608 275 608 c 4
 200 608 200 527 200 527 c 29
 200 527 232 559 310 559 c 4
 432 559 497 488 497 402 c 4
 497 306 427 224 265 224 c 4
 99 224 23 315 23 470 c 4
 23 656 135 739 291 739 c 4
EndSplineSet
Validated: 1
EndChar

StartChar: seven.numr
Encoding: 65562 -1 803
Width: 409
HStem: 590 141<47 250>
LayerCount: 2
Fore
SplineSet
19 590 m 5
 47 731 l 29
 408 731 l 29
 408 714 l 29
 257 244 l 29
 64 244 l 29
 250 594 l 29
 19 590 l 5
EndSplineSet
Validated: 1
EndChar

StartChar: eight.numr
Encoding: 65563 -1 804
Width: 528
HStem: 225 122<212.979 315.021> 437 106<236 292> 472 44<123 405> 614 125<219.445 308.555>
VStem: 23 182<356.633 426.937> 37 179<548.383 607.501> 312 179<548.383 607.501> 323 182<356.633 426.937>
LayerCount: 2
Fore
SplineSet
205 392 m 4xd9
 205 365 230 347 264 347 c 4
 298 347 323 365 323 392 c 4
 323 419 298 437 264 437 c 4
 230 437 205 419 205 392 c 4xd9
23 376 m 4
 23 466 94 516 264 516 c 4xb9
 434 516 505 466 505 376 c 4
 505 273 404 225 264 225 c 4
 124 225 23 273 23 376 c 4
216 578 m 4xd6
 216 556 236 543 264 543 c 4
 292 543 312 556 312 578 c 4
 312 600 292 614 264 614 c 4
 236 614 216 600 216 578 c 4xd6
37 598 m 4
 37 686 123 739 264 739 c 4
 405 739 491 686 491 598 c 4
 491 506 405 472 264 472 c 4xb6
 123 472 37 506 37 598 c 4
EndSplineSet
Validated: 5
EndChar

StartChar: nine.numr
Encoding: 65564 -1 805
Width: 519
HStem: 224 129<155.083 292.622> 406 118<149 301.864> 611 128<211.635 300.544>
VStem: 23 183<531.482 603.552> 307 189<432.75 603.594>
LayerCount: 2
Fore
SplineSet
307 567 m 4
 307 596 286 611 257 611 c 4
 228 611 206 596 206 567 c 4
 206 538 228 524 257 524 c 4
 286 524 307 538 307 567 c 4
229 224 m 4
 74 224 23 343 23 343 c 29
 176 386 l 29
 176 386 190 353 239 353 c 4
 317 353 318 438 318 438 c 29
 318 438 288 406 210 406 c 4
 88 406 23 482 23 568 c 4
 23 664 93 739 255 739 c 4
 421 739 496 648 496 493 c 4
 496 307 384 224 229 224 c 4
EndSplineSet
Validated: 1
EndChar

StartChar: zero.dnom
Encoding: 65565 -1 806
Width: 550
HStem: -16 155<230.465 319.535> 346 155<231.011 318.989>
VStem: 23 189<157.846 326.777> 338 189<157.846 326.777>
LayerCount: 2
Fore
SplineSet
212 242 m 4
 212 179 229 139 275 139 c 4
 321 139 338 179 338 242 c 4
 338 304 321 346 275 346 c 4
 229 346 212 304 212 242 c 4
23 239 m 4
 23 390 110 501 275 501 c 4
 440 501 527 390 527 239 c 4
 527 88 440 -16 275 -16 c 4
 110 -16 23 88 23 239 c 4
EndSplineSet
Validated: 1
EndChar

StartChar: one.dnom
Encoding: 65566 -1 807
Width: 272
HStem: 0 21G<40 232>
VStem: 40 192<0 441>
LayerCount: 2
Fore
SplineSet
40 0 m 5
 40 441 l 5
 232 501 l 5
 232 0 l 5
 40 0 l 5
EndSplineSet
Validated: 1
EndChar

StartChar: two.dnom
Encoding: 65567 -1 808
Width: 462
HStem: 0 151<306.818 436> 354 139<151.853 242.449>
VStem: 251 183<293.434 390.356>
LayerCount: 2
Fore
SplineSet
218 493 m 4
 377 493 434 433 434 359 c 0
 434 247 233 140 233 140 c 25
 436 151 l 17
 436 0 l 25
 1 0 l 1
 1 17 l 1
 1 17 251 218 251 308 c 0
 251 335 235 354 200 354 c 0
 134 354 133 279 133 279 c 25
 21 347 l 25
 21 347 38 493 218 493 c 4
EndSplineSet
Validated: 1
EndChar

StartChar: three.dnom
Encoding: 65568 -1 809
Width: 499
HStem: -14 117<180.454 286.734> 382 117<190.913 281.207>
VStem: 288 169<298.72 375.416> 297 179<112.002 201.324>
LayerCount: 2
Fore
SplineSet
243 499 m 4xe0
 380 499 457 444 457 359 c 4xe0
 457 279 367 254 367 254 c 5
 367 254 476 233 476 136 c 4
 476 50 394 -14 243 -14 c 4
 60 -14 13 54 13 120 c 4
 13 132 17 142 17 142 c 5
 174 173 l 5
 174 173 172 165 172 150 c 4
 172 126 191 103 235 103 c 4
 277 103 297 121 297 152 c 4xd0
 297 230 199 233 199 233 c 5
 199 260 l 5
 199 260 288 265 288 336 c 4
 288 363 273 382 238 382 c 4
 178 382 176 318 176 318 c 5
 24 355 l 5
 24 355 41 499 243 499 c 4xe0
EndSplineSet
Validated: 1
EndChar

StartChar: four.dnom
Encoding: 65569 -1 810
Width: 550
HStem: 0 21G<284 454> 76 121<183 524>
VStem: 284 170<0 290>
LayerCount: 2
Fore
SplineSet
284 0 m 5
 284 290 l 5
 183 197 l 1
 524 197 l 1
 524 76 l 1
 27 76 l 1
 27 174 l 1
 351 487 l 1
 454 487 l 1
 454 0 l 1
 284 0 l 5
EndSplineSet
Validated: 5
EndChar

StartChar: five.dnom
Encoding: 65570 -1 811
Width: 487
HStem: -7 140<168.91 273.846> 223 110<178.431 268.854> 353 134<185 407>
VStem: 280 184<142.863 208.071>
LayerCount: 2
Fore
SplineSet
45 202 m 1
 75 487 l 25
 431 487 l 29
 407 353 l 5
 185 353 l 25
 178 322 l 17
 178 322 203 333 262 333 c 0
 396 333 464 272 464 170 c 0
 464 58 386 -7 241 -7 c 0
 33 -7 17 143 17 143 c 1
 152 180 l 1
 152 180 162 133 220 133 c 0
 259 133 280 151 280 175 c 0
 280 206 251 223 187 223 c 0
 129 223 70 196 70 196 c 9
 45 202 l 1
EndSplineSet
Validated: 1
EndChar

StartChar: six.dnom
Encoding: 65571 -1 812
Width: 520
HStem: -15 135<218.549 304.041> 207 113<216.603 371> 369 131<222.052 363.999>
VStem: 23 188<126.989 291.25> 312 185<127.032 199.638>
LayerCount: 2
Fore
SplineSet
211 164 m 4
 211 135 233 120 262 120 c 4
 291 120 312 135 312 164 c 4
 312 193 291 207 262 207 c 4
 233 207 211 193 211 164 c 4
291 500 m 4
 432 500 477 399 477 399 c 29
 339 343 l 29
 339 343 321 369 275 369 c 4
 200 369 200 288 200 288 c 29
 200 288 232 320 310 320 c 4
 432 320 497 249 497 163 c 4
 497 67 427 -15 265 -15 c 4
 99 -15 23 76 23 231 c 4
 23 417 135 500 291 500 c 4
EndSplineSet
Validated: 1
EndChar

StartChar: seven.dnom
Encoding: 65572 -1 813
Width: 409
HStem: 0 21G<64 263.426> 346 141<47 250>
LayerCount: 2
Fore
SplineSet
19 346 m 5
 47 487 l 29
 408 487 l 29
 408 470 l 29
 257 0 l 29
 64 0 l 29
 250 350 l 29
 19 346 l 5
EndSplineSet
Validated: 1
EndChar

StartChar: eight.dnom
Encoding: 65573 -1 814
Width: 528
HStem: -14 122<212.979 315.021> 198 106<236 292> 233 44<123 405> 375 125<219.445 308.555>
VStem: 23 182<117.633 187.937> 37 179<309.383 368.501> 312 179<309.383 368.501> 323 182<117.633 187.937>
LayerCount: 2
Fore
SplineSet
205 153 m 4xd9
 205 126 230 108 264 108 c 4
 298 108 323 126 323 153 c 4
 323 180 298 198 264 198 c 4
 230 198 205 180 205 153 c 4xd9
23 137 m 4
 23 227 94 277 264 277 c 4xb9
 434 277 505 227 505 137 c 4
 505 34 404 -14 264 -14 c 4
 124 -14 23 34 23 137 c 4
216 339 m 4xd6
 216 317 236 304 264 304 c 4
 292 304 312 317 312 339 c 4
 312 361 292 375 264 375 c 4
 236 375 216 361 216 339 c 4xd6
37 359 m 4
 37 447 123 500 264 500 c 4
 405 500 491 447 491 359 c 4
 491 267 405 233 264 233 c 4xb6
 123 233 37 267 37 359 c 4
EndSplineSet
Validated: 5
EndChar

StartChar: nine.dnom
Encoding: 65574 -1 815
Width: 519
HStem: -15 129<155.083 292.622> 167 118<149 301.864> 372 128<211.635 300.544>
VStem: 23 183<292.482 364.552> 307 189<193.75 364.594>
LayerCount: 2
Fore
SplineSet
307 328 m 0
 307 357 286 372 257 372 c 0
 228 372 206 357 206 328 c 0
 206 299 228 285 257 285 c 0
 286 285 307 299 307 328 c 0
229 -15 m 0
 74 -15 23 104 23 104 c 25
 176 147 l 25
 176 147 190 114 239 114 c 0
 317 114 318 199 318 199 c 29
 318 199 288 167 210 167 c 0
 88 167 23 243 23 329 c 0
 23 425 93 500 255 500 c 0
 421 500 496 409 496 254 c 0
 496 68 384 -15 229 -15 c 0
EndSplineSet
Validated: 1
EndChar

StartChar: endash.case
Encoding: 65575 -1 816
Width: 650
Flags: W
HStem: 258 214<40 610>
LayerCount: 2
Fore
SplineSet
40 258 m 5
 40 472 l 5
 610 472 l 5
 610 258 l 5
 40 258 l 5
EndSplineSet
EndChar

StartChar: emdash.case
Encoding: 65576 -1 817
Width: 1050
Flags: W
HStem: 258 214<40 1010>
LayerCount: 2
Fore
SplineSet
40 258 m 5
 40 472 l 5
 1010 472 l 5
 1010 258 l 5
 40 258 l 5
EndSplineSet
EndChar

StartChar: uni2E3A.case
Encoding: 65577 -1 818
Width: 2050
Flags: W
HStem: 258 214<40 2010>
LayerCount: 2
Fore
SplineSet
40 258 m 1
 40 472 l 1
 2010 472 l 5
 2010 258 l 5
 40 258 l 1
EndSplineSet
EndChar

StartChar: uni2E3B.case
Encoding: 65578 -1 819
Width: 3050
Flags: W
HStem: 258 214<40 3010>
LayerCount: 2
Fore
SplineSet
40 258 m 1
 40 472 l 1
 3010 472 l 5
 3010 258 l 5
 40 258 l 1
EndSplineSet
EndChar

StartChar: parenleft.case
Encoding: 65579 -1 820
Width: 416
Flags: W
VStem: 35 204.811<182.823 530.72>
LayerCount: 2
Fore
SplineSet
401 40.033203125 m 5
 401 -135 l 5
 175.060546875 -135 35 67.013671875 35 360 c 0
 35 639.672851562 175.060546875 844 401 844 c 1
 401 668.966796875 l 1
 298.928710938 668.966796875 239.810546875 550.87890625 239.810546875 363.083007812 c 0
 239.810546875 157.934570312 298.928710938 40.033203125 401 40.033203125 c 5
EndSplineSet
EndChar

StartChar: parenright.case
Encoding: 65580 -1 821
Width: 416
Flags: W
VStem: 176.189 204.811<182.823 530.72>
LayerCount: 2
Fore
SplineSet
15 40.033203125 m 5
 117.071289062 40.033203125 176.189453125 157.934570312 176.189453125 363.083007812 c 4
 176.189453125 550.87890625 117.071289062 668.966796875 15 668.966796875 c 5
 15 844 l 5
 240.939453125 844 381 639.672851562 381 360 c 4
 381 67.013671875 240.939453125 -135 15 -135 c 5
 15 40.033203125 l 5
EndSplineSet
EndChar

StartChar: bracketleft.case
Encoding: 65581 -1 822
Width: 431
Flags: W
HStem: -136.994 166.996<266 416> 673.006 166.996<266 416>
VStem: 60 356<-136.994 30.002 673.006 840.002> 60 206<30.002 673.006>
LayerCount: 2
Fore
SplineSet
60 840.001953125 m 5xe0
 416 840.001953125 l 5
 416 673.005859375 l 5xe0
 266 673.005859375 l 5
 266 30.001953125 l 5xd0
 416 30.001953125 l 5
 416 -136.994140625 l 5
 60 -136.994140625 l 5
 60 840.001953125 l 5xe0
EndSplineSet
EndChar

StartChar: bracketright.case
Encoding: 65582 -1 823
Width: 431
Flags: W
HStem: -136.994 166.996<15 165> 673.006 166.996<15 165>
VStem: 15 356<-136.994 30.002 673.006 840.002> 165 206<30.002 673.006>
LayerCount: 2
Fore
SplineSet
371 840.001953125 m 5xe0
 371 -136.994140625 l 5
 15 -136.994140625 l 5
 15 30.001953125 l 5xe0
 165 30.001953125 l 5
 165 673.005859375 l 5xd0
 15 673.005859375 l 5
 15 840.001953125 l 5
 371 840.001953125 l 5xe0
EndSplineSet
EndChar

